# Blender 4.4.1
# www.blender.org
mtllib Funnel.mtl
o 立方体
v 0.105038 -0.110576 0.500000
v 0.105038 0.121934 0.500000
v -0.105038 -0.110576 0.500000
v -0.105038 0.121934 0.500000
v 0.105038 -0.110576 -0.500000
v 0.105038 0.121934 -0.500000
v -0.105038 -0.110576 -0.500000
v -0.105038 0.121934 -0.500000
v -0.100992 -0.144101 0.572933
v 0.000000 -0.160942 0.609568
v 0.100992 -0.144101 0.572933
v 0.120360 -0.086715 0.572933
v 0.128056 -0.000000 0.609568
v 0.120360 0.077477 0.572933
v 0.100992 0.155460 0.572933
v 0.000000 0.147283 0.609568
v -0.100992 0.155460 0.572933
v -0.120360 0.077477 0.572933
v -0.128056 -0.000000 0.609568
v -0.120360 -0.086715 0.572933
v -0.120360 -0.144101 -0.296650
v -0.128056 -0.160942 -0.000000
v -0.120360 -0.144101 0.296650
v -0.120360 0.155460 0.296650
v -0.128056 0.172300 0.000000
v -0.120360 0.155460 -0.296650
v -0.110877 0.077477 -0.102505
v -0.109803 -0.000000 -0.118748
v -0.110877 -0.086715 -0.102505
v 0.100992 -0.144101 -0.572933
v -0.000000 -0.160942 -0.609568
v -0.100992 -0.144101 -0.572933
v -0.100992 0.155460 -0.572933
v -0.000000 0.154924 -0.609568
v 0.100992 0.155460 -0.572933
v 0.110877 0.077477 -0.094734
v 0.109803 -0.000000 -0.103897
v 0.110877 -0.086715 -0.102505
v 0.120360 -0.144101 0.296650
v 0.128056 -0.160942 0.000000
v 0.120360 -0.144101 -0.296650
v 0.120360 0.155460 -0.296650
v 0.128056 0.172300 -0.000000
v 0.120360 0.155460 0.296650
v 0.107633 -0.095682 0.728990
v 0.113415 -0.000000 0.781829
v 0.107633 0.086444 0.728990
v 0.000000 -0.103489 0.781829
v 0.000000 0.000000 0.839506
v 0.000000 0.094251 0.781829
v -0.107633 -0.095682 0.728990
v -0.113415 0.000000 0.781829
v -0.107633 0.086444 0.728990
v -0.132858 -0.095682 0.316157
v -0.135091 -0.000000 0.333140
v -0.132858 0.086444 0.316157
v -0.142488 -0.103489 -0.000000
v -0.145057 0.000000 0.000000
v -0.142488 0.094476 0.000000
v -0.132859 -0.095682 -0.053020
v -0.135091 0.000000 -0.070004
v -0.132859 0.086444 -0.053020
v -0.095633 -0.041450 -0.729012
v -0.089085 -0.000019 -0.118890
v -0.095633 0.055587 -0.729012
v -0.000034 -0.042376 -0.781824
v -0.000034 0.001721 -0.132814
v -0.000000 0.056070 -0.781829
v 0.095655 -0.041507 -0.728990
v 0.089109 0.000000 -0.118895
v 0.095655 0.055681 -0.728990
v 0.132858 -0.095682 -0.053020
v 0.135091 -0.000000 -0.070004
v 0.132858 0.086444 -0.053020
v 0.142488 -0.103489 0.000000
v 0.145057 0.000000 -0.000000
v 0.142488 0.094459 -0.000000
v 0.132859 -0.095682 0.316157
v 0.135091 0.000000 0.333140
v 0.132858 0.086444 0.316157
v -0.107633 -0.215837 0.316157
v -0.113415 -0.240126 0.000000
v -0.107633 -0.215837 -0.316157
v 0.000000 -0.240126 0.333140
v 0.000000 -0.266639 -0.000000
v -0.000000 -0.240126 -0.333140
v 0.107633 -0.215837 0.316157
v 0.113415 -0.240126 -0.000000
v 0.107633 -0.215837 -0.316157
v -0.107633 0.227196 -0.316157
v -0.113415 0.251485 -0.000000
v -0.107633 0.227196 0.316157
v -0.000000 0.226468 -0.333140
v 0.000000 0.252981 0.000000
v 0.000000 0.226468 0.333140
v 0.107633 0.227196 -0.316157
v 0.113415 0.251485 0.000000
v 0.107633 0.227196 0.316157
v -0.000017 0.054725 -0.132616
v 0.092435 0.056908 -0.113934
v 0.110383 0.073658 -0.102888
v 0.110407 -0.076721 -0.103711
v -0.000034 -0.051912 -0.133125
v 0.092581 -0.051311 -0.118773
v -0.110383 0.073600 -0.119367
v -0.092414 0.056594 -0.119945
v -0.092559 -0.051320 -0.118772
v -0.110408 -0.076747 -0.118521
v 0.059307 -0.000000 0.809346
v 0.110132 -0.054329 0.751826
v -0.110135 -0.054274 0.751857
v 0.110127 0.049155 0.751783
v -0.110124 0.049202 0.751754
v -0.054533 0.000000 0.811773
v 0.000000 -0.054301 0.809242
v 0.000000 0.049179 0.809411
v -0.054534 -0.054288 0.780828
v 0.059307 -0.054316 0.778323
v -0.054532 0.049190 0.780860
v 0.059307 0.049166 0.778377
v -0.000000 0.072704 -0.884635
v -0.098311 0.072686 -0.840003
v 0.098321 0.072722 -0.840008
v 0.098372 -0.058820 -0.820406
v -0.098351 -0.058595 -0.820717
v -0.000019 -0.058707 -0.878233
vn 0.4143 -0.4431 0.7950
vn 0.3953 0.4896 0.7772
vn -0.4105 -0.4597 0.7875
vn -0.3979 0.4789 0.7825
vn 0.9433 -0.3184 -0.0940
vn 0.9908 -0.1064 0.0842
vn 0.9909 0.1118 0.0744
vn 0.9685 0.2405 0.0652
vn 0.2090 0.9346 0.2877
vn -0.2090 0.9346 0.2877
vn -0.9685 0.2405 0.0652
vn -0.9878 0.1349 0.0779
vn -0.9895 -0.1210 0.0785
vn -0.9433 -0.3184 -0.0940
vn -0.2549 -0.9266 0.2766
vn 0.2549 -0.9266 0.2766
vn -0.9992 -0.0248 0.0310
vn -0.9991 0.0317 0.0299
vn -0.9830 -0.0244 -0.1821
vn -0.9886 0.0532 -0.1407
vn -0.9485 -0.2931 0.1198
vn -0.9982 -0.0321 0.0497
vn -0.9935 0.1106 0.0253
vn -0.9103 0.4099 0.0586
vn -0.9816 0.1876 0.0347
vn -0.9630 0.1786 -0.2020
vn -0.7453 -0.6305 -0.2168
vn -0.9607 0.2631 -0.0886
vn -0.8876 0.0056 -0.4605
vn -0.9651 0.2603 -0.0298
vn -0.9946 -0.0987 -0.0314
vn -0.9691 -0.2434 0.0390
vn 0.0178 0.9997 0.0147
vn -0.1545 0.0037 -0.9880
vn -0.0172 0.9997 0.0147
vn 0.1543 0.0036 -0.9880
vn -0.9987 -0.0189 -0.0467
vn -0.9997 0.0090 -0.0237
vn -0.0069 -0.0190 -0.9998
vn -0.9972 -0.0734 0.0127
vn -0.0778 -0.9856 -0.1500
vn 0.0785 -0.9857 -0.1494
vn 0.9987 0.0193 -0.0465
vn 0.5865 0.0363 -0.8092
vn 0.9988 0.0444 -0.0211
vn 0.9972 0.0725 -0.0190
vn 0.2666 -0.9103 -0.3165
vn -0.2667 -0.9102 -0.3169
vn 0.9830 -0.0244 -0.1821
vn 0.9886 0.0532 -0.1407
vn 0.9992 -0.0248 0.0310
vn 0.9991 0.0317 0.0299
vn 0.9651 0.2603 -0.0298
vn 0.8959 -0.0978 -0.4334
vn 0.8957 0.1079 -0.4314
vn 0.7045 -0.6726 -0.2267
vn 0.9630 0.1785 -0.2019
vn 0.9816 0.1876 0.0347
vn 0.9103 0.4099 0.0586
vn 0.9935 0.1106 0.0253
vn 0.9982 -0.0321 0.0497
vn 0.9485 -0.2931 0.1198
vn 0.9691 -0.2434 0.0390
vn 0.9946 -0.0987 -0.0314
vn -0.2310 -0.9699 0.0772
vn -0.2269 -0.9707 -0.0787
vn 0.2310 -0.9699 0.0772
vn 0.2269 -0.9707 -0.0787
vn -0.9985 -0.0400 0.0370
vn -0.9856 -0.1654 0.0350
vn -0.9828 -0.1817 -0.0319
vn -0.9841 -0.1478 -0.0985
vn -0.2520 -0.9303 -0.2664
vn 0.2520 -0.9303 -0.2664
vn 0.9841 -0.1478 -0.0985
vn 0.9828 -0.1817 -0.0319
vn 0.9856 -0.1654 0.0350
vn 0.9985 -0.0400 0.0370
vn 0.2518 -0.9304 0.2665
vn -0.2518 -0.9304 0.2665
vn -0.0058 0.9968 -0.0793
vn -0.0131 0.9970 0.0768
vn 0.0058 0.9968 -0.0793
vn 0.0131 0.9970 0.0768
vn -0.9985 0.0400 -0.0370
vn -0.9856 0.1654 -0.0350
vn -0.9828 0.1817 0.0319
vn -0.9841 0.1478 0.0985
vn -0.0361 0.9623 0.2698
vn 0.0361 0.9623 0.2698
vn 0.9841 0.1478 0.0985
vn 0.9828 0.1817 0.0319
vn 0.9856 0.1654 -0.0350
vn 0.9985 0.0400 -0.0370
vn 0.0854 0.9646 -0.2496
vn -0.0854 0.9646 -0.2496
vn 0.9963 -0.0839 -0.0210
vn 0.0232 -0.9997 0.0021
vn 0.1531 0.0080 -0.9882
vn 0.6481 0.0033 -0.7616
vn 0.0039 -1.0000 -0.0021
vn -0.6873 -0.7264 0.0048
vn -0.1546 0.0057 -0.9880
vn -0.0069 -0.0018 -1.0000
vn -0.4060 -0.4449 0.7983
vn 0.4060 -0.4449 0.7983
vn 0.4040 -0.4537 0.7943
vn -0.3955 0.4887 0.7777
vn -0.4137 0.4840 0.7711
vn 0.3979 0.4789 0.7825
vn 0.4135 0.4849 0.7706
vn 0.1021 0.9499 -0.2953
vn -0.1291 0.9501 -0.2840
vn 0.0920 0.9789 -0.1827
vn -0.0961 0.9814 -0.1663
vn 0.4196 -0.4499 0.7883
vn 0.4105 -0.4597 0.7875
vn 0.4024 0.4969 0.7689
vn -0.4198 -0.4492 0.7887
vn -0.4143 -0.4431 0.7950
vn -0.4052 0.4865 0.7741
vn 0.9459 -0.3192 0.0588
vn 0.9920 -0.1014 0.0751
vn 0.9895 -0.1210 0.0785
vn 0.9895 0.1176 0.0841
vn 0.9878 0.1349 0.0779
vn 0.9689 0.2406 -0.0569
vn 0.0715 0.9133 0.4009
vn -0.0715 0.9133 0.4009
vn -0.9689 0.2406 -0.0569
vn -0.9895 0.1176 0.0841
vn -0.9909 0.1118 0.0744
vn -0.9920 -0.1014 0.0751
vn -0.9908 -0.1064 0.0842
vn -0.9459 -0.3192 0.0588
vn -0.2187 -0.9257 0.3087
vn 0.2187 -0.9257 0.3087
vn -0.9991 -0.0286 0.0299
vn -0.9991 0.0272 0.0311
vn -0.9889 -0.0481 -0.1408
vn -0.9828 0.0267 -0.1826
vn -0.7474 -0.6617 0.0595
vn -0.9948 -0.0990 0.0253
vn -0.9981 0.0356 0.0498
vn -0.9726 0.2065 0.1073
vn -0.9826 0.1822 0.0358
vn -0.9968 0.0743 -0.0301
vn -0.9761 -0.2140 -0.0383
vn -0.8876 -0.0109 -0.4605
vn -0.9015 0.1057 -0.4196
vn -0.6649 -0.6253 -0.4086
vn -0.9351 -0.0830 -0.3445
vn -0.6843 0.7077 -0.1758
vn -0.9488 -0.2383 -0.2074
vn -0.9640 -0.2633 0.0359
vn 0.0089 0.9998 0.0161
vn -0.1363 -0.0265 -0.9903
vn -0.0090 0.9998 0.0160
vn 0.1959 0.0738 -0.9779
vn -0.9972 0.0727 -0.0190
vn -0.9970 0.0755 0.0154
vn -0.8183 0.5746 0.0134
vn -0.0404 -0.0087 -0.9991
vn -0.9976 -0.0655 -0.0220
vn -0.9987 0.0192 -0.0466
vn -0.0721 -0.9846 -0.1593
vn 0.0725 -0.9846 -0.1593
vn 0.9976 -0.0664 -0.0217
vn 0.9972 -0.0732 0.0127
vn 0.5190 0.0076 -0.8548
vn 0.8148 0.5796 0.0134
vn 0.9987 -0.0190 -0.0467
vn 0.9970 0.0753 0.0154
vn 0.2036 -0.9150 -0.3482
vn -0.2047 -0.9148 -0.3481
vn 0.9889 -0.0481 -0.1408
vn 0.9828 0.0267 -0.1825
vn 0.9991 -0.0286 0.0299
vn 0.9991 0.0272 0.0311
vn 0.6843 0.7077 -0.1758
vn 0.9135 -0.0062 -0.4069
vn 0.8015 0.0049 -0.5980
vn 0.8015 0.0019 -0.5980
vn 0.4370 0.8041 -0.4031
vn 0.9755 -0.2165 -0.0378
vn 0.9968 0.0743 -0.0301
vn 0.9826 0.1822 0.0358
vn 0.9726 0.2065 0.1073
vn 0.9981 0.0356 0.0498
vn 0.9948 -0.0990 0.0253
vn 0.7474 -0.6617 0.0595
vn 0.9640 -0.2633 0.0359
vn 0.9488 -0.2383 -0.2074
vn -0.2269 -0.9707 0.0787
vn -0.2310 -0.9699 -0.0772
vn 0.2269 -0.9707 0.0787
vn 0.2310 -0.9699 -0.0772
vn -0.9841 -0.1478 0.0985
vn -0.9828 -0.1817 0.0319
vn -0.9856 -0.1654 -0.0350
vn -0.9985 -0.0400 -0.0370
vn -0.2518 -0.9304 -0.2665
vn 0.2518 -0.9304 -0.2665
vn 0.9985 -0.0400 -0.0370
vn 0.9856 -0.1654 -0.0350
vn 0.9828 -0.1817 0.0319
vn 0.9841 -0.1478 0.0985
vn 0.2520 -0.9303 0.2664
vn -0.2520 -0.9303 0.2664
vn -0.0131 0.9970 -0.0768
vn -0.0058 0.9968 0.0793
vn 0.0131 0.9970 -0.0768
vn 0.0058 0.9968 0.0793
vn -0.9841 0.1478 -0.0985
vn -0.9828 0.1817 -0.0319
vn -0.9856 0.1654 0.0350
vn -0.9985 0.0400 0.0370
vn -0.0221 0.9611 0.2753
vn 0.0221 0.9611 0.2753
vn 0.9985 0.0400 0.0370
vn 0.9856 0.1654 0.0350
vn 0.9828 0.1817 -0.0319
vn 0.9841 0.1478 -0.0985
vn 0.0361 0.9623 -0.2698
vn -0.0361 0.9623 -0.2698
vn 0.6806 -0.7326 0.0050
vn -0.0029 -1.0000 -0.0021
vn 0.1544 0.0057 -0.9880
vn 0.5864 0.0377 -0.8091
vn -0.0200 -0.9998 0.0018
vn -0.9994 -0.0255 -0.0234
vn -0.1532 0.0081 -0.9882
vn -0.0100 -0.0029 -0.9999
vn -0.4041 -0.4530 0.7947
vn -0.4125 -0.4511 0.7914
vn 0.4123 -0.4518 0.7911
vn -0.4024 0.4969 0.7689
vn -0.4077 0.4766 0.7789
vn 0.4049 0.4873 0.7737
vn 0.4077 0.4766 0.7789
vn 0.1287 0.9501 -0.2840
vn -0.1021 0.9499 -0.2954
vn 0.0988 0.9811 -0.1662
vn -0.0902 0.9794 -0.1804
vt 0.112140 0.840410
vt 0.134958 0.818919
vt 0.148856 0.833594
vt 0.078488 0.842325
vt 0.084178 0.809982
vt 0.098325 0.823864
vt 0.155665 0.799717
vt 0.175784 0.780150
vt 0.186260 0.792141
vt 0.107905 0.789091
vt 0.140971 0.785214
vt 0.120760 0.803446
vt 0.086075 0.899131
vt 0.119825 0.907510
vt 0.097677 0.921723
vt 0.052005 0.866758
vt 0.091767 0.858980
vt 0.023895 0.834948
vt 0.053432 0.816760
vt 0.063936 0.829163
vt 0.013810 0.791786
vt 0.064702 0.738426
vt 0.095553 0.774877
vt 0.141664 0.741019
vt 0.126406 0.697868
vt 0.163040 0.718049
vt 0.151276 0.752452
vt 0.184145 0.746965
vt 0.212241 0.775302
vt 0.222560 0.806278
vt 0.234286 0.782891
vt 0.183781 0.869486
vt 0.104470 0.870599
vt 0.265720 0.743873
vt 0.303954 0.643552
vt 0.337460 0.700626
vt 0.200424 0.669478
vt 0.230932 0.705748
vt 0.353512 0.688862
vt 0.270137 0.589103
vt 0.322695 0.628272
vt 0.284881 0.764546
vt 0.151033 0.690830
vt 0.173290 0.640819
vt 0.254960 0.602735
vt 0.211370 0.576504
vt 0.240384 0.497471
vt 0.291829 0.570673
vt 0.295245 0.565869
vt 0.343546 0.611722
vt 0.380947 0.670326
vt 0.429150 0.726499
vt 0.377748 0.677004
vt 0.506001 0.713357
vt 0.350521 0.734043
vt 0.549949 0.675477
vt 0.477478 0.559859
vt 0.561892 0.663910
vt 0.361359 0.597565
vt 0.423396 0.489841
vt 0.450458 0.525061
vt 0.575587 0.654668
vt 0.541991 0.459060
vt 0.538938 0.712287
vt 0.321237 0.561901
vt 0.280884 0.389348
vt 0.322294 0.380035
vt 0.322360 0.387702
vt 0.338025 0.377905
vt 0.344246 0.363285
vt 0.351636 0.365388
vt 0.399708 0.325128
vt 0.364498 0.325237
vt 0.517522 0.409930
vt 0.560608 0.445748
vt 0.603806 0.493055
vt 0.610161 0.495275
vt 0.617890 0.621777
vt 0.586704 0.694133
vt 0.576281 0.660564
vt 0.611716 0.651473
vt 0.555684 0.677365
vt 0.630410 0.477881
vt 0.600680 0.417959
vt 0.645826 0.465841
vt 0.556459 0.375841
vt 0.582024 0.430941
vt 0.705739 0.409529
vt 0.650312 0.327606
vt 0.678835 0.365204
vt 0.644504 0.558751
vt 0.529516 0.387215
vt 0.531401 0.384681
vt 0.483022 0.317618
vt 0.560434 0.316666
vt 0.573251 0.364592
vt 0.628431 0.296071
vt 0.679336 0.283769
vt 0.706197 0.298346
vt 0.734948 0.327467
vt 0.753666 0.368761
vt 0.752302 0.392443
vt 0.719637 0.433627
vt 0.673626 0.487135
vt 0.656860 0.910580
vt 0.671349 0.792859
vt 0.728209 0.857800
vt 0.562443 0.775932
vt 0.604199 0.842728
vt 0.789481 0.794004
vt 0.669604 0.683504
vt 0.729355 0.733331
vt 0.676744 0.999906
vt 0.710083 0.988093
vt 0.558514 0.873653
vt 0.624437 0.947065
vt 0.518625 0.784785
vt 0.622427 0.736297
vt 0.683881 0.642685
vt 0.765465 0.692628
vt 0.829526 0.766600
vt 0.875241 0.824891
vt 0.859401 0.856370
vt 0.792273 0.930568
vt 0.217506 0.350598
vt 0.223194 0.228788
vt 0.276250 0.297327
vt 0.092221 0.220277
vt 0.154230 0.291711
vt 0.342857 0.253614
vt 0.247310 0.099617
vt 0.301361 0.177433
vt 0.271887 0.422511
vt 0.111146 0.334683
vt 0.199169 0.395347
vt 0.000094 0.179122
vt 0.045749 0.247423
vt 0.020407 0.145504
vt 0.161600 0.149524
vt 0.192382 0.011564
vt 0.229992 0.000094
vt 0.285089 0.061156
vt 0.353838 0.146143
vt 0.391226 0.246899
vt 0.313313 0.345524
vt 0.576200 0.494090
vt 0.386837 0.641050
vt 0.161554 0.767034
vt 0.129254 0.770278
vt 0.333257 0.371654
vt 0.566131 0.669106
vt 0.000094 0.813543
vt 0.093483 0.062016
s 0
usemtl マテリアル
f 118/1/1 115/2/1 48/3/1
f 46/4/2 120/5/2 109/6/2
f 117/7/3 111/8/3 51/9/3
f 116/10/4 114/11/4 49/12/4
f 12/13/5 11/14/5 1/15/5
f 13/16/6 46/4/6 110/17/6
f 14/18/7 47/19/7 112/20/7
f 14/18/8 15/21/8 47/19/8
f 47/19/9 16/22/9 50/23/9
f 16/22/10 53/24/10 50/23/10
f 17/25/11 18/26/11 53/24/11
f 113/27/12 18/26/12 19/28/12
f 111/8/13 19/28/13 20/29/13
f 9/30/14 20/29/14 3/31/14
f 10/32/15 51/9/15 9/30/15
f 45/33/16 10/32/16 11/14/16
f 54/34/17 58/35/17 57/36/17
f 56/37/18 58/35/18 55/38/18
f 58/35/19 60/39/19 57/36/19
f 58/35/20 62/40/20 61/41/20
f 3/31/21 54/34/21 23/42/21
f 20/29/22 55/38/22 54/34/22
f 18/26/23 55/38/23 19/28/23
f 4/43/24 56/37/24 18/26/24
f 24/44/25 59/45/25 56/37/25
f 25/46/26 62/40/26 59/45/26
f 26/47/27 27/48/27 62/40/27
f 105/49/28 61/41/28 27/48/28
f 61/41/29 28/50/29 108/51/29
f 21/52/30 29/53/30 7/54/30
f 22/55/31 60/39/31 21/52/31
f 23/42/32 57/36/32 22/55/32
f 63/56/33 103/57/33 66/58/33
f 64/59/34 99/60/34 67/61/34
f 103/57/35 69/62/35 66/58/35
f 99/60/36 70/63/36 67/61/36
f 7/54/37 63/56/37 32/64/37
f 108/51/38 63/56/38 29/53/38
f 28/50/39 106/65/39 64/59/39
f 33/66/40 122/67/40 65/68/40
f 122/67/41 68/69/41 65/68/41
f 68/69/42 123/70/42 71/71/42
f 6/72/43 71/71/43 35/73/43
f 100/74/44 37/75/44 70/63/44
f 69/62/45 102/76/45 38/77/45
f 69/62/46 38/77/46 5/78/46
f 31/79/47 124/80/47 30/81/47
f 125/82/48 31/79/48 32/64/48
f 72/83/49 76/84/49 75/85/49
f 74/86/50 76/84/50 73/87/50
f 76/84/51 78/88/51 75/85/51
f 76/84/52 80/89/52 79/90/52
f 38/77/53 41/91/53 5/78/53
f 102/76/54 73/87/54 72/83/54
f 101/92/55 74/86/55 73/87/55
f 36/93/56 42/94/56 74/86/56
f 74/86/57 43/95/57 77/96/57
f 77/96/58 44/97/58 80/89/58
f 80/89/59 2/98/59 14/99/59
f 79/90/60 14/99/60 13/100/60
f 79/90/61 12/101/61 78/88/61
f 78/88/62 1/102/62 39/103/62
f 75/85/63 39/103/63 40/104/63
f 72/83/64 40/104/64 41/91/64
f 81/105/65 85/106/65 84/107/65
f 83/108/66 85/106/66 82/109/66
f 85/106/67 87/110/67 84/107/67
f 85/106/68 89/111/68 88/112/68
f 3/113/69 81/105/69 9/114/69
f 22/115/70 81/105/70 23/116/70
f 22/115/71 83/108/71 82/109/71
f 7/54/72 83/108/72 21/117/72
f 32/64/73 86/118/73 83/108/73
f 86/118/74 30/81/74 89/111/74
f 89/111/75 5/78/75 41/119/75
f 89/111/76 40/120/76 88/112/76
f 87/110/77 40/120/77 39/121/77
f 87/110/78 1/122/78 11/123/78
f 84/107/79 11/123/79 10/124/79
f 9/114/80 84/107/80 10/124/80
f 90/125/81 94/126/81 93/127/81
f 92/128/82 94/126/82 91/129/82
f 94/126/83 96/130/83 93/127/83
f 94/126/84 98/131/84 97/132/84
f 8/133/85 90/125/85 33/66/85
f 25/134/86 90/125/86 26/135/86
f 25/134/87 92/128/87 91/129/87
f 4/136/88 92/128/88 24/137/88
f 17/138/89 95/139/89 92/128/89
f 95/139/90 15/140/90 98/131/90
f 98/131/91 2/141/91 44/142/91
f 98/131/92 43/143/92 97/132/92
f 96/130/93 43/143/93 42/144/93
f 96/130/94 6/72/94 35/73/94
f 93/127/95 35/73/95 34/145/95
f 33/66/96 93/127/96 34/145/96
f 101/92/97 71/71/97 36/93/97
f 99/60/98 71/71/98 100/74/98
f 103/57/99 70/63/99 104/146/99
f 104/146/100 37/75/100 102/76/100
f 99/60/101 65/68/101 68/69/101
f 105/49/102 65/68/102 106/65/102
f 103/57/103 64/59/103 67/61/103
f 107/147/104 28/50/104 64/59/104
f 117/7/3 52/148/3 111/8/3
f 114/11/105 115/2/105 49/12/105
f 115/2/106 109/6/106 49/12/106
f 118/1/107 46/4/107 109/6/107
f 119/149/108 52/148/108 114/11/108
f 119/149/109 50/23/109 53/24/109
f 109/6/110 116/10/110 49/12/110
f 120/5/111 47/19/111 50/23/111
f 123/70/112 34/145/112 35/73/112
f 122/67/113 34/145/113 121/150/113
f 124/80/114 66/58/114 69/62/114
f 125/82/115 66/58/115 126/151/115
f 48/3/116 45/33/116 118/1/116
f 45/33/117 110/17/117 118/1/117
f 46/4/118 112/20/118 120/5/118
f 51/9/119 48/3/119 117/7/119
f 48/3/120 115/2/120 117/7/120
f 116/10/121 119/149/121 114/11/121
f 12/13/122 45/33/122 11/14/122
f 45/33/123 12/13/123 110/17/123
f 12/13/124 13/16/124 110/17/124
f 46/4/125 13/16/125 112/20/125
f 13/16/126 14/18/126 112/20/126
f 14/18/127 2/152/127 15/21/127
f 47/19/128 15/21/128 16/22/128
f 16/22/129 17/25/129 53/24/129
f 17/25/130 4/43/130 18/26/130
f 19/28/131 52/148/131 113/27/131
f 113/27/132 53/24/132 18/26/132
f 20/29/133 51/9/133 111/8/133
f 111/8/134 52/148/134 19/28/134
f 9/30/135 51/9/135 20/29/135
f 10/32/136 48/3/136 51/9/136
f 45/33/137 48/3/137 10/32/137
f 54/34/138 55/38/138 58/35/138
f 56/37/139 59/45/139 58/35/139
f 58/35/140 61/41/140 60/39/140
f 58/35/141 59/45/141 62/40/141
f 3/31/142 20/29/142 54/34/142
f 20/29/143 19/28/143 55/38/143
f 18/26/144 56/37/144 55/38/144
f 4/43/145 24/44/145 56/37/145
f 24/44/146 25/46/146 59/45/146
f 25/46/147 26/47/147 62/40/147
f 26/47/148 8/133/148 27/48/148
f 28/50/149 61/41/149 105/49/149
f 61/41/150 62/40/150 27/48/150
f 29/53/151 60/39/151 108/51/151
f 60/39/152 61/41/152 108/51/152
f 21/52/153 60/39/153 29/53/153
f 22/55/154 57/36/154 60/39/154
f 23/42/155 54/34/155 57/36/155
f 63/56/156 107/147/156 103/57/156
f 64/59/157 106/65/157 99/60/157
f 103/57/158 104/146/158 69/62/158
f 99/60/159 100/74/159 70/63/159
f 7/54/160 29/53/160 63/56/160
f 63/56/161 125/82/161 32/64/161
f 108/51/162 107/147/162 63/56/162
f 28/50/163 105/49/163 106/65/163
f 65/68/164 27/48/164 8/133/164
f 8/133/165 33/66/165 65/68/165
f 122/67/166 121/150/166 68/69/166
f 68/69/167 121/150/167 123/70/167
f 36/93/168 71/71/168 6/72/168
f 71/71/169 123/70/169 35/73/169
f 100/74/170 101/92/170 37/75/170
f 69/62/171 104/146/171 102/76/171
f 5/78/172 30/81/172 69/62/172
f 30/81/173 124/80/173 69/62/173
f 31/79/174 126/151/174 124/80/174
f 125/82/175 126/151/175 31/79/175
f 72/83/176 73/87/176 76/84/176
f 74/86/177 77/96/177 76/84/177
f 76/84/178 79/90/178 78/88/178
f 76/84/179 77/96/179 80/89/179
f 38/77/180 72/83/180 41/91/180
f 72/83/181 38/77/181 102/76/181
f 102/76/182 37/75/182 73/87/182
f 73/87/183 37/75/183 101/92/183
f 101/92/184 36/93/184 74/86/184
f 36/93/185 6/72/185 42/94/185
f 74/86/186 42/94/186 43/95/186
f 77/96/187 43/95/187 44/97/187
f 80/89/188 44/97/188 2/98/188
f 79/90/189 80/89/189 14/99/189
f 79/90/190 13/100/190 12/101/190
f 78/88/191 12/101/191 1/102/191
f 75/85/192 78/88/192 39/103/192
f 72/83/193 75/85/193 40/104/193
f 81/105/194 82/109/194 85/106/194
f 83/108/195 86/118/195 85/106/195
f 85/106/196 88/112/196 87/110/196
f 85/106/197 86/118/197 89/111/197
f 3/113/198 23/116/198 81/105/198
f 22/115/199 82/109/199 81/105/199
f 22/115/200 21/117/200 83/108/200
f 7/54/201 32/64/201 83/108/201
f 32/64/202 31/79/202 86/118/202
f 86/118/203 31/79/203 30/81/203
f 89/111/204 30/81/204 5/78/204
f 89/111/205 41/119/205 40/120/205
f 87/110/206 88/112/206 40/120/206
f 87/110/207 39/121/207 1/122/207
f 84/107/208 87/110/208 11/123/208
f 9/114/209 81/105/209 84/107/209
f 90/125/210 91/129/210 94/126/210
f 92/128/211 95/139/211 94/126/211
f 94/126/212 97/132/212 96/130/212
f 94/126/213 95/139/213 98/131/213
f 8/133/214 26/135/214 90/125/214
f 25/134/215 91/129/215 90/125/215
f 25/134/216 24/137/216 92/128/216
f 4/136/217 17/138/217 92/128/217
f 17/138/218 16/153/218 95/139/218
f 95/139/219 16/153/219 15/140/219
f 98/131/220 15/140/220 2/141/220
f 98/131/221 44/142/221 43/143/221
f 96/130/222 97/132/222 43/143/222
f 96/130/223 42/144/223 6/72/223
f 93/127/224 96/130/224 35/73/224
f 33/66/225 90/125/225 93/127/225
f 101/92/226 100/74/226 71/71/226
f 99/60/227 68/69/227 71/71/227
f 103/57/228 67/61/228 70/63/228
f 104/146/229 70/63/229 37/75/229
f 99/60/230 106/65/230 65/68/230
f 105/49/231 27/48/231 65/68/231
f 103/57/232 107/147/232 64/59/232
f 107/147/233 108/51/233 28/50/233
f 117/7/234 114/11/234 52/148/234
f 114/11/235 117/7/235 115/2/235
f 115/2/236 118/1/236 109/6/236
f 118/1/117 110/17/117 46/4/117
f 119/149/237 113/27/237 52/148/237
f 53/24/237 113/27/237 119/149/237
f 119/149/238 116/10/238 50/23/238
f 109/6/239 120/5/239 116/10/239
f 50/23/240 116/10/240 120/5/240
f 120/5/118 112/20/118 47/19/118
f 123/70/241 121/150/241 34/145/241
f 122/67/242 33/66/242 34/145/242
f 124/80/243 126/151/243 66/58/243
f 125/82/244 63/56/244 66/58/244
