# Blender 4.4.1
# www.blender.org
mtllib enemy_shooter.mtl
o 立方体
v 0.143899 -1.000000 0.143899
v 1.000000 -0.143899 0.143899
v 0.143899 -0.143899 1.000000
v 0.471515 -0.934833 0.143899
v 0.749254 -0.749254 0.143899
v 0.143899 -0.934833 0.471515
v 0.479725 -0.856185 0.479725
v 0.705719 -0.705719 0.462686
v 0.638169 -0.638169 0.638169
v 0.934833 -0.143899 0.471514
v 0.749254 -0.143899 0.749254
v 0.934833 -0.471515 0.143899
v 0.856185 -0.479725 0.479725
v 0.705719 -0.462686 0.705719
v 0.143899 -0.471515 0.934833
v 0.143899 -0.749254 0.749254
v 0.471515 -0.143899 0.934833
v 0.479725 -0.479725 0.856184
v 0.462686 -0.705719 0.705719
v 1.000000 0.143899 0.143899
v 0.143899 1.000000 0.143899
v 0.143899 0.143899 1.000000
v 0.934833 0.471515 0.143899
v 0.749254 0.749254 0.143899
v 0.934833 0.143899 0.471514
v 0.856185 0.479725 0.479725
v 0.705719 0.705719 0.462686
v 0.638169 0.638169 0.638169
v 0.143899 0.934833 0.471515
v 0.143899 0.749254 0.749254
v 0.471515 0.934833 0.143899
v 0.479725 0.856185 0.479725
v 0.462686 0.705719 0.705719
v 0.471515 0.143899 0.934833
v 0.749254 0.143899 0.749254
v 0.143899 0.471515 0.934833
v 0.479725 0.479725 0.856184
v 0.705719 0.462686 0.705719
v -0.143899 -1.000000 0.143899
v -0.143899 -0.143899 1.000000
v -1.000000 -0.143899 0.143899
v -0.143899 -0.934833 0.471515
v -0.143899 -0.749254 0.749254
v -0.471515 -0.934833 0.143899
v -0.479725 -0.856185 0.479725
v -0.462686 -0.705719 0.705719
v -0.638169 -0.638169 0.638169
v -0.471514 -0.143899 0.934833
v -0.749254 -0.143899 0.749254
v -0.143899 -0.471515 0.934833
v -0.479725 -0.479725 0.856185
v -0.705719 -0.462686 0.705719
v -0.934833 -0.471515 0.143899
v -0.749254 -0.749254 0.143899
v -0.934833 -0.143899 0.471515
v -0.856184 -0.479725 0.479725
v -0.705719 -0.705719 0.462686
v -0.143899 1.000000 0.143899
v -1.000000 0.143899 0.143899
v -0.143899 0.143899 1.000000
v -0.471515 0.934833 0.143899
v -0.749254 0.749254 0.143899
v -0.143899 0.934833 0.471515
v -0.479725 0.856185 0.479725
v -0.705719 0.705719 0.462686
v -0.638169 0.638169 0.638169
v -0.934833 0.143899 0.471515
v -0.749254 0.143899 0.749254
v -0.934833 0.471515 0.143899
v -0.856185 0.479725 0.479725
v -0.705719 0.462686 0.705719
v -0.143899 0.471515 0.934833
v -0.143899 0.749254 0.749254
v -0.471515 0.143899 0.934833
v -0.479725 0.479725 0.856184
v -0.462686 0.705719 0.705719
v 0.143899 -1.000000 -0.143899
v 0.143899 -0.143899 -1.000000
v 1.000000 -0.143899 -0.143899
v 0.143899 -0.934833 -0.471515
v 0.143899 -0.749254 -0.749254
v 0.471515 -0.934833 -0.143899
v 0.479725 -0.856185 -0.479725
v 0.462686 -0.705719 -0.705719
v 0.638169 -0.638169 -0.638169
v 0.471514 -0.143899 -0.934833
v 0.749254 -0.143899 -0.749254
v 0.143899 -0.471515 -0.934833
v 0.479725 -0.479725 -0.856185
v 0.705719 -0.462686 -0.705719
v 0.934833 -0.471515 -0.143899
v 0.749254 -0.749254 -0.143899
v 0.934833 -0.143899 -0.471515
v 0.856184 -0.479725 -0.479725
v 0.705719 -0.705719 -0.462686
v 0.143899 1.000000 -0.143899
v 1.000000 0.143899 -0.143899
v 0.143899 0.143899 -1.000000
v 0.471515 0.934833 -0.143899
v 0.749254 0.749254 -0.143899
v 0.143899 0.934833 -0.471515
v 0.479725 0.856185 -0.479725
v 0.705719 0.705719 -0.462686
v 0.638169 0.638169 -0.638169
v 0.934833 0.143899 -0.471515
v 0.749254 0.143899 -0.749254
v 0.934833 0.471515 -0.143899
v 0.856185 0.479725 -0.479725
v 0.705719 0.462686 -0.705719
v 0.143899 0.471515 -0.934833
v 0.143899 0.749254 -0.749254
v 0.471515 0.143899 -0.934833
v 0.479725 0.479725 -0.856184
v 0.462686 0.705719 -0.705719
v -0.143899 -1.000000 -0.143899
v -1.000000 -0.143899 -0.143899
v -0.143899 -0.143899 -1.000000
v -0.471515 -0.934833 -0.143899
v -0.749254 -0.749254 -0.143899
v -0.143899 -0.934833 -0.471515
v -0.479725 -0.856185 -0.479725
v -0.705719 -0.705719 -0.462686
v -0.638169 -0.638169 -0.638169
v -0.934833 -0.143899 -0.471514
v -0.749254 -0.143899 -0.749254
v -0.934833 -0.471515 -0.143899
v -0.856185 -0.479725 -0.479725
v -0.705719 -0.462686 -0.705719
v -0.143899 -0.471515 -0.934833
v -0.143899 -0.749254 -0.749254
v -0.471515 -0.143899 -0.934833
v -0.479725 -0.479725 -0.856184
v -0.462686 -0.705719 -0.705719
v -0.143899 1.000000 -0.143899
v -0.143899 0.143899 -1.000000
v -1.000000 0.143899 -0.143899
v -0.143899 0.934833 -0.471515
v -0.143899 0.749254 -0.749254
v -0.471515 0.934833 -0.143899
v -0.479725 0.856185 -0.479725
v -0.462686 0.705719 -0.705719
v -0.638169 0.638169 -0.638169
v -0.471515 0.143899 -0.934833
v -0.749254 0.143899 -0.749254
v -0.143899 0.471515 -0.934833
v -0.479725 0.479725 -0.856185
v -0.705719 0.462686 -0.705719
v -0.934833 0.471515 -0.143899
v -0.749254 0.749254 -0.143899
v -0.934833 0.143899 -0.471515
v -0.856184 0.479725 -0.479725
v -0.705719 0.705719 -0.462686
v -0.296438 1.664797 0.471515
v -0.296438 1.729964 0.143899
v -0.624054 1.664797 0.143899
v -0.632265 1.586149 0.479725
v -0.624054 1.664797 -0.143899
v -0.296438 1.729964 -0.143899
v -0.296438 1.664797 -0.471515
v -0.632265 1.586149 -0.479725
v 0.623266 1.661022 0.143899
v 0.295650 1.726189 0.143899
v 0.295650 1.661022 0.471515
v 0.631476 1.582374 0.479725
v 0.295650 1.661022 -0.471515
v 0.295650 1.726189 -0.143899
v 0.623266 1.661022 -0.143899
v 0.631476 1.582374 -0.479725
v 0.442347 0.114732 -0.798616
v 0.114732 0.114732 -0.863783
v 0.114732 0.442347 -0.798616
v 0.450558 0.450558 -0.719967
v -0.125229 0.452845 -0.847643
v -0.125229 0.125229 -0.912810
v -0.452845 0.125229 -0.847643
v -0.461056 0.461056 -0.768995
v 0.143899 -0.452374 -0.838607
v 0.143899 -0.124758 -0.903774
v -0.143899 -0.124758 -0.903774
v -0.143899 -0.452374 -0.838607
vn 1.0000 -0.0000 -0.0000
vn -0.0000 -0.0000 -1.0000
vn -0.0000 1.0000 -0.0000
vn -0.0000 -0.0000 1.0000
vn -1.0000 -0.0000 -0.0000
vn 0.1915 -0.9626 0.1915
vn 0.5467 -0.8182 0.1782
vn 0.1782 -0.8182 0.5467
vn 0.4731 -0.7164 0.5127
vn 0.9626 -0.1915 0.1915
vn 0.8182 -0.1782 0.5467
vn 0.8182 -0.5467 0.1782
vn 0.7164 -0.5127 0.4731
vn 0.1915 -0.1915 0.9626
vn 0.1782 -0.5467 0.8182
vn 0.5467 -0.1782 0.8182
vn 0.5127 -0.4731 0.7164
vn 0.9626 0.1915 0.1915
vn 0.8182 0.5467 0.1782
vn 0.8182 0.1782 0.5467
vn 0.7164 0.4731 0.5127
vn 0.9763 -0.2040 0.0717
vn 0.1782 0.8182 0.5467
vn 0.5467 0.8182 0.1782
vn 0.5127 0.7164 0.4731
vn 0.1915 0.1915 0.9626
vn 0.5467 0.1782 0.8182
vn 0.1782 0.5467 0.8182
vn 0.4731 0.5127 0.7164
vn -0.1915 -0.9626 0.1915
vn -0.1782 -0.8182 0.5467
vn -0.5467 -0.8182 0.1782
vn -0.5127 -0.7164 0.4731
vn -0.1915 -0.1915 0.9626
vn -0.5467 -0.1782 0.8182
vn -0.1782 -0.5467 0.8182
vn -0.4731 -0.5127 0.7164
vn -0.9626 -0.1915 0.1915
vn -0.8182 -0.5467 0.1782
vn -0.8182 -0.1782 0.5467
vn -0.7164 -0.4731 0.5127
vn 0.9789 0.2046 -0.0000
vn -0.5467 0.8182 0.1782
vn -0.1782 0.8182 0.5467
vn -0.4731 0.7164 0.5127
vn -0.9626 0.1915 0.1915
vn -0.8182 0.1782 0.5467
vn -0.8182 0.5467 0.1782
vn -0.7164 0.5127 0.4731
vn -0.1915 0.1915 0.9626
vn -0.1782 0.5467 0.8182
vn -0.5467 0.1782 0.8182
vn -0.5127 0.4731 0.7164
vn 0.1915 -0.9626 -0.1915
vn 0.1782 -0.8182 -0.5467
vn 0.5467 -0.8182 -0.1782
vn 0.5127 -0.7164 -0.4731
vn 0.1915 -0.1915 -0.9626
vn 0.5467 -0.1782 -0.8182
vn 0.1782 -0.5467 -0.8182
vn 0.4731 -0.5127 -0.7164
vn 0.9626 -0.1915 -0.1915
vn 0.8182 -0.5467 -0.1782
vn 0.8182 -0.1782 -0.5467
vn 0.7164 -0.4731 -0.5127
vn -0.9789 0.2046 -0.0000
vn 0.5467 0.8182 -0.1782
vn 0.1782 0.8182 -0.5467
vn 0.4731 0.7164 -0.5127
vn 0.9626 0.1915 -0.1915
vn 0.8182 0.1782 -0.5467
vn 0.8182 0.5467 -0.1782
vn 0.7164 0.5127 -0.4731
vn 0.0695 -0.9784 -0.1946
vn 0.1782 0.5467 -0.8182
vn 0.5467 0.1782 -0.8182
vn 0.5127 0.4731 -0.7164
vn -0.1915 -0.9626 -0.1915
vn -0.5467 -0.8182 -0.1782
vn -0.1782 -0.8182 -0.5467
vn -0.4731 -0.7164 -0.5127
vn -0.9626 -0.1915 -0.1915
vn -0.8182 -0.1782 -0.5467
vn -0.8182 -0.5467 -0.1782
vn -0.7164 -0.5127 -0.4731
vn -0.1915 -0.1915 -0.9626
vn -0.1782 -0.5467 -0.8182
vn -0.5467 -0.1782 -0.8182
vn -0.5127 -0.4731 -0.7164
vn 0.0233 0.0049 -0.9997
vn -0.1782 0.8182 -0.5467
vn -0.5467 0.8182 -0.1782
vn -0.5127 0.7164 -0.4731
vn -0.0695 -0.9784 -0.1946
vn -0.5467 0.1782 -0.8182
vn -0.1782 0.5467 -0.8182
vn -0.4731 0.5127 -0.7164
vn -0.9626 0.1915 -0.1915
vn -0.8182 0.5467 -0.1782
vn -0.8182 0.1782 -0.5467
vn -0.7164 0.4731 -0.5127
vn -0.0000 -0.9808 0.1951
vn -0.0000 -0.8315 0.5556
vn -0.0000 -0.5556 0.8315
vn -0.0000 -0.1951 0.9808
vn 0.9808 -0.0000 0.1951
vn 0.8315 -0.0000 0.5556
vn 0.5556 -0.0000 0.8315
vn 0.1951 -0.0000 0.9808
vn -0.0000 0.9808 0.1951
vn -0.0000 0.8315 0.5556
vn -0.0000 0.5556 0.8315
vn -0.0000 0.1951 0.9808
vn -0.9808 -0.0000 0.1951
vn -0.8315 -0.0000 0.5556
vn -0.5556 -0.0000 0.8315
vn -0.1951 -0.0000 0.9808
vn -0.1951 -0.9808 -0.0000
vn -0.5556 -0.8315 -0.0000
vn -0.8315 -0.5556 -0.0000
vn -0.9808 -0.1951 -0.0000
vn 0.0233 0.0049 0.9997
vn -0.5556 0.8315 -0.0000
vn -0.8315 0.5556 -0.0000
vn -0.9808 0.1951 -0.0000
vn -0.1951 -0.0000 -0.9808
vn -0.5556 -0.0000 -0.8315
vn -0.8315 -0.0000 -0.5556
vn -0.9808 -0.0000 -0.1951
vn -0.0000 -0.9808 -0.1951
vn -0.0000 -0.8315 -0.5556
vn -0.0000 -0.5556 -0.8315
vn -0.0000 0.9808 -0.1951
vn -0.0000 0.8315 -0.5556
vn -0.0000 0.5556 -0.8315
vn -0.0000 0.1951 -0.9808
vn 0.9808 -0.0000 -0.1951
vn 0.8315 -0.0000 -0.5556
vn 0.5556 -0.0000 -0.8315
vn 0.1951 -0.0000 -0.9808
vn 0.1951 -0.9808 -0.0000
vn 0.5556 -0.8315 -0.0000
vn 0.8315 -0.5556 -0.0000
vn 0.9808 -0.1951 -0.0000
vn -0.0233 0.0049 0.9997
vn 0.5556 0.8315 -0.0000
vn 0.8315 0.5556 -0.0000
vn 0.9808 0.1951 -0.0000
vn -0.0000 -1.0000 -0.0000
vn -0.1915 0.9626 0.1915
vn -0.1915 0.9626 -0.1915
vn -0.1951 0.9808 -0.0000
vn -0.9763 -0.2040 0.0717
vn -0.9763 -0.2040 -0.0717
vn -0.9789 -0.2046 -0.0000
vn 0.9780 0.2044 0.0407
vn 0.9780 0.2044 -0.0407
vn 0.1915 0.9626 0.1915
vn 0.1915 0.9626 -0.1915
vn 0.1951 0.9808 -0.0000
vn -0.9780 0.2044 -0.0407
vn 0.9763 -0.2040 -0.0717
vn 0.9789 -0.2046 -0.0000
vn -0.0233 0.0049 -0.9997
vn -0.9780 0.2044 0.0407
vn 0.1915 0.1915 -0.9626
vn -0.0400 0.9788 0.2010
vn -0.9784 0.0695 -0.1946
vn 0.9788 -0.0400 0.2010
vn -0.1915 0.1915 -0.9626
vn 0.0400 0.9788 0.2010
vn 0.9784 0.0695 -0.1946
vn -0.9788 -0.0400 0.2010
vn -0.0000 -0.1951 -0.9808
vn 0.2175 -0.9515 0.2175
vn 0.5542 -0.8112 0.1865
vn 0.1865 -0.8112 0.5542
vn 0.5127 -0.7164 0.4731
vn 0.9515 -0.2175 0.2175
vn 0.8112 -0.1865 0.5542
vn 0.8112 -0.5542 0.1865
vn 0.7164 -0.4731 0.5127
vn 0.2175 -0.2175 0.9515
vn 0.1865 -0.5542 0.8112
vn 0.5542 -0.1865 0.8112
vn 0.4731 -0.5127 0.7164
vn 0.9515 0.2175 0.2175
vn 0.8112 0.5542 0.1865
vn 0.8112 0.1865 0.5542
vn 0.7164 0.5127 0.4731
vn 0.1865 0.8112 0.5542
vn 0.5542 0.8112 0.1865
vn 0.4731 0.7164 0.5127
vn 0.2175 0.2175 0.9515
vn 0.5542 0.1865 0.8112
vn 0.1865 0.5542 0.8112
vn 0.5127 0.4731 0.7164
vn -0.2175 -0.9515 0.2175
vn -0.1865 -0.8112 0.5542
vn -0.5542 -0.8112 0.1865
vn -0.4731 -0.7164 0.5127
vn -0.2175 -0.2175 0.9515
vn -0.5542 -0.1865 0.8112
vn -0.1865 -0.5542 0.8112
vn -0.5127 -0.4731 0.7164
vn -0.9515 -0.2175 0.2175
vn -0.8112 -0.5542 0.1865
vn -0.8112 -0.1865 0.5542
vn -0.7164 -0.5127 0.4731
vn -0.5542 0.8112 0.1865
vn -0.1865 0.8112 0.5542
vn -0.5127 0.7164 0.4731
vn -0.9515 0.2175 0.2175
vn -0.8112 0.1865 0.5542
vn -0.8112 0.5542 0.1865
vn -0.7164 0.4731 0.5127
vn -0.2175 0.2175 0.9515
vn -0.1865 0.5542 0.8112
vn -0.5542 0.1865 0.8112
vn -0.4731 0.5127 0.7164
vn 0.2175 -0.9515 -0.2175
vn 0.1865 -0.8112 -0.5542
vn 0.5542 -0.8112 -0.1865
vn 0.4731 -0.7164 -0.5127
vn 0.2175 -0.2175 -0.9515
vn 0.5542 -0.1865 -0.8112
vn 0.1865 -0.5542 -0.8112
vn 0.5127 -0.4731 -0.7164
vn 0.9515 -0.2175 -0.2175
vn 0.8112 -0.5542 -0.1865
vn 0.8112 -0.1865 -0.5542
vn 0.7164 -0.5127 -0.4731
vn 0.5542 0.8112 -0.1865
vn 0.1865 0.8112 -0.5542
vn 0.5127 0.7164 -0.4731
vn 0.9515 0.2175 -0.2175
vn 0.8112 0.1865 -0.5542
vn 0.8112 0.5542 -0.1865
vn 0.7164 0.4731 -0.5127
vn 0.1865 0.5542 -0.8112
vn 0.5542 0.1865 -0.8112
vn 0.4731 0.5127 -0.7165
vn -0.2175 -0.9515 -0.2175
vn -0.5542 -0.8112 -0.1865
vn -0.1865 -0.8112 -0.5542
vn -0.5127 -0.7164 -0.4731
vn -0.9515 -0.2175 -0.2175
vn -0.8112 -0.1865 -0.5542
vn -0.8112 -0.5542 -0.1865
vn -0.7164 -0.4731 -0.5127
vn -0.2175 -0.2175 -0.9515
vn -0.1865 -0.5542 -0.8112
vn -0.5542 -0.1865 -0.8112
vn -0.4731 -0.5127 -0.7164
vn -0.1865 0.8112 -0.5542
vn -0.5542 0.8112 -0.1865
vn -0.4731 0.7164 -0.5127
vn -0.5542 0.1865 -0.8112
vn -0.1865 0.5542 -0.8112
vn -0.5127 0.4731 -0.7164
vn -0.9515 0.2175 -0.2175
vn -0.8112 0.5542 -0.1865
vn -0.8112 0.1865 -0.5542
vn -0.7164 0.5127 -0.4731
vn -0.2175 0.9515 0.2175
vn -0.2175 0.9515 -0.2175
vn 0.2175 0.9515 0.2175
vn 0.2175 0.9515 -0.2175
vn 0.2175 0.2175 -0.9515
vn -0.2175 0.2175 -0.9515
vt 0.823339 0.792320
vt 0.823339 0.854357
vt 0.792320 0.823339
vt 0.607780 0.576761
vt 0.607780 0.638798
vt 0.576761 0.607780
vt 0.823339 0.361202
vt 0.823339 0.423239
vt 0.792320 0.392220
vt 0.176661 0.145643
vt 0.176661 0.207680
vt 0.145643 0.176661
vt 0.392220 0.361202
vt 0.392220 0.423239
vt 0.361202 0.392220
vt 0.427531 0.889668
vt 0.356910 0.889668
vt 0.392220 0.854357
vt 0.484491 0.946628
vt 0.392220 0.926748
vt 0.299950 0.946628
vt 0.431218 0.999900
vt 0.334309 0.980986
vt 0.858649 0.889668
vt 0.788028 0.889668
vt 0.915609 0.946628
vt 0.823339 0.926748
vt 0.731068 0.946628
vt 0.862337 0.999900
vt 0.765427 0.980986
vt 0.110332 0.211971
vt 0.110332 0.141351
vt 0.053372 0.268931
vt 0.073252 0.176661
vt 0.053372 0.084391
vt 0.000100 0.215659
vt 0.019014 0.118750
vt 0.889668 0.788028
vt 0.889668 0.858649
vt 0.854357 0.823339
vt 0.946628 0.731069
vt 0.926748 0.823339
vt 0.946628 0.915609
vt 0.999900 0.784341
vt 0.980986 0.881250
vt 0.858649 0.458549
vt 0.823339 0.495630
vt 0.946628 0.299950
vt 0.926748 0.392220
vt 0.889668 0.356910
vt 0.946628 0.484491
vt 0.889668 0.427531
vt 0.999900 0.353222
vt 0.980986 0.450132
vt 0.141351 0.110332
vt 0.211971 0.110332
vt 0.084391 0.053372
vt 0.176661 0.073252
vt 0.268931 0.053372
vt 0.137663 0.000100
vt 0.234573 0.019014
vt 0.325891 0.858649
vt 0.325891 0.788028
vt 0.361202 0.823339
vt 0.268931 0.915609
vt 0.288811 0.823339
vt 0.268931 0.731068
vt 0.215659 0.862337
vt 0.234573 0.765427
vt 0.211972 0.242990
vt 0.141351 0.242990
vt 0.268931 0.299950
vt 0.176661 0.280070
vt 0.084391 0.299950
vt 0.215659 0.353222
vt 0.118750 0.334309
vt 0.325891 0.427531
vt 0.325891 0.356910
vt 0.268931 0.484491
vt 0.288811 0.392220
vt 0.215659 0.431218
vt 0.234573 0.334309
vt 0.731068 0.268932
vt 0.823339 0.288811
vt 0.788028 0.325891
vt 0.915609 0.268932
vt 0.858649 0.325891
vt 0.784341 0.215659
vt 0.881250 0.234573
vt 0.356910 0.325891
vt 0.427531 0.325891
vt 0.299950 0.268931
vt 0.392220 0.288811
vt 0.484491 0.268932
vt 0.353222 0.215659
vt 0.450132 0.234573
vt 0.242990 0.141351
vt 0.242990 0.211972
vt 0.207680 0.176661
vt 0.299950 0.084391
vt 0.280070 0.176661
vt 0.353222 0.137663
vt 0.334309 0.234573
vt 0.458549 0.788028
vt 0.458549 0.858649
vt 0.423239 0.823339
vt 0.515509 0.731069
vt 0.495629 0.823339
vt 0.515509 0.915609
vt 0.620779 0.810339
vt 0.549868 0.881250
vt 0.643090 0.674109
vt 0.572469 0.674109
vt 0.700050 0.731069
vt 0.607780 0.711189
vt 0.549868 0.765427
vt 0.757010 0.858649
vt 0.757010 0.788029
vt 0.700050 0.915609
vt 0.719930 0.823339
vt 0.665691 0.765427
vt 0.854357 0.392220
vt 0.823339 0.423239
vt 0.915609 0.515509
vt 0.823339 0.495630
vt 0.731068 0.515509
vt 0.788028 0.458549
vt 0.810339 0.594780
vt 0.765427 0.549868
vt 0.788028 0.757010
vt 0.858649 0.757010
vt 0.731068 0.700050
vt 0.823339 0.719930
vt 0.915609 0.700050
vt 0.881250 0.665691
vt 0.711189 0.607780
vt 0.674109 0.572469
vt 0.674109 0.643090
vt 0.765427 0.665691
vt 0.356910 0.757010
vt 0.427531 0.757010
vt 0.392220 0.792320
vt 0.299950 0.700050
vt 0.392220 0.719930
vt 0.484490 0.700050
vt 0.405220 0.620779
vt 0.450132 0.665691
vt 0.427531 0.458549
vt 0.356910 0.458549
vt 0.484490 0.515509
vt 0.392220 0.495630
vt 0.299950 0.515509
vt 0.334309 0.549868
vt 0.541451 0.643090
vt 0.541451 0.572469
vt 0.504370 0.607780
vt 0.450132 0.549868
vt 0.757010 0.427531
vt 0.719930 0.392220
vt 0.757010 0.427531
vt 0.700050 0.484491
vt 0.719930 0.392220
vt 0.700050 0.299950
vt 0.757010 0.356910
vt 0.594780 0.405220
vt 0.665691 0.334309
vt 0.607780 0.504371
vt 0.643090 0.541451
vt 0.607780 0.504371
vt 0.515509 0.484491
vt 0.572469 0.541451
vt 0.665691 0.450132
vt 0.458549 0.356910
vt 0.458549 0.427531
vt 0.423239 0.392220
vt 0.515509 0.299950
vt 0.495629 0.392220
vt 0.549868 0.450132
vt 0.823339 0.288811
vt 0.541451 0.643090
vt 0.638798 0.607780
vt 0.889668 0.356910
vt 0.858649 0.325891
vt 0.757010 0.356910
vt 0.854357 0.392220
vt 0.788028 0.458549
vt 0.711189 0.607780
vt 0.607779 0.576761
vt 0.607779 0.638798
vt 0.450132 0.980986
vt 0.881250 0.980986
vt 0.019014 0.234573
vt 0.980986 0.765427
vt 0.980986 0.334309
vt 0.118750 0.019014
vt 0.234573 0.881250
vt 0.234573 0.450132
vt 0.765427 0.234573
vt 0.334309 0.118750
vt 0.665691 0.881250
vt 0.881250 0.549868
vt 0.334309 0.665691
vt 0.549868 0.334309
s 0
usemtl マテリアル.002
f 97/1/1 2/2/1 79/3/1
f 135/4/2 78/5/2 117/6/2
f 58/7/3 96/8/3 134/9/3
f 22/10/4 40/11/4 3/12/4
f 59/13/5 116/14/5 41/15/5
f 4/16/6 6/17/6 1/18/6
f 5/19/7 7/20/7 4/16/7
f 7/20/8 16/21/8 6/17/8
f 7/20/9 9/22/9 19/23/9
f 10/24/10 12/25/10 2/2/10
f 11/26/11 13/27/11 10/24/11
f 13/27/12 5/28/12 12/25/12
f 13/27/13 9/29/13 8/30/13
f 15/31/14 17/32/14 3/12/14
f 16/33/15 18/34/15 15/31/15
f 18/34/16 11/35/16 17/32/16
f 18/34/17 9/36/17 14/37/17
f 23/38/18 25/39/18 20/40/18
f 24/41/19 26/42/19 23/38/19
f 26/42/20 35/43/20 25/39/20
f 26/42/21 28/44/21 38/45/21
f 99/46/22 168/47/22 167/46/22
f 30/48/23 32/49/23 29/50/23
f 32/49/24 24/51/24 31/52/24
f 32/49/25 28/53/25 27/54/25
f 34/55/26 36/56/26 22/10/26
f 35/57/27 37/58/27 34/55/27
f 37/58/28 30/59/28 36/56/28
f 37/58/29 28/60/29 33/61/29
f 42/62/30 44/63/30 39/64/30
f 43/65/31 45/66/31 42/62/31
f 45/66/32 54/67/32 44/63/32
f 45/66/33 47/68/33 57/69/33
f 48/70/34 50/71/34 40/11/34
f 49/72/35 51/73/35 48/70/35
f 51/73/36 43/74/36 50/71/36
f 51/73/37 47/75/37 46/76/37
f 53/77/38 55/78/38 41/15/38
f 54/79/39 56/80/39 53/77/39
f 56/80/40 49/72/40 55/78/40
f 56/80/41 47/81/41 52/82/41
f 134/9/42 154/7/42 58/7/42
f 62/83/43 64/84/43 61/85/43
f 64/84/44 73/86/44 63/87/44
f 64/84/45 66/88/45 76/89/45
f 67/90/46 69/91/46 59/13/46
f 68/92/47 70/93/47 67/90/47
f 70/93/48 62/94/48 69/91/48
f 70/93/49 66/95/49 65/96/49
f 72/97/50 74/98/50 60/99/50
f 73/100/51 75/101/51 72/97/51
f 75/101/52 68/92/52 74/98/52
f 75/101/53 66/102/53 71/103/53
f 80/104/54 82/105/54 77/106/54
f 81/107/55 83/108/55 80/104/55
f 83/108/56 92/109/56 82/105/56
f 83/108/57 85/110/57 95/111/57
f 86/112/58 88/113/58 78/5/58
f 87/114/59 89/115/59 86/112/59
f 89/115/60 81/107/60 88/113/60
f 89/115/61 85/110/61 84/116/61
f 91/117/62 93/118/62 79/3/62
f 92/119/63 94/120/63 91/117/63
f 94/120/64 87/114/64 93/118/64
f 94/120/65 85/110/65 90/121/65
f 21/122/66 166/123/66 96/8/66
f 100/124/67 102/125/67 99/46/67
f 102/125/68 111/126/68 101/127/68
f 102/125/69 104/128/69 114/129/69
f 105/130/70 107/131/70 97/1/70
f 106/132/71 108/133/71 105/130/71
f 108/133/72 100/134/72 107/131/72
f 108/133/73 104/128/73 103/135/73
f 113/136/74 171/137/74 110/137/74
f 111/126/75 113/136/75 110/137/75
f 113/136/76 106/132/76 112/138/76
f 113/136/77 104/128/77 109/139/77
f 118/140/78 120/141/78 115/142/78
f 119/143/79 121/144/79 118/140/79
f 121/144/80 130/145/80 120/141/80
f 121/144/81 123/146/81 133/147/81
f 124/148/82 126/149/82 116/14/82
f 125/150/83 127/151/83 124/148/83
f 127/151/84 119/152/84 126/149/84
f 127/151/85 123/146/85 122/153/85
f 129/154/86 131/155/86 117/6/86
f 130/145/87 132/156/87 129/154/87
f 132/156/88 125/150/88 131/155/88
f 132/156/89 123/146/89 128/157/89
f 137/158/90 160/159/90 159/160/90
f 138/161/91 140/162/91 137/158/91
f 140/162/92 149/163/92 139/164/92
f 140/162/93 142/165/93 152/166/93
f 146/167/94 173/168/94 176/169/94
f 144/170/95 146/167/95 143/171/95
f 146/167/96 138/161/96 145/168/96
f 146/167/97 142/165/97 141/172/97
f 148/173/98 150/174/98 136/175/98
f 149/176/99 151/177/99 148/173/99
f 151/177/100 144/170/100 150/174/100
f 151/177/101 142/165/101 147/178/101
f 1/18/102 42/62/102 39/64/102
f 42/62/103 16/21/103 43/65/103
f 43/74/104 15/31/104 50/71/104
f 15/31/105 40/11/105 50/71/105
f 20/40/106 10/24/106 2/2/106
f 25/39/107 11/26/107 10/24/107
f 35/57/108 17/32/108 11/35/108
f 34/55/109 3/12/109 17/32/109
f 58/7/110 29/50/110 21/122/110
f 63/87/111 30/48/111 29/50/111
f 73/100/112 36/56/112 30/59/112
f 72/97/113 22/10/113 36/56/113
f 41/15/114 67/90/114 59/13/114
f 55/78/115 68/92/115 67/90/115
f 49/72/116 74/98/116 68/92/116
f 48/70/117 60/99/117 74/98/117
f 39/64/118 118/140/118 115/142/118
f 118/140/119 54/67/119 119/143/119
f 119/152/120 53/77/120 126/149/120
f 53/77/121 116/14/121 126/149/121
f 63/87/122 156/179/122 64/84/122
f 61/85/123 149/163/123 62/83/123
f 62/94/124 148/173/124 69/91/124
f 148/173/125 59/13/125 69/91/125
f 117/6/126 143/171/126 135/4/126
f 131/155/127 144/170/127 143/171/127
f 125/150/128 150/174/128 144/170/128
f 124/148/129 136/175/129 150/174/129
f 115/142/130 80/104/130 77/106/130
f 80/104/131 130/145/131 81/107/131
f 81/107/132 129/154/132 88/113/132
f 117/6/1 180/180/1 129/154/1
f 96/8/133 137/158/133 134/9/133
f 137/158/134 111/126/134 138/161/134
f 138/161/135 110/137/135 145/168/135
f 110/137/136 135/4/136 145/168/136
f 79/3/137 105/130/137 97/1/137
f 93/118/138 106/132/138 105/130/138
f 87/114/139 112/138/139 106/132/139
f 86/112/140 98/181/140 112/138/140
f 77/106/141 4/16/141 1/18/141
f 4/16/142 92/109/142 5/19/142
f 5/28/143 91/117/143 12/25/143
f 91/117/144 2/2/144 12/25/144
f 29/50/145 164/49/145 163/182/145
f 31/52/146 100/124/146 99/46/146
f 24/41/147 107/131/147 100/134/147
f 23/38/148 97/1/148 107/131/148
f 115/142/149 1/18/149 39/64/149
f 155/85/150 153/183/150 154/7/150
f 159/160/151 157/184/151 158/9/151
f 158/9/152 155/85/152 154/7/152
f 139/164/153 160/159/153 140/162/153
f 61/85/154 156/179/154 155/85/154
f 139/164/155 155/85/155 157/184/155
f 58/7/156 153/183/156 63/87/156
f 134/9/157 159/160/157 158/9/157
f 163/182/158 161/52/158 162/185/158
f 167/46/159 165/186/159 166/123/159
f 162/185/160 167/46/160 166/123/160
f 96/8/161 165/186/161 101/127/161
f 31/52/162 164/49/162 32/49/162
f 99/46/163 161/52/163 31/52/163
f 101/127/164 168/47/164 102/125/164
f 21/122/165 163/182/165 162/185/165
f 171/137/166 169/138/166 170/181/166
f 98/181/167 169/138/167 112/138/167
f 113/136/168 169/138/168 172/187/168
f 98/181/169 171/137/169 170/181/169
f 175/171/170 173/168/170 174/188/170
f 135/4/171 175/171/171 174/188/171
f 146/167/172 175/171/172 143/171/172
f 135/4/173 173/168/173 145/168/173
f 177/113/174 179/6/174 178/189/174
f 129/154/133 177/113/133 88/113/133
f 78/5/102 179/6/102 117/6/102
f 78/5/5 177/113/5 178/189/5
f 97/1/1 20/40/1 2/2/1
f 135/4/2 98/181/2 78/5/2
f 58/7/3 21/122/3 96/8/3
f 22/10/4 60/99/4 40/11/4
f 59/13/5 136/175/5 116/14/5
f 4/16/175 7/20/175 6/17/175
f 5/19/176 8/190/176 7/20/176
f 7/20/177 19/23/177 16/21/177
f 7/20/178 8/190/178 9/22/178
f 10/24/179 13/27/179 12/25/179
f 11/26/180 14/191/180 13/27/180
f 13/27/181 8/30/181 5/28/181
f 13/27/182 14/191/182 9/29/182
f 15/31/183 18/34/183 17/32/183
f 16/33/184 19/192/184 18/34/184
f 18/34/185 14/37/185 11/35/185
f 18/34/186 19/192/186 9/36/186
f 23/38/187 26/42/187 25/39/187
f 24/41/188 27/193/188 26/42/188
f 26/42/189 38/45/189 35/43/189
f 26/42/190 27/193/190 28/44/190
f 99/46/22 102/125/22 168/47/22
f 30/48/191 33/194/191 32/49/191
f 32/49/192 27/54/192 24/51/192
f 32/49/193 33/194/193 28/53/193
f 34/55/194 37/58/194 36/56/194
f 35/57/195 38/195/195 37/58/195
f 37/58/196 33/61/196 30/59/196
f 37/58/197 38/195/197 28/60/197
f 42/62/198 45/66/198 44/63/198
f 43/65/199 46/196/199 45/66/199
f 45/66/200 57/69/200 54/67/200
f 45/66/201 46/196/201 47/68/201
f 48/70/202 51/73/202 50/71/202
f 49/72/203 52/82/203 51/73/203
f 51/73/204 46/76/204 43/74/204
f 51/73/205 52/82/205 47/75/205
f 53/77/206 56/80/206 55/78/206
f 54/79/207 57/197/207 56/80/207
f 56/80/208 52/82/208 49/72/208
f 56/80/209 57/197/209 47/81/209
f 134/9/42 158/9/42 154/7/42
f 62/83/210 65/198/210 64/84/210
f 64/84/211 76/89/211 73/86/211
f 64/84/212 65/198/212 66/88/212
f 67/90/213 70/93/213 69/91/213
f 68/92/214 71/103/214 70/93/214
f 70/93/215 65/96/215 62/94/215
f 70/93/216 71/103/216 66/95/216
f 72/97/217 75/101/217 74/98/217
f 73/100/218 76/199/218 75/101/218
f 75/101/219 71/103/219 68/92/219
f 75/101/220 76/199/220 66/102/220
f 80/104/221 83/108/221 82/105/221
f 81/107/222 84/116/222 83/108/222
f 83/108/223 95/111/223 92/109/223
f 83/108/224 84/116/224 85/110/224
f 86/112/225 89/115/225 88/113/225
f 87/114/226 90/121/226 89/115/226
f 89/115/227 84/116/227 81/107/227
f 89/115/228 90/121/228 85/110/228
f 91/117/229 94/120/229 93/118/229
f 92/119/230 95/200/230 94/120/230
f 94/120/231 90/121/231 87/114/231
f 94/120/232 95/200/232 85/110/232
f 21/122/66 162/185/66 166/123/66
f 100/124/233 103/201/233 102/125/233
f 102/125/234 114/129/234 111/126/234
f 102/125/235 103/201/235 104/128/235
f 105/130/236 108/133/236 107/131/236
f 106/132/237 109/139/237 108/133/237
f 108/133/238 103/135/238 100/134/238
f 108/133/239 109/139/239 104/128/239
f 113/136/74 172/187/74 171/137/74
f 111/126/240 114/129/240 113/136/240
f 113/136/241 109/139/241 106/132/241
f 113/136/242 114/129/242 104/128/242
f 118/140/243 121/144/243 120/141/243
f 119/143/244 122/202/244 121/144/244
f 121/144/245 133/147/245 130/145/245
f 121/144/246 122/202/246 123/146/246
f 124/148/247 127/151/247 126/149/247
f 125/150/248 128/157/248 127/151/248
f 127/151/249 122/153/249 119/152/249
f 127/151/250 128/157/250 123/146/250
f 129/154/251 132/156/251 131/155/251
f 130/145/252 133/147/252 132/156/252
f 132/156/253 128/157/253 125/150/253
f 132/156/254 133/147/254 123/146/254
f 137/158/90 140/162/90 160/159/90
f 138/161/255 141/172/255 140/162/255
f 140/162/256 152/166/256 149/163/256
f 140/162/257 141/172/257 142/165/257
f 146/167/94 145/168/94 173/168/94
f 144/170/258 147/178/258 146/167/258
f 146/167/259 141/172/259 138/161/259
f 146/167/260 147/178/260 142/165/260
f 148/173/261 151/177/261 150/174/261
f 149/176/262 152/203/262 151/177/262
f 151/177/263 147/178/263 144/170/263
f 151/177/264 152/203/264 142/165/264
f 1/18/102 6/17/102 42/62/102
f 42/62/103 6/17/103 16/21/103
f 43/74/104 16/33/104 15/31/104
f 15/31/105 3/12/105 40/11/105
f 20/40/106 25/39/106 10/24/106
f 25/39/107 35/43/107 11/26/107
f 35/57/108 34/55/108 17/32/108
f 34/55/109 22/10/109 3/12/109
f 58/7/110 63/87/110 29/50/110
f 63/87/111 73/86/111 30/48/111
f 73/100/112 72/97/112 36/56/112
f 72/97/113 60/99/113 22/10/113
f 41/15/114 55/78/114 67/90/114
f 55/78/115 49/72/115 68/92/115
f 49/72/116 48/70/116 74/98/116
f 48/70/117 40/11/117 60/99/117
f 39/64/118 44/63/118 118/140/118
f 118/140/119 44/63/119 54/67/119
f 119/152/120 54/79/120 53/77/120
f 53/77/121 41/15/121 116/14/121
f 63/87/122 153/183/122 156/179/122
f 61/85/123 139/164/123 149/163/123
f 62/94/124 149/176/124 148/173/124
f 148/173/125 136/175/125 59/13/125
f 117/6/126 131/155/126 143/171/126
f 131/155/127 125/150/127 144/170/127
f 125/150/128 124/148/128 150/174/128
f 124/148/129 116/14/129 136/175/129
f 115/142/130 120/141/130 80/104/130
f 80/104/131 120/141/131 130/145/131
f 81/107/132 130/145/132 129/154/132
f 117/6/1 179/6/1 180/180/1
f 96/8/133 101/127/133 137/158/133
f 137/158/134 101/127/134 111/126/134
f 138/161/135 111/126/135 110/137/135
f 110/137/136 98/181/136 135/4/136
f 79/3/137 93/118/137 105/130/137
f 93/118/138 87/114/138 106/132/138
f 87/114/139 86/112/139 112/138/139
f 86/112/140 78/5/140 98/181/140
f 77/106/141 82/105/141 4/16/141
f 4/16/142 82/105/142 92/109/142
f 5/28/143 92/119/143 91/117/143
f 91/117/144 79/3/144 2/2/144
f 29/50/145 32/49/145 164/49/145
f 31/52/146 24/51/146 100/124/146
f 24/41/147 23/38/147 107/131/147
f 23/38/148 20/40/148 97/1/148
f 115/142/149 77/106/149 1/18/149
f 155/85/265 156/179/265 153/183/265
f 159/160/266 160/159/266 157/184/266
f 158/9/152 157/184/152 155/85/152
f 139/164/153 157/184/153 160/159/153
f 61/85/154 64/84/154 156/179/154
f 139/164/155 61/85/155 155/85/155
f 58/7/156 154/7/156 153/183/156
f 134/9/157 137/158/157 159/160/157
f 163/182/267 164/49/267 161/52/267
f 167/46/268 168/47/268 165/186/268
f 162/185/160 161/52/160 167/46/160
f 96/8/161 166/123/161 165/186/161
f 31/52/162 161/52/162 164/49/162
f 99/46/163 167/46/163 161/52/163
f 101/127/164 165/186/164 168/47/164
f 21/122/165 29/50/165 163/182/165
f 171/137/269 172/187/269 169/138/269
f 98/181/167 170/181/167 169/138/167
f 113/136/168 112/138/168 169/138/168
f 98/181/169 110/137/169 171/137/169
f 175/171/270 176/169/270 173/168/270
f 135/4/171 143/171/171 175/171/171
f 146/167/172 176/169/172 175/171/172
f 135/4/173 174/188/173 173/168/173
f 177/113/174 180/180/174 179/6/174
f 129/154/133 180/180/133 177/113/133
f 78/5/102 178/189/102 179/6/102
f 78/5/5 88/113/5 177/113/5
