# Blender 4.4.1
# www.blender.org
mtllib enemy_turret.mtl
o 立方体
v -0.143975 -1.000000 0.143975
v -0.143975 -0.143975 1.000000
v -1.000000 -0.143975 0.143975
v -0.143975 -0.934839 0.471562
v -0.143975 -0.749276 0.749276
v -0.471562 -0.934839 0.143975
v -0.479771 -0.856197 0.479771
v -0.462734 -0.705745 0.705745
v -0.638201 -0.638201 0.638201
v -0.471562 -0.143975 0.934839
v -0.749276 -0.143975 0.749276
v -0.143975 -0.471562 0.934839
v -0.479771 -0.479771 0.856197
v -0.705745 -0.462734 0.705745
v -0.934839 -0.471562 0.143975
v -0.749276 -0.749276 0.143975
v -0.934839 -0.143975 0.471562
v -0.856197 -0.479771 0.479771
v -0.705745 -0.705745 0.462734
v -0.143975 0.143975 1.000000
v -0.143975 1.000000 0.143975
v -1.000000 0.143975 0.143975
v -0.143975 0.471562 0.934839
v -0.143975 0.749276 0.749276
v -0.471562 0.143975 0.934839
v -0.479771 0.479771 0.856197
v -0.462734 0.705745 0.705745
v -0.638201 0.638201 0.638201
v -0.471562 0.934839 0.143975
v -0.749276 0.749276 0.143975
v -0.143975 0.934839 0.471562
v -0.479771 0.856197 0.479771
v -0.705745 0.705745 0.462734
v -0.934839 0.143975 0.471562
v -0.749276 0.143975 0.749276
v -0.934839 0.471562 0.143975
v -0.856197 0.479771 0.479771
v -0.705745 0.462734 0.705745
v -0.143975 -1.000000 -0.143975
v -1.000000 -0.143975 -0.143975
v -0.143975 -0.143975 -1.000000
v -0.471562 -0.934839 -0.143975
v -0.749276 -0.749276 -0.143975
v -0.143975 -0.934839 -0.471562
v -0.479771 -0.856197 -0.479771
v -0.705745 -0.705745 -0.462734
v -0.638201 -0.638201 -0.638201
v -0.934839 -0.143975 -0.471562
v -0.749276 -0.143975 -0.749276
v -0.934839 -0.471562 -0.143975
v -0.856197 -0.479771 -0.479771
v -0.705745 -0.462734 -0.705745
v -0.143975 -0.471562 -0.934839
v -0.143975 -0.749276 -0.749276
v -0.471562 -0.143975 -0.934839
v -0.479771 -0.479771 -0.856197
v -0.462734 -0.705745 -0.705745
v -0.143975 1.000000 -0.143975
v -0.143975 0.143975 -1.000000
v -1.000000 0.143975 -0.143975
v -0.143975 0.934839 -0.471562
v -0.143975 0.749276 -0.749276
v -0.471562 0.934839 -0.143975
v -0.479771 0.856197 -0.479771
v -0.462734 0.705745 -0.705745
v -0.638201 0.638201 -0.638201
v -0.471562 0.143975 -0.934839
v -0.749276 0.143975 -0.749276
v -0.143975 0.471562 -0.934839
v -0.479771 0.479771 -0.856197
v -0.705745 0.462734 -0.705745
v -0.934839 0.471562 -0.143975
v -0.749276 0.749276 -0.143975
v -0.934839 0.143975 -0.471562
v -0.856197 0.479771 -0.479771
v -0.705745 0.705745 -0.462734
v 0.143975 -1.000000 0.143975
v 1.000000 -0.143975 0.143975
v 0.143975 -0.143975 1.000000
v 0.471562 -0.934839 0.143975
v 0.749276 -0.749276 0.143975
v 0.143975 -0.934839 0.471562
v 0.479771 -0.856197 0.479771
v 0.705745 -0.705745 0.462734
v 0.638201 -0.638201 0.638201
v 0.934839 -0.143975 0.471562
v 0.749276 -0.143975 0.749276
v 0.934839 -0.471562 0.143975
v 0.856197 -0.479771 0.479771
v 0.705745 -0.462734 0.705745
v 0.143975 -0.471562 0.934839
v 0.143975 -0.749276 0.749276
v 0.471562 -0.143975 0.934839
v 0.479771 -0.479771 0.856197
v 0.462734 -0.705745 0.705745
v 0.143975 1.000000 0.143975
v 0.143975 0.143975 1.000000
v 1.000000 0.143975 0.143975
v 0.143975 0.934839 0.471562
v 0.143975 0.749276 0.749276
v 0.471562 0.934839 0.143975
v 0.479771 0.856197 0.479771
v 0.462734 0.705745 0.705745
v 0.638201 0.638201 0.638201
v 0.471562 0.143975 0.934839
v 0.749276 0.143975 0.749276
v 0.143975 0.471562 0.934839
v 0.479771 0.479771 0.856197
v 0.705745 0.462734 0.705745
v 0.934839 0.471562 0.143975
v 0.749276 0.749276 0.143975
v 0.934839 0.143975 0.471562
v 0.856197 0.479771 0.479771
v 0.705745 0.705745 0.462734
v 0.143975 -1.000000 -0.143975
v 0.143975 -0.143975 -1.000000
v 1.000000 -0.143975 -0.143975
v 0.143975 -0.934839 -0.471562
v 0.143975 -0.749276 -0.749276
v 0.471562 -0.934839 -0.143975
v 0.479771 -0.856197 -0.479771
v 0.462734 -0.705745 -0.705745
v 0.638201 -0.638201 -0.638201
v 0.471562 -0.143975 -0.934839
v 0.749276 -0.143975 -0.749276
v 0.143975 -0.471562 -0.934839
v 0.479771 -0.479771 -0.856197
v 0.705745 -0.462734 -0.705745
v 0.934839 -0.471562 -0.143975
v 0.749276 -0.749276 -0.143975
v 0.934839 -0.143975 -0.471562
v 0.856197 -0.479771 -0.479771
v 0.705745 -0.705745 -0.462734
v 0.143975 1.000000 -0.143975
v 1.000000 0.143975 -0.143975
v 0.143975 0.143975 -1.000000
v 0.471562 0.934839 -0.143975
v 0.749276 0.749276 -0.143975
v 0.143975 0.934839 -0.471562
v 0.479771 0.856197 -0.479771
v 0.705745 0.705745 -0.462734
v 0.638201 0.638201 -0.638201
v 0.934839 0.143975 -0.471562
v 0.749276 0.143975 -0.749276
v 0.934839 0.471562 -0.143975
v 0.856197 0.479771 -0.479771
v 0.705745 0.462734 -0.705745
v 0.143975 0.471562 -0.934839
v 0.143975 0.749276 -0.749276
v 0.471562 0.143975 -0.934839
v 0.479771 0.479771 -0.856197
v 0.462734 0.705745 -0.705745
v -0.145874 0.936738 0.471562
v -0.145874 1.001899 0.143975
v -0.473461 0.936738 0.143975
v -0.481670 0.858096 0.479771
v -0.751175 0.751175 0.143975
v -0.707644 0.707644 0.462734
v -0.145874 1.001899 -0.143975
v -0.145874 0.936738 -0.471562
v -0.481670 0.858096 -0.479771
v -0.473461 0.936738 -0.143975
v -0.751175 0.751175 -0.143975
v -0.707644 0.707644 -0.462734
v 0.142076 1.001899 0.143975
v 0.142076 0.936738 0.471562
v 0.477872 0.858096 0.479771
v 0.469663 0.936738 0.143975
v 0.747377 0.751175 0.143975
v 0.703846 0.707644 0.462734
v 0.142076 0.936738 -0.471562
v 0.142076 1.001899 -0.143975
v 0.469663 0.936738 -0.143975
v 0.477872 0.858096 -0.479771
v 0.747377 0.751175 -0.143975
v 0.703846 0.707644 -0.462734
v -0.145874 1.686072 0.471562
v -0.145874 1.751233 0.143975
v -0.145874 1.751233 -0.143975
v -0.145874 1.686072 -0.471562
v 0.142076 1.751233 0.143975
v 0.142076 1.686072 0.471562
v 0.142076 1.686072 -0.471562
v 0.142076 1.751233 -0.143975
v 0.896977 1.481332 0.479771
v 0.888768 1.559973 0.143975
v 1.166482 1.374410 0.143975
v 1.122952 1.330880 0.462734
v 0.888768 1.559973 -0.143975
v 0.896977 1.481332 -0.479771
v 1.166482 1.374410 -0.143975
v 1.122952 1.330880 -0.462734
v -0.902382 1.574571 0.143975
v -0.910591 1.495929 0.479771
v -1.180096 1.389008 0.143975
v -1.136566 1.345477 0.462734
v -0.910591 1.495929 -0.479771
v -0.902382 1.574571 -0.143975
v -1.180096 1.389008 -0.143975
v -1.136566 1.345477 -0.462734
v -0.143975 -0.149995 -0.918860
v -0.143975 -0.477581 -0.853699
v -0.143975 0.465542 -0.853699
v -0.143975 0.137955 -0.918860
v -0.471562 0.137955 -0.853699
v -0.479771 0.473752 -0.775057
v 0.143975 -0.477581 -0.853699
v 0.143975 -0.149995 -0.918860
v 0.471562 0.137955 -0.853699
v 0.143975 0.137955 -0.918860
v 0.143975 0.465542 -0.853699
v 0.479771 0.473752 -0.775057
vn -0.0000 -0.0000 1.0000
vn 1.0000 -0.0000 -0.0000
vn 0.7002 0.7002 0.1393
vn -1.0000 -0.0000 -0.0000
vn -0.0000 -0.0000 -1.0000
vn -0.2049 -0.9571 0.2049
vn -0.1818 -0.8152 0.5500
vn -0.5500 -0.8152 0.1818
vn -0.4931 -0.7167 0.4931
vn -0.2049 -0.2049 0.9571
vn -0.5500 -0.1818 0.8152
vn -0.1818 -0.5500 0.8152
vn -0.4931 -0.4931 0.7167
vn -0.9571 -0.2049 0.2049
vn -0.8152 -0.5500 0.1818
vn -0.8152 -0.1818 0.5500
vn -0.7167 -0.4931 0.4931
vn -0.2049 0.2049 0.9571
vn -0.1818 0.5500 0.8152
vn -0.5500 0.1818 0.8152
vn -0.4931 0.4931 0.7167
vn -0.2049 0.9571 0.2049
vn 0.7002 0.7002 -0.1393
vn -0.1818 0.8152 0.5500
vn -0.4931 0.7167 0.4931
vn -0.9571 0.2049 0.2049
vn -0.8152 0.1818 0.5500
vn -0.8152 0.5500 0.1818
vn -0.7167 0.4931 0.4931
vn -0.2049 -0.9571 -0.2049
vn -0.5500 -0.8152 -0.1818
vn -0.1818 -0.8152 -0.5500
vn -0.4931 -0.7167 -0.4931
vn -0.9571 -0.2049 -0.2049
vn -0.8152 -0.1818 -0.5500
vn -0.8152 -0.5500 -0.1818
vn -0.7167 -0.4931 -0.4931
vn -0.2049 -0.2049 -0.9571
vn -0.1818 -0.5500 -0.8152
vn -0.5500 -0.1818 -0.8152
vn -0.4931 -0.4931 -0.7167
vn -0.2049 0.9571 -0.2049
vn -0.1818 0.8152 -0.5500
vn -0.7071 -0.7071 -0.0000
vn -0.4931 0.7167 -0.4931
vn -0.5500 0.1818 -0.8152
vn -0.1818 0.5500 -0.8152
vn -0.4931 0.4931 -0.7167
vn -0.9571 0.2049 -0.2049
vn -0.8152 0.5500 -0.1818
vn -0.8152 0.1818 -0.5500
vn -0.7167 0.4931 -0.4931
vn 0.2049 -0.9571 0.2049
vn 0.5500 -0.8152 0.1818
vn 0.1818 -0.8152 0.5500
vn 0.4931 -0.7167 0.4931
vn 0.9571 -0.2049 0.2049
vn 0.8152 -0.1818 0.5500
vn 0.8152 -0.5500 0.1818
vn 0.7167 -0.4931 0.4931
vn 0.2049 -0.2049 0.9571
vn 0.1818 -0.5500 0.8152
vn 0.5500 -0.1818 0.8152
vn 0.4931 -0.4931 0.7167
vn 0.2049 0.9571 0.2049
vn 0.1818 0.8152 0.5500
vn 0.2149 0.2149 0.9527
vn 0.4931 0.7167 0.4931
vn 0.2049 0.2049 0.9571
vn 0.5500 0.1818 0.8152
vn 0.1818 0.5500 0.8152
vn 0.4931 0.4931 0.7167
vn 0.9571 0.2049 0.2049
vn 0.8152 0.5500 0.1818
vn 0.8152 0.1818 0.5500
vn 0.7167 0.4931 0.4931
vn 0.2049 -0.9571 -0.2049
vn 0.1818 -0.8152 -0.5500
vn 0.5500 -0.8152 -0.1818
vn 0.4931 -0.7167 -0.4931
vn 0.2049 -0.2049 -0.9571
vn 0.5500 -0.1818 -0.8152
vn 0.1818 -0.5500 -0.8152
vn 0.4931 -0.4931 -0.7167
vn 0.9571 -0.2049 -0.2049
vn 0.8152 -0.5500 -0.1818
vn 0.8152 -0.1818 -0.5500
vn 0.7167 -0.4931 -0.4931
vn 0.2049 0.9571 -0.2049
vn 0.1818 0.8152 -0.5500
vn 0.4931 0.7167 -0.4931
vn 0.9571 0.2049 -0.2049
vn 0.8152 0.1818 -0.5500
vn 0.8152 0.5500 -0.1818
vn 0.7167 0.4931 -0.4931
vn -0.0417 -0.9964 -0.0739
vn 0.1818 0.5500 -0.8152
vn 0.5500 0.1818 -0.8152
vn 0.4931 0.4931 -0.7167
vn -0.1951 -0.9808 -0.0000
vn -0.5556 -0.8315 -0.0000
vn -0.8315 -0.5556 -0.0000
vn -0.9808 -0.1951 -0.0000
vn -0.1951 -0.0000 0.9808
vn -0.5556 -0.0000 0.8315
vn -0.8315 -0.0000 0.5556
vn -0.9808 -0.0000 0.1951
vn -0.1951 0.9808 -0.0000
vn -0.7002 -0.7002 0.1393
vn -0.8315 0.5556 -0.0000
vn -0.9808 0.1951 -0.0000
vn -0.1951 -0.0000 -0.9808
vn -0.5556 -0.0000 -0.8315
vn -0.8315 -0.0000 -0.5556
vn -0.9808 -0.0000 -0.1951
vn -0.0000 -0.9808 -0.1951
vn -0.0000 -0.8315 -0.5556
vn -0.0000 -0.5556 -0.8315
vn 0.0417 -0.9964 -0.0739
vn -0.0452 -0.0452 -0.9980
vn -0.0000 0.8315 -0.5556
vn -0.0000 0.5556 -0.8315
vn -0.0000 0.1951 -0.9808
vn 0.9808 -0.0000 -0.1951
vn 0.8315 -0.0000 -0.5556
vn 0.5556 -0.0000 -0.8315
vn 0.1951 -0.0000 -0.9808
vn 0.1951 -0.9808 -0.0000
vn 0.5556 -0.8315 -0.0000
vn 0.8315 -0.5556 -0.0000
vn 0.9808 -0.1951 -0.0000
vn 0.1951 0.9808 -0.0000
vn 0.2149 0.2149 -0.9527
vn 0.8315 0.5556 -0.0000
vn 0.9808 0.1951 -0.0000
vn 0.1951 -0.0000 0.9808
vn 0.5556 -0.0000 0.8315
vn 0.8315 -0.0000 0.5556
vn 0.9808 -0.0000 0.1951
vn -0.0000 -0.9808 0.1951
vn -0.0000 -0.8315 0.5556
vn -0.0000 -0.5556 0.8315
vn -0.0000 -0.1951 0.9808
vn 0.7071 0.7071 -0.0000
vn -0.0000 0.8315 0.5556
vn -0.0000 0.5556 0.8315
vn -0.0000 0.1951 0.9808
vn -0.0000 -1.0000 -0.0000
vn 0.8298 0.5580 -0.0000
vn 0.8205 0.5518 0.1493
vn -0.8298 0.5580 -0.0000
vn 0.0520 -0.0350 -0.9980
vn -0.8293 -0.5576 0.0371
vn 0.8293 -0.5576 0.0371
vn -0.0452 -0.0452 0.9980
vn 0.6943 0.6943 0.1896
vn 0.6956 0.6956 -0.1799
vn -0.6995 -0.6994 0.1467
vn -0.6995 -0.6994 -0.1467
vn -0.7002 -0.7002 -0.1393
vn 0.6956 0.6956 0.1799
vn 0.6943 0.6943 -0.1896
vn -0.0000 1.0000 -0.0000
vn -0.0000 0.9808 -0.1951
vn -0.0000 0.9808 0.1951
vn 0.5500 0.8152 0.1818
vn 0.5500 0.8152 -0.1818
vn 0.5556 0.8315 -0.0000
vn 0.0520 -0.0350 0.9980
vn -0.8205 0.5518 0.1493
vn 0.8293 -0.5576 -0.0371
vn 0.8298 -0.5580 -0.0000
vn -0.8205 0.5518 -0.1493
vn -0.5500 0.8152 0.1818
vn -0.5500 0.8152 -0.1818
vn -0.5556 0.8315 -0.0000
vn -0.0520 -0.0350 -0.9980
vn 0.8205 0.5518 -0.1493
vn -0.0520 -0.0350 0.9980
vn -0.8298 -0.5580 -0.0000
vn -0.8293 -0.5576 -0.0371
vn -0.2049 0.2049 -0.9571
vn 0.2049 0.2049 -0.9571
vn -0.0000 -0.1951 -0.9808
vn -0.9997 0.0240 0.0018
vn -0.0147 0.9972 0.0740
vn 0.0147 0.9972 0.0740
vn -0.0000 0.9973 0.0740
vn 0.9997 0.0240 0.0018
vn -0.0000 -0.9973 -0.0740
vt 0.176663 0.792302
vt 0.207698 0.823337
vt 0.176663 0.854372
vt 0.145628 0.823337
vt 0.392221 0.576744
vt 0.423256 0.607779
vt 0.392221 0.638814
vt 0.361186 0.607779
vt 0.541437 0.858643
vt 0.576744 0.823336
vt 0.823336 0.145628
vt 0.854371 0.176663
vt 0.823336 0.207698
vt 0.792302 0.176663
vt 0.607779 0.361186
vt 0.638814 0.392221
vt 0.607779 0.423256
vt 0.576744 0.392221
vt 0.145628 0.392221
vt 0.110322 0.427528
vt 0.073245 0.392221
vt 0.110322 0.356914
vt 0.053367 0.484483
vt 0.019012 0.450127
vt 0.019012 0.334315
vt 0.053367 0.299960
vt 0.000100 0.431215
vt 0.110322 0.858643
vt 0.073245 0.823336
vt 0.110322 0.788030
vt 0.053367 0.915598
vt 0.019012 0.881243
vt 0.019012 0.765431
vt 0.053367 0.731075
vt 0.000100 0.862331
vt 0.788030 0.110322
vt 0.823336 0.073245
vt 0.858643 0.110322
vt 0.731075 0.053367
vt 0.765431 0.019012
vt 0.881242 0.019012
vt 0.915598 0.053367
vt 0.784342 0.000100
vt 0.211970 0.889678
vt 0.176663 0.926755
vt 0.141356 0.889678
vt 0.268925 0.946633
vt 0.234569 0.980988
vt 0.118757 0.980988
vt 0.084402 0.946633
vt 0.215658 0.999900
vt 0.607779 0.854371
vt 0.643086 0.889678
vt 0.607779 0.926755
vt 0.572472 0.889678
vt 0.607779 0.792302
vt 0.643086 0.756995
vt 0.643086 0.756995
vt 0.549873 0.980988
vt 0.515517 0.946633
vt 0.665685 0.980988
vt 0.646773 0.999900
vt 0.889678 0.141357
vt 0.926755 0.176663
vt 0.889678 0.211970
vt 0.946633 0.084402
vt 0.980988 0.118757
vt 0.980988 0.234569
vt 0.946633 0.268925
vt 0.999900 0.137669
vt 0.176663 0.361186
vt 0.141356 0.325879
vt 0.176663 0.288803
vt 0.211970 0.325879
vt 0.084402 0.268925
vt 0.118757 0.234569
vt 0.234569 0.234569
vt 0.268925 0.268925
vt 0.137669 0.215658
vt 0.756995 0.211970
vt 0.719918 0.176663
vt 0.756995 0.141357
vt 0.700040 0.268925
vt 0.665685 0.234569
vt 0.665685 0.118757
vt 0.700040 0.084402
vt 0.646773 0.215658
vt 0.572472 0.325879
vt 0.607779 0.288803
vt 0.643086 0.325879
vt 0.515517 0.268925
vt 0.549873 0.234569
vt 0.568785 0.215658
vt 0.638814 0.823336
vt 0.674121 0.788030
vt 0.711197 0.823336
vt 0.674121 0.858643
vt 0.731075 0.731075
vt 0.765431 0.765431
vt 0.881242 0.334315
vt 0.915598 0.299960
vt 0.915598 0.299960
vt 0.784342 0.784342
vt 0.765431 0.881242
vt 0.674121 0.427528
vt 0.674121 0.427528
vt 0.674121 0.356914
vt 0.731075 0.299960
vt 0.765431 0.334315
vt 0.711197 0.392221
vt 0.765431 0.450127
vt 0.731075 0.484482
vt 0.784342 0.353227
vt 0.858643 0.243005
vt 0.823336 0.280082
vt 0.788030 0.243005
vt 0.862331 0.353227
vt 0.176663 0.423256
vt 0.211970 0.458563
vt 0.176663 0.495640
vt 0.141356 0.458563
vt 0.268925 0.515518
vt 0.234569 0.549873
vt 0.118758 0.549873
vt 0.084402 0.515517
vt 0.189662 0.620777
vt 0.325879 0.643086
vt 0.288803 0.607779
vt 0.325879 0.572472
vt 0.268925 0.700040
vt 0.234569 0.665685
vt 0.141356 0.756995
vt 0.176663 0.719918
vt 0.211970 0.756995
vt 0.084402 0.700040
vt 0.118757 0.665685
vt 0.504360 0.823336
vt 0.541437 0.788030
vt 0.484482 0.915598
vt 0.450127 0.881242
vt 0.450127 0.765431
vt 0.504360 0.823336
vt 0.405219 0.810338
vt 0.243005 0.788030
vt 0.280082 0.823336
vt 0.243005 0.858643
vt 0.299960 0.731075
vt 0.334315 0.765431
vt 0.334315 0.881243
vt 0.299960 0.915598
vt 0.427528 0.674121
vt 0.392221 0.711197
vt 0.356914 0.674121
vt 0.484482 0.731075
vt 0.207698 0.392221
vt 0.243005 0.356914
vt 0.280082 0.392221
vt 0.243005 0.427528
vt 0.299960 0.299960
vt 0.334315 0.334315
vt 0.334315 0.450127
vt 0.299960 0.484482
vt 0.379223 0.405219
vt 0.541437 0.427528
vt 0.504360 0.392221
vt 0.541437 0.356914
vt 0.484482 0.484482
vt 0.450127 0.450127
vt 0.450127 0.334315
vt 0.484482 0.299960
vt 0.356914 0.541437
vt 0.392221 0.504360
vt 0.427528 0.541437
vt 0.572472 0.756995
vt 0.607779 0.719918
vt 0.665685 0.665685
vt 0.700040 0.700040
vt 0.549873 0.665685
vt 0.594781 0.594781
vt 0.458563 0.572472
vt 0.495639 0.607779
vt 0.458563 0.643086
vt 0.515517 0.515517
vt 0.549873 0.549873
vt 0.515517 0.700040
vt 0.711197 0.392221
vt 0.643086 0.458563
vt 0.700040 0.515517
vt 0.665685 0.549873
vt 0.607779 0.495640
vt 0.572472 0.458563
vt 0.607779 0.495640
vt 0.643086 0.458563
vt 0.607779 0.719918
vt 0.549873 0.665685
vt 0.515517 0.700040
vt 0.674121 0.858643
vt 0.643086 0.889678
vt 0.980988 0.234569
vt 0.541437 0.858643
vt 0.572472 0.889678
vt 0.607779 0.854372
vt 0.674121 0.788030
vt 0.700040 0.946633
vt 0.665685 0.980988
vt 0.731075 0.915598
vt 0.674121 0.356914
vt 0.572472 0.458563
vt 0.541437 0.356914
vt 0.572472 0.325879
vt 0.607779 0.361186
s 0
usemtl マテリアル.001
f 79/1/1 97/2/1 20/3/1 2/4/1
f 117/5/2 135/6/2 98/7/2 78/8/2
f 99/9/3 96/10/3 165/10/3 166/9/3
f 3/11/4 22/12/4 60/13/4 40/14/4
f 41/15/5 59/16/5 136/17/5 116/18/5
f 1/19/6 4/20/6 7/21/6 6/22/6
f 4/20/7 5/23/7 8/24/7 7/21/7
f 6/22/8 7/21/8 19/25/8 16/26/8
f 7/21/9 8/24/9 9/27/9 19/25/9
f 2/4/10 10/28/10 13/29/10 12/30/10
f 10/28/11 11/31/11 14/32/11 13/29/11
f 12/30/12 13/29/12 8/33/12 5/34/12
f 13/29/13 14/32/13 9/35/13 8/33/13
f 3/11/14 15/36/14 18/37/14 17/38/14
f 15/36/15 16/39/15 19/40/15 18/37/15
f 17/38/16 18/37/16 14/41/16 11/42/16
f 18/37/17 19/40/17 9/43/17 14/41/17
f 20/3/18 23/44/18 26/45/18 25/46/18
f 23/44/19 24/47/19 27/48/19 26/45/19
f 25/46/20 26/45/20 38/49/20 35/50/20
f 26/45/21 27/48/21 28/51/21 38/49/21
f 21/52/22 29/53/22 32/54/22 31/55/22
f 134/56/23 139/57/23 171/58/23 172/56/23
f 31/55/24 32/54/24 27/59/24 24/60/24
f 32/54/25 33/61/25 28/62/25 27/59/25
f 22/12/26 34/63/26 37/64/26 36/65/26
f 34/63/27 35/66/27 38/67/27 37/64/27
f 36/65/28 37/64/28 33/68/28 30/69/28
f 37/64/29 38/67/29 28/70/29 33/68/29
f 39/71/30 42/72/30 45/73/30 44/74/30
f 42/72/31 43/75/31 46/76/31 45/73/31
f 44/74/32 45/73/32 57/77/32 54/78/32
f 45/73/33 46/76/33 47/79/33 57/77/33
f 40/14/34 48/80/34 51/81/34 50/82/34
f 48/80/35 49/83/35 52/84/35 51/81/35
f 50/82/36 51/81/36 46/85/36 43/86/36
f 51/81/37 52/84/37 47/87/37 46/85/37
f 41/15/38 53/88/38 56/89/38 55/90/38
f 53/88/39 54/91/39 57/92/39 56/89/39
f 55/90/40 56/89/40 52/84/40 49/83/40
f 56/89/41 57/92/41 47/93/41 52/84/41
f 58/94/42 61/95/42 64/96/42 63/97/42
f 61/95/43 62/98/43 65/99/43 64/96/43
f 76/100/44 73/101/44 163/102/44 164/100/44
f 64/96/45 65/99/45 66/103/45 76/104/45
f 69/105/4 59/16/4 204/16/4 203/106/4
f 67/107/46 68/108/46 71/109/46 70/110/46
f 69/105/47 70/110/47 65/111/47 62/112/47
f 70/110/48 71/109/48 66/113/48 65/111/48
f 60/13/49 72/114/49 75/115/49 74/116/49
f 72/114/50 73/101/50 76/100/50 75/115/50
f 74/116/51 75/115/51 71/109/51 68/108/51
f 75/115/52 76/100/52 66/117/52 71/109/52
f 77/118/53 80/119/53 83/120/53 82/121/53
f 80/119/54 81/122/54 84/123/54 83/120/54
f 82/121/55 83/120/55 95/124/55 92/125/55
f 83/120/56 84/123/56 85/126/56 95/124/56
f 78/8/57 86/127/57 89/128/57 88/129/57
f 86/127/58 87/130/58 90/131/58 89/128/58
f 88/129/59 89/128/59 84/123/59 81/122/59
f 89/128/60 90/131/60 85/126/60 84/123/60
f 79/1/61 91/132/61 94/133/61 93/134/61
f 91/132/62 92/135/62 95/136/62 94/133/62
f 93/134/63 94/133/63 90/131/63 87/130/63
f 94/133/64 95/136/64 85/126/64 90/131/64
f 96/10/65 99/9/65 102/137/65 101/138/65
f 99/9/66 100/139/66 103/140/66 102/137/66
f 102/137/67 114/141/67 170/141/67 167/142/67
f 102/137/68 103/140/68 104/143/68 114/141/68
f 97/2/69 105/144/69 108/145/69 107/146/69
f 105/144/70 106/147/70 109/148/70 108/145/70
f 107/146/71 108/145/71 103/149/71 100/150/71
f 108/145/72 109/148/72 104/143/72 103/149/72
f 98/7/73 110/151/73 113/152/73 112/153/73
f 110/151/74 111/154/74 114/141/74 113/152/74
f 112/153/75 113/152/75 109/148/75 106/147/75
f 113/152/76 114/141/76 104/143/76 109/148/76
f 115/155/77 118/156/77 121/157/77 120/158/77
f 118/156/78 119/159/78 122/160/78 121/157/78
f 120/158/79 121/157/79 133/161/79 130/162/79
f 121/157/80 122/160/80 123/163/80 133/161/80
f 116/18/81 124/164/81 127/165/81 126/166/81
f 124/164/82 125/167/82 128/168/82 127/165/82
f 126/166/83 127/165/83 122/169/83 119/170/83
f 127/165/84 128/168/84 123/163/84 122/169/84
f 117/5/85 129/171/85 132/172/85 131/173/85
f 129/171/86 130/162/86 133/161/86 132/172/86
f 131/173/87 132/172/87 128/168/87 125/167/87
f 132/172/88 133/161/88 123/163/88 128/168/88
f 134/56/89 137/174/89 140/175/89 139/57/89
f 30/69/44 33/68/44 158/68/44 157/69/44
f 139/57/90 140/175/90 152/176/90 149/177/90
f 140/175/91 141/178/91 142/179/91 152/176/91
f 135/6/92 143/180/92 146/181/92 145/182/92
f 143/180/93 144/183/93 147/184/93 146/181/93
f 145/182/94 146/181/94 141/178/94 138/185/94
f 146/181/95 147/184/95 142/179/95 141/178/95
f 70/110/96 69/105/96 203/106/96 206/186/96
f 148/187/97 149/188/97 152/189/97 151/190/97
f 150/191/98 151/190/98 147/184/98 144/183/98
f 151/190/99 152/189/99 142/179/99 147/184/99
f 39/71/100 1/19/100 6/22/100 42/72/100
f 42/72/101 6/22/101 16/26/101 43/75/101
f 43/86/102 16/39/102 15/36/102 50/82/102
f 50/82/103 15/36/103 3/11/103 40/14/103
f 2/4/104 20/3/104 25/46/104 10/28/104
f 10/28/105 25/46/105 35/50/105 11/31/105
f 11/42/106 35/66/106 34/63/106 17/38/106
f 17/38/107 34/63/107 22/12/107 3/11/107
f 21/52/108 58/94/108 63/97/108 29/53/108
f 61/95/109 58/94/109 159/94/109 160/95/109
f 30/69/110 73/101/110 72/114/110 36/65/110
f 36/65/111 72/114/111 60/13/111 22/12/111
f 59/16/112 41/15/112 55/90/112 67/107/112
f 67/107/113 55/90/113 49/83/113 68/108/113
f 68/108/114 49/83/114 48/80/114 74/116/114
f 74/116/115 48/80/115 40/14/115 60/13/115
f 115/155/116 39/71/116 44/74/116 118/156/116
f 118/156/117 44/74/117 54/78/117 119/159/117
f 119/170/118 54/91/118 53/88/118 126/166/118
f 148/187/119 151/190/119 212/192/119 211/193/119
f 64/96/120 76/104/120 164/104/120 161/96/120
f 61/95/121 139/57/121 149/177/121 62/98/121
f 62/112/122 149/188/122 148/187/122 69/105/122
f 69/105/123 148/187/123 136/17/123 59/16/123
f 135/6/124 117/5/124 131/173/124 143/180/124
f 143/180/125 131/173/125 125/167/125 144/183/125
f 144/183/126 125/167/126 124/164/126 150/191/126
f 150/191/127 124/164/127 116/18/127 136/17/127
f 77/118/128 115/155/128 120/158/128 80/119/128
f 80/119/129 120/158/129 130/162/129 81/122/129
f 81/122/130 130/162/130 129/171/130 88/129/130
f 88/129/131 129/171/131 117/5/131 78/8/131
f 134/56/132 96/10/132 101/138/132 137/174/132
f 141/178/133 140/175/133 174/194/133 176/195/133
f 138/185/134 111/154/134 110/151/134 145/182/134
f 145/182/135 110/151/135 98/7/135 135/6/135
f 97/2/136 79/1/136 93/134/136 105/144/136
f 105/144/137 93/134/137 87/130/137 106/147/137
f 106/147/138 87/130/138 86/127/138 112/153/138
f 112/153/139 86/127/139 78/8/139 98/7/139
f 1/19/140 77/118/140 82/121/140 4/20/140
f 4/20/141 82/121/141 92/125/141 5/23/141
f 5/34/142 92/135/142 91/132/142 12/30/142
f 12/30/143 91/132/143 79/1/143 2/4/143
f 111/154/144 138/185/144 175/196/144 169/154/144
f 99/9/145 31/55/145 24/60/145 100/139/145
f 100/150/146 24/47/146 23/44/146 107/146/146
f 107/146/147 23/44/147 20/3/147 97/2/147
f 39/71/148 115/155/148 77/118/148 1/19/148
f 172/56/2 171/58/2 183/58/2 184/56/2
f 155/53/149 162/97/149 198/197/149 193/198/149
f 156/54/150 155/53/150 193/198/150 194/54/150
f 173/174/151 168/138/151 186/138/151 189/174/151
f 176/195/152 174/194/152 190/194/152 192/178/152
f 157/69/153 158/68/153 196/199/153 195/69/153
f 166/9/2 165/10/2 181/10/2 182/200/2
f 170/141/154 169/154/154 187/154/154 188/141/154
f 165/10/2 172/56/2 184/56/2 181/10/2
f 33/61/155 32/54/155 156/54/155 158/61/155
f 114/141/156 111/154/156 169/154/156 170/141/156
f 63/97/157 64/96/157 161/96/157 162/97/157
f 140/175/158 137/174/158 173/174/158 174/194/158
f 101/138/159 102/137/159 167/142/159 168/138/159
f 21/52/160 31/55/160 153/201/160 154/52/160
f 58/94/44 21/52/44 154/52/44 159/94/44
f 96/10/144 134/56/144 172/56/144 165/10/144
f 29/53/144 63/97/144 162/97/144 155/53/144
f 139/57/5 61/95/5 160/95/5 171/58/5
f 32/54/161 29/53/161 155/53/161 156/54/161
f 137/174/44 101/138/44 168/138/44 173/174/44
f 31/55/1 99/9/1 166/9/1 153/201/1
f 73/101/44 30/69/44 157/69/44 163/102/44
f 138/185/162 141/178/162 176/195/162 175/196/162
f 184/56/163 179/94/163 178/202/163 181/10/163
f 179/94/164 184/56/164 183/58/164 180/203/164
f 181/10/165 178/202/165 177/201/165 182/200/165
f 171/58/5 160/95/5 180/203/5 183/58/5
f 154/52/4 153/201/4 177/201/4 178/202/4
f 159/94/4 154/52/4 178/202/4 179/94/4
f 153/201/1 166/9/1 182/200/1 177/201/1
f 160/95/4 159/94/4 179/94/4 180/203/4
f 186/138/166 185/137/166 188/141/166 187/154/166
f 189/174/167 191/185/167 192/178/167 190/194/167
f 189/174/168 186/138/168 187/154/168 191/185/168
f 167/142/169 170/141/169 188/141/169 185/137/169
f 168/138/170 167/142/170 185/137/170 186/138/170
f 175/196/171 176/195/171 192/178/171 191/185/171
f 169/154/172 175/196/172 191/185/172 187/154/172
f 174/194/173 173/174/173 189/174/173 190/194/173
f 193/198/174 195/204/174 196/205/174 194/54/174
f 198/197/175 197/96/175 200/104/175 199/206/175
f 193/198/176 198/197/176 199/206/176 195/204/176
f 161/96/177 164/104/177 200/104/177 197/96/177
f 162/97/178 161/96/178 197/96/178 198/197/178
f 158/61/179 156/54/179 194/54/179 196/205/179
f 163/102/180 157/69/180 195/69/180 199/102/180
f 164/100/181 163/102/181 199/102/181 200/100/181
f 204/16/182 205/207/182 206/186/182 203/106/182
f 210/17/183 211/193/183 212/192/183 209/208/183
f 207/209/184 202/210/184 201/211/184 208/18/184
f 151/190/185 150/191/185 209/208/185 212/192/185
f 150/191/186 136/17/186 210/17/186 209/208/186
f 59/16/187 67/107/187 205/207/187 204/16/187
f 126/166/188 53/88/188 202/210/188 207/209/188
f 53/88/2 41/15/2 201/211/2 202/210/2
f 116/18/4 126/166/4 207/209/4 208/18/4
f 136/17/2 148/187/2 211/193/2 210/17/2
f 67/107/189 70/110/189 206/186/189 205/207/189
f 41/15/190 116/18/190 208/18/190 201/211/190
