# Blender 4.4.1
# www.blender.org
mtllib FaceSkySphere.mtl
o 球
v 0.000004 12.472043 -8.333554
v 0.000004 8.333552 -12.472045
v 0.000004 2.926354 -14.711779
v 0.000004 -0.000001 -15.000000
v 0.000004 -2.926356 -14.711779
v 0.000004 -8.333554 -12.472043
v -0.570900 14.711779 -2.870127
v -1.119864 13.858192 -5.629955
v -1.625792 12.472043 -8.173428
v -2.069242 10.606601 -10.402800
v -2.433172 8.333552 -12.232398
v -2.703596 5.740251 -13.591911
v -2.870122 2.926354 -14.429095
v -2.926351 -0.000001 -14.711779
v -2.870122 -2.926356 -14.429095
v -2.703596 -5.740253 -13.591911
v -2.433172 -8.333554 -12.232396
v -2.069242 -10.606603 -10.402798
v -1.625792 -12.472045 -8.173426
v -1.119864 -13.858192 -5.629953
v -0.570900 -14.711779 -2.870125
v -1.119864 14.711779 -2.703600
v -2.196696 13.858192 -5.303302
v -3.189109 12.472043 -7.699200
v -4.058967 10.606601 -9.799223
v -4.772840 8.333552 -11.522665
v -5.303297 5.740251 -12.803300
v -5.629951 2.926354 -13.591911
v -5.740248 -0.000001 -13.858191
v -5.629951 -2.926356 -13.591911
v -5.303297 -5.740253 -12.803300
v -4.772840 -8.333554 -11.522663
v -4.058967 -10.606603 -9.799221
v -3.189109 -12.472045 -7.699198
v -2.196696 -13.858192 -5.303300
v -1.119864 -14.711779 -2.703598
v -1.625792 14.711779 -2.433176
v -3.189109 13.858192 -4.772846
v -4.629870 12.472043 -6.929096
v -5.892709 10.606601 -8.819068
v -6.929092 8.333552 -10.370125
v -7.699195 5.740251 -11.522665
v -8.173423 2.926354 -12.232397
v -8.333550 -0.000001 -12.472042
v -8.173423 -2.926356 -12.232397
v -7.699195 -5.740253 -11.522665
v -6.929092 -8.333554 -10.370123
v -5.892709 -10.606603 -8.819066
v -4.629870 -12.472045 -6.929094
v -3.189109 -13.858192 -4.772844
v -1.625792 -14.711779 -2.433174
v -2.069242 14.711779 -2.069246
v -4.058967 13.858192 -4.058971
v -5.892708 12.472044 -5.892712
v -7.499996 10.606601 -7.500001
v -8.819062 8.333552 -8.819066
v -9.799217 5.740251 -9.799222
v -10.402795 2.926354 -10.402798
v -10.606598 -0.000001 -10.606599
v -10.402795 -2.926356 -10.402798
v -9.799217 -5.740253 -9.799222
v -8.819062 -8.333554 -8.819064
v -7.499996 -10.606603 -7.499999
v -5.892708 -12.472044 -5.892710
v -4.058967 -13.858192 -4.058969
v -2.069242 -14.711779 -2.069244
v -2.433171 14.711779 -1.625796
v -4.772841 13.858192 -3.189114
v -6.929092 12.472044 -4.629874
v -8.819063 10.606602 -5.892713
v -10.370121 8.333552 -6.929094
v -11.522661 5.740252 -7.699201
v -12.232393 2.926354 -8.173425
v -12.472039 -0.000001 -8.333550
v -12.232393 -2.926356 -8.173425
v -11.522661 -5.740252 -7.699200
v -10.370121 -8.333554 -6.929093
v -8.819063 -10.606602 -5.892711
v -6.929092 -12.472044 -4.629872
v -4.772841 -13.858192 -3.189112
v -2.433171 -14.711779 -1.625794
v 0.000004 15.000000 -0.000001
v -2.703595 14.711779 -1.119868
v -5.303297 13.858192 -2.196700
v -7.699195 12.472044 -3.189113
v -9.799218 10.606602 -4.058972
v -11.522661 8.333553 -4.772842
v -12.803296 5.740252 -5.303301
v -13.591907 2.926354 -5.629952
v -13.858187 -0.000000 -5.740248
v -13.591907 -2.926355 -5.629952
v -12.803296 -5.740252 -5.303300
v -11.522661 -8.333553 -4.772841
v -9.799218 -10.606602 -4.058970
v -7.699195 -12.472044 -3.189111
v -5.303297 -13.858192 -2.196698
v -2.703595 -14.711779 -1.119866
v -2.870121 14.711779 -0.570904
v -5.629950 13.858192 -1.119868
v -8.173422 12.472044 -1.625796
v -10.402795 10.606602 -2.069247
v -12.232391 8.333553 -2.433174
v -13.591907 5.740252 -2.703600
v -14.429090 2.926355 -2.870124
v -14.711773 -0.000000 -2.926352
v -14.429090 -2.926355 -2.870124
v -13.591907 -5.740252 -2.703599
v -12.232391 -8.333553 -2.433172
v -10.402795 -10.606602 -2.069245
v -8.173422 -12.472044 -1.625794
v -5.629950 -13.858192 -1.119866
v -2.870121 -14.711779 -0.570902
v -2.926350 14.711779 -0.000001
v -5.740247 13.858192 -0.000001
v -8.333549 12.472044 0.000000
v -10.606597 10.606602 -0.000001
v -12.472037 8.333553 0.000000
v -13.858188 5.740252 -0.000001
v -14.711773 2.926355 0.000001
v -14.999992 0.000000 0.000002
v -14.711773 -2.926355 0.000001
v -13.858188 -5.740252 -0.000001
v -12.472037 -8.333553 0.000002
v -10.606597 -10.606602 0.000001
v -8.333549 -12.472044 0.000002
v -5.740247 -13.858192 0.000001
v -2.926350 -14.711779 0.000001
v -2.870121 14.711779 0.570902
v -5.629950 13.858192 1.119867
v -8.173421 12.472044 1.625795
v -10.402794 10.606602 2.069244
v -12.232390 8.333553 2.433175
v -13.591907 5.740252 2.703598
v -14.429090 2.926355 2.870126
v -14.711770 0.000000 2.926356
v -14.429090 -2.926355 2.870126
v -13.591907 -5.740252 2.703598
v -12.232390 -8.333553 2.433177
v -10.402794 -10.606602 2.069246
v -8.173421 -12.472044 1.625797
v -5.629950 -13.858192 1.119869
v -2.870121 -14.711779 0.570904
v -2.703595 14.711779 1.119866
v -5.303297 13.858192 2.196698
v -7.699193 12.472044 3.189112
v -9.799217 10.606602 4.058969
v -11.522659 8.333553 4.772844
v -12.803296 5.740252 5.303298
v -13.591905 2.926355 5.629954
v -13.858183 0.000000 5.740252
v -13.591905 -2.926354 5.629954
v -12.803296 -5.740252 5.303299
v -11.522659 -8.333553 4.772845
v -9.799217 -10.606602 4.058971
v -7.699193 -12.472044 3.189114
v -5.303297 -13.858192 2.196700
v -2.703595 -14.711779 1.119868
v -2.433170 14.711779 1.625794
v -4.772840 13.858192 3.189112
v -6.929090 12.472044 4.629873
v -8.819062 10.606602 5.892710
v -10.370118 8.333554 6.929094
v -11.522661 5.740252 7.699197
v -12.232390 2.926356 8.173426
v -12.472034 0.000001 8.333552
v -12.232390 -2.926354 8.173426
v -11.522661 -5.740252 7.699198
v -10.370118 -8.333552 6.929095
v -8.819062 -10.606602 5.892712
v -6.929090 -12.472044 4.629875
v -4.772840 -13.858192 3.189114
v -2.433170 -14.711779 1.625796
v -2.069241 14.711779 2.069243
v -4.058966 13.858192 4.058969
v -5.892705 12.472044 5.892710
v -7.499996 10.606603 7.499998
v -8.819059 8.333554 8.819064
v -9.799217 5.740253 9.799220
v -10.402792 2.926356 10.402798
v -10.606590 0.000001 10.606600
v -10.402792 -2.926354 10.402798
v -9.799217 -5.740251 9.799220
v -8.819059 -8.333552 8.819066
v -7.499996 -10.606601 7.500000
v -5.892705 -12.472044 5.892712
v -4.058966 -13.858192 4.058971
v -2.069241 -14.711779 2.069245
v -1.625791 14.711779 2.433173
v -3.189108 13.858192 4.772843
v -4.629868 12.472045 6.929094
v -5.892708 10.606603 8.819065
v -6.929090 8.333554 10.370122
v -7.699195 5.740253 11.522663
v -8.173420 2.926356 12.232395
v -8.333542 0.000001 12.472040
v -8.173420 -2.926354 12.232395
v -7.699195 -5.740251 11.522663
v -6.929090 -8.333552 10.370124
v -5.892708 -10.606601 8.819067
v -4.629868 -12.472043 6.929096
v -3.189108 -13.858192 4.772845
v -1.625791 -14.711779 2.433175
v -1.119863 14.711779 2.703597
v -2.196694 13.858192 5.303299
v -3.189107 12.472045 7.699196
v -4.058966 10.606603 9.799220
v -4.772838 8.333554 11.522662
v -5.303297 5.740253 12.803298
v -5.629947 2.926356 13.591908
v -5.740241 0.000001 13.858187
v -5.629947 -2.926354 13.591908
v -5.303297 -5.740251 12.803298
v -4.772838 -8.333552 11.522664
v -4.058966 -10.606601 9.799222
v -3.189107 -12.472043 7.699198
v -2.196694 -13.858192 5.303301
v -1.119863 -14.711779 2.703599
v -0.570899 14.711779 2.870123
v -1.119863 13.858192 5.629952
v -1.625790 12.472045 8.173422
v -2.069241 10.606603 10.402797
v -2.433169 8.333554 12.232392
v -2.703596 5.740253 13.591908
v -2.870119 2.926356 14.429091
v -2.926345 0.000001 14.711772
v -2.870119 -2.926354 14.429091
v -2.703596 -5.740251 13.591908
v -2.433169 -8.333552 12.232394
v -2.069241 -10.606601 10.402799
v -1.625790 -12.472043 8.173424
v -1.119863 -13.858192 5.629954
v -0.570899 -14.711779 2.870125
v 0.000004 14.711779 2.926352
v 0.000004 13.858192 5.740249
v 0.000005 12.472045 8.333548
v 0.000004 10.606603 10.606599
v 0.000005 8.333554 12.472038
v 0.000003 5.740253 13.858189
v 0.000006 2.926356 14.711774
v 0.000009 0.000001 14.999990
v 0.000006 -2.926354 14.711774
v 0.000003 -5.740251 13.858189
v 0.000005 -8.333552 12.472040
v 0.000004 -10.606601 10.606601
v 0.000005 -12.472043 8.333549
v 0.000004 -13.858192 5.740251
v 0.000004 -14.711779 2.926354
v 0.570907 14.711779 2.870123
v 1.119871 13.858192 5.629952
v 1.625800 12.472045 8.173421
v 2.069249 10.606603 10.402796
v 2.433179 8.333554 12.232391
v 2.703602 5.740253 13.591908
v 2.870130 2.926356 14.429090
v 2.926361 0.000001 14.711768
v 2.870130 -2.926354 14.429090
v 2.703602 -5.740251 13.591908
v 2.433179 -8.333552 12.232393
v 2.069249 -10.606601 10.402798
v 1.625800 -12.472043 8.173423
v 1.119871 -13.858192 5.629954
v 0.570907 -14.711779 2.870125
v 1.119870 14.711779 2.703596
v 2.196703 13.858192 5.303298
v 3.189116 12.472045 7.699193
v 4.058973 10.606603 9.799219
v 4.772848 8.333554 11.522660
v 5.303302 5.740253 12.803297
v 5.629958 2.926356 13.591906
v 5.740256 0.000001 13.858181
v 5.629958 -2.926354 13.591906
v 5.303302 -5.740251 12.803297
v 4.772848 -8.333552 11.522662
v 4.058973 -10.606601 9.799221
v 3.189116 -12.472043 7.699195
v 2.196703 -13.858192 5.303300
v 1.119870 -14.711779 2.703598
v 1.625798 14.711779 2.433172
v 3.189116 13.858192 4.772842
v 4.629876 12.472045 6.929090
v 5.892715 10.606603 8.819064
v 6.929098 8.333554 10.370119
v 7.699200 5.740253 11.522663
v 8.173429 2.926356 12.232391
v 8.333555 0.000001 12.472032
v 8.173429 -2.926354 12.232391
v 7.699200 -5.740251 11.522663
v 6.929098 -8.333552 10.370121
v 5.892715 -10.606601 8.819066
v 4.629876 -12.472043 6.929092
v 3.189116 -13.858192 4.772844
v 1.625798 -14.711779 2.433174
v 2.069247 14.711779 2.069243
v 4.058973 13.858192 4.058968
v 5.892713 12.472044 5.892706
v 7.500004 10.606603 7.499997
v 8.819067 8.333554 8.819060
v 9.799222 5.740253 9.799219
v 10.402801 2.926356 10.402793
v 10.606601 0.000001 10.606589
v 10.402801 -2.926354 10.402793
v 9.799222 -5.740251 9.799219
v 8.819067 -8.333552 8.819062
v 7.500004 -10.606601 7.499999
v 5.892713 -12.472044 5.892708
v 4.058973 -13.858192 4.058970
v 2.069247 -14.711779 2.069245
v 0.000004 -15.000000 0.000001
v 2.433177 14.711779 1.625793
v 4.772847 13.858192 3.189110
v 6.929096 12.472044 4.629868
v 8.819068 10.606602 5.892709
v 10.370126 8.333554 6.929090
v 11.522665 5.740252 7.699196
v 12.232397 2.926356 8.173420
v 12.472040 0.000001 8.333541
v 12.232397 -2.926354 8.173420
v 11.522665 -5.740252 7.699197
v 10.370126 -8.333552 6.929091
v 8.819068 -10.606602 5.892711
v 6.929096 -12.472044 4.629870
v 4.772847 -13.858192 3.189112
v 2.433177 -14.711779 1.625795
v 2.703601 14.711779 1.119865
v 5.303303 13.858192 2.196697
v 7.699198 12.472044 3.189108
v 9.799224 10.606602 4.058968
v 11.522664 8.333553 4.772840
v 12.803299 5.740252 5.303298
v 13.591911 2.926355 5.629948
v 13.858187 0.000000 5.740240
v 13.591911 -2.926354 5.629948
v 12.803299 -5.740252 5.303299
v 11.522664 -8.333553 4.772840
v 9.799224 -10.606602 4.058970
v 7.699198 -12.472044 3.189110
v 5.303303 -13.858192 2.196699
v 2.703601 -14.711779 1.119867
v 2.870127 14.711779 0.570902
v 5.629955 13.858192 1.119865
v 8.173424 12.472044 1.625791
v 10.402801 10.606602 2.069243
v 12.232395 8.333553 2.433171
v 13.591910 5.740252 2.703598
v 14.429094 2.926355 2.870121
v 14.711770 0.000000 2.926345
v 14.429094 -2.926355 2.870121
v 13.591910 -5.740252 2.703598
v 12.232395 -8.333553 2.433173
v 10.402801 -10.606602 2.069245
v 8.173424 -12.472044 1.625793
v 5.629955 -13.858192 1.119867
v 2.870127 -14.711779 0.570904
v 2.926356 14.711779 -0.000001
v 5.740252 13.858192 -0.000002
v 8.333550 12.472044 -0.000003
v 10.606603 10.606602 -0.000001
v 12.472041 8.333553 -0.000003
v 13.858191 5.740252 -0.000000
v 14.711776 2.926355 -0.000004
v 14.999990 -0.000000 -0.000007
v 14.711776 -2.926355 -0.000004
v 13.858191 -5.740252 0.000000
v 12.472041 -8.333553 -0.000001
v 10.606603 -10.606602 0.000001
v 8.333550 -12.472044 -0.000001
v 5.740252 -13.858192 0.000000
v 2.926356 -14.711779 0.000001
v 2.870126 14.711779 -0.570904
v 5.629955 13.858192 -1.119869
v 8.173423 12.472044 -1.625798
v 10.402800 10.606602 -2.069246
v 12.232393 8.333553 -2.433178
v 13.591909 5.740252 -2.703598
v 14.429091 2.926355 -2.870128
v 14.711767 -0.000000 -2.926359
v 14.429091 -2.926355 -2.870128
v 13.591909 -5.740252 -2.703598
v 12.232393 -8.333553 -2.433176
v 10.402800 -10.606602 -2.069244
v 8.173423 -12.472044 -1.625796
v 5.629955 -13.858192 -1.119867
v 2.870126 -14.711779 -0.570902
v 2.703600 14.711779 -1.119868
v 5.303302 13.858192 -2.196700
v 7.699195 12.472044 -3.189113
v 9.799223 10.606602 -4.058971
v 11.522662 8.333553 -4.772844
v 12.803299 5.740252 -5.303298
v 13.591907 2.926354 -5.629955
v 13.858180 -0.000000 -5.740252
v 13.591907 -2.926355 -5.629955
v 12.803299 -5.740252 -5.303298
v 11.522662 -8.333553 -4.772843
v 9.799223 -10.606602 -4.058969
v 7.699195 -12.472044 -3.189111
v 5.303302 -13.858192 -2.196698
v 2.703600 -14.711779 -1.119866
v 2.433176 14.711779 -1.625795
v 4.772845 13.858192 -3.189113
v 6.929092 12.472044 -4.629873
v 8.819067 10.606602 -5.892712
v 10.370121 8.333552 -6.929094
v 11.522664 5.740252 -7.699196
v 12.232392 2.926354 -8.173426
v 12.472031 -0.000001 -8.333551
v 12.232392 -2.926356 -8.173426
v 11.522664 -5.740252 -7.699195
v 10.370121 -8.333554 -6.929093
v 8.819067 -10.606602 -5.892710
v 6.929092 -12.472044 -4.629871
v 4.772845 -13.858192 -3.189111
v 2.433176 -14.711779 -1.625793
v 2.069247 14.711779 -2.069245
v 4.058972 13.858192 -4.058970
v 5.892708 12.472044 -5.892710
v 7.500001 10.606601 -7.499999
v 8.819062 8.333552 -8.819064
v 9.799221 5.740251 -9.799217
v 10.402794 2.926354 -10.402796
v 10.606589 -0.000001 -10.606595
v 10.402794 -2.926356 -10.402796
v 9.799221 -5.740253 -9.799217
v 8.819062 -8.333554 -8.819062
v 7.500001 -10.606603 -7.499997
v 5.892708 -12.472044 -5.892708
v 4.058972 -13.858192 -4.058968
v 2.069247 -14.711779 -2.069243
v 1.625797 14.711779 -2.433174
v 3.189114 13.858192 -4.772843
v 4.629870 12.472043 -6.929092
v 5.892713 10.606601 -8.819066
v 6.929093 8.333552 -10.370121
v 7.699199 5.740251 -11.522661
v 8.173422 2.926354 -12.232392
v 8.333542 -0.000001 -12.472034
v 8.173422 -2.926356 -12.232392
v 7.699199 -5.740253 -11.522661
v 6.929093 -8.333554 -10.370119
v 5.892713 -10.606603 -8.819064
v 4.629870 -12.472045 -6.929090
v 3.189114 -13.858192 -4.772841
v 1.625797 -14.711779 -2.433172
v 1.119870 14.711779 -2.703598
v 2.196701 13.858192 -5.303299
v 3.189110 12.472043 -7.699194
v 4.058972 10.606601 -9.799221
v 4.772841 8.333552 -11.522660
v 5.303301 5.740251 -12.803295
v 5.629951 2.926354 -13.591905
v 5.740242 -0.000001 -13.858179
v 5.629951 -2.926356 -13.591905
v 5.303301 -5.740253 -12.803295
v 4.772841 -8.333554 -11.522658
v 4.058972 -10.606603 -9.799219
v 3.189110 -12.472045 -7.699192
v 2.196701 -13.858192 -5.303297
v 1.119870 -14.711779 -2.703596
v 0.570906 14.711779 -2.870124
v 1.119870 13.858192 -5.629952
v 1.625794 12.472043 -8.173419
v 2.069247 10.606601 -10.402798
v 2.433173 8.333552 -12.232388
v 2.703601 5.740251 -13.591905
v 2.870123 2.926354 -14.429089
v 2.926348 -0.000001 -14.711762
v 2.870123 -2.926356 -14.429089
v 2.703601 -5.740253 -13.591905
v 2.433173 -8.333554 -12.232387
v 2.069247 -10.606603 -10.402796
v 1.625794 -12.472045 -8.173417
v 1.119870 -13.858192 -5.629950
v 0.570906 -14.711779 -2.870122
v 0.000003 14.711779 -2.926353
v 0.000003 13.858192 -5.740249
v 0.000002 10.606601 -10.606600
v 0.000003 5.740251 -13.858186
v 0.000003 -5.740253 -13.858186
v 0.000002 -10.606603 -10.606598
v 0.000000 -12.472045 -8.333542
v 0.000003 -13.858192 -5.740247
v 0.000003 -14.711779 -2.926351
vn -0.0000 0.9217 0.3879
vn 0.0392 0.9796 0.1971
vn -0.0000 0.9796 0.2010
vn -0.0000 -0.1939 0.9810
vn 0.1951 -0.0000 0.9808
vn -0.0000 -0.0000 1.0000
vn -0.0000 -0.9796 0.2010
vn -0.0000 -1.0000 -0.0000
vn 0.0392 -0.9796 0.1971
vn -0.0000 1.0000 -0.0000
vn 0.1914 0.1939 0.9622
vn -0.0000 0.1939 0.9810
vn -0.0000 -0.9217 0.3879
vn 0.0757 -0.9217 0.3804
vn 0.1804 0.3805 0.9070
vn -0.0000 0.3805 0.9248
vn -0.0000 -0.8286 0.5598
vn 0.1092 -0.8286 0.5490
vn 0.1626 0.5528 0.8173
vn -0.0000 0.5528 0.8333
vn -0.0000 -0.7041 0.7101
vn 0.1385 -0.7041 0.6965
vn -0.0000 0.7041 0.7101
vn 0.1385 0.7041 0.6965
vn 0.1626 -0.5528 0.8173
vn -0.0000 -0.5528 0.8333
vn 0.1092 0.8286 0.5490
vn -0.0000 0.8286 0.5598
vn -0.0000 -0.3805 0.9248
vn 0.1804 -0.3805 0.9070
vn 0.0757 0.9217 0.3804
vn 0.1914 -0.1939 0.9622
vn 0.2142 0.8286 0.5172
vn 0.1484 0.9217 0.3584
vn 0.3539 -0.3805 0.8544
vn 0.3754 -0.1939 0.9063
vn 0.0769 0.9796 0.1857
vn 0.3827 -0.0000 0.9239
vn 0.0769 -0.9796 0.1857
vn 0.3754 0.1939 0.9063
vn 0.1484 -0.9217 0.3584
vn 0.3539 0.3805 0.8544
vn 0.2142 -0.8286 0.5172
vn 0.3189 0.5528 0.7699
vn 0.2718 -0.7041 0.6561
vn 0.2718 0.7041 0.6561
vn 0.3189 -0.5528 0.7699
vn 0.3110 -0.8286 0.4654
vn 0.5138 0.3805 0.7689
vn 0.4630 0.5528 0.6929
vn 0.3945 -0.7041 0.5905
vn 0.3945 0.7041 0.5905
vn 0.4630 -0.5528 0.6929
vn 0.3110 0.8286 0.4654
vn 0.5138 -0.3805 0.7689
vn 0.2155 0.9217 0.3225
vn 0.5450 -0.1939 0.8157
vn 0.1117 0.9796 0.1671
vn 0.5556 -0.0000 0.8315
vn 0.1117 -0.9796 0.1671
vn 0.5450 0.1939 0.8157
vn 0.2155 -0.9217 0.3225
vn 0.6539 -0.3805 0.6539
vn 0.6937 -0.1939 0.6937
vn 0.2743 0.9217 0.2743
vn 0.1421 0.9796 0.1421
vn 0.7071 -0.0000 0.7071
vn 0.1421 -0.9796 0.1421
vn 0.6937 0.1939 0.6937
vn 0.2743 -0.9217 0.2743
vn 0.6539 0.3805 0.6539
vn 0.3958 -0.8286 0.3958
vn 0.5893 0.5528 0.5893
vn 0.5021 -0.7041 0.5021
vn 0.5021 0.7041 0.5021
vn 0.5893 -0.5528 0.5893
vn 0.3958 0.8286 0.3958
vn 0.7689 0.3805 0.5138
vn 0.6929 0.5528 0.4630
vn 0.5905 -0.7041 0.3945
vn 0.5905 0.7041 0.3945
vn 0.6929 -0.5528 0.4630
vn 0.4654 0.8286 0.3110
vn 0.7689 -0.3805 0.5138
vn 0.3225 0.9217 0.2155
vn 0.8157 -0.1939 0.5450
vn 0.1671 0.9796 0.1117
vn 0.8315 -0.0000 0.5556
vn 0.1671 -0.9796 0.1117
vn 0.8157 0.1939 0.5450
vn 0.3225 -0.9217 0.2155
vn 0.4654 -0.8286 0.3110
vn 0.3584 0.9217 0.1484
vn 0.1857 0.9796 0.0769
vn 0.9063 -0.1939 0.3754
vn 0.9239 -0.0000 0.3827
vn 0.1857 -0.9796 0.0769
vn 0.9063 0.1939 0.3754
vn 0.3584 -0.9217 0.1484
vn 0.8544 0.3805 0.3539
vn 0.5172 -0.8286 0.2142
vn 0.7699 0.5528 0.3189
vn 0.6561 -0.7041 0.2718
vn 0.6561 0.7041 0.2718
vn 0.7699 -0.5528 0.3189
vn 0.5172 0.8286 0.2142
vn 0.8544 -0.3805 0.3539
vn 0.6965 0.7041 0.1385
vn 0.6965 -0.7041 0.1385
vn 0.8173 -0.5528 0.1626
vn 0.5490 0.8286 0.1092
vn 0.9070 -0.3805 0.1804
vn 0.3804 0.9217 0.0757
vn 0.9622 -0.1939 0.1914
vn 0.1971 0.9796 0.0392
vn 0.9808 -0.0000 0.1951
vn 0.1971 -0.9796 0.0392
vn 0.9622 0.1939 0.1914
vn 0.3804 -0.9217 0.0757
vn 0.9070 0.3805 0.1804
vn 0.5490 -0.8286 0.1092
vn 0.8173 0.5528 0.1626
vn 0.2010 -0.9796 -0.0000
vn 0.2010 0.9796 -0.0000
vn 0.9810 0.1939 -0.0000
vn 0.3879 -0.9217 -0.0000
vn 0.9248 0.3805 -0.0000
vn 0.5598 -0.8286 -0.0000
vn 0.8333 0.5528 -0.0000
vn 0.7101 -0.7041 -0.0000
vn 0.7101 0.7041 -0.0000
vn 0.8333 -0.5528 -0.0000
vn 0.5598 0.8286 -0.0000
vn 0.9248 -0.3805 -0.0000
vn 0.3879 0.9217 -0.0000
vn 0.9810 -0.1939 -0.0000
vn 1.0000 -0.0000 -0.0000
vn 0.6965 -0.7041 -0.1385
vn 0.8173 -0.5528 -0.1626
vn 0.6965 0.7041 -0.1385
vn 0.5490 0.8286 -0.1092
vn 0.9070 -0.3805 -0.1804
vn 0.3804 0.9217 -0.0757
vn 0.9622 -0.1939 -0.1914
vn 0.1971 0.9796 -0.0392
vn 0.9808 -0.0000 -0.1951
vn 0.1971 -0.9796 -0.0392
vn 0.9622 0.1939 -0.1914
vn 0.3804 -0.9217 -0.0757
vn 0.9070 0.3805 -0.1804
vn 0.5490 -0.8286 -0.1092
vn 0.8173 0.5528 -0.1626
vn 0.9063 0.1939 -0.3754
vn 0.3584 -0.9217 -0.1484
vn 0.8544 0.3805 -0.3539
vn 0.5172 -0.8286 -0.2142
vn 0.7699 0.5528 -0.3189
vn 0.6561 -0.7041 -0.2718
vn 0.6561 0.7041 -0.2718
vn 0.7699 -0.5528 -0.3189
vn 0.5172 0.8286 -0.2142
vn 0.8544 -0.3805 -0.3539
vn 0.3584 0.9217 -0.1484
vn 0.9063 -0.1939 -0.3754
vn 0.1857 0.9796 -0.0769
vn 0.9239 -0.0000 -0.3827
vn 0.1857 -0.9796 -0.0769
vn 0.5905 0.7041 -0.3945
vn 0.4654 0.8286 -0.3110
vn 0.7689 -0.3805 -0.5138
vn 0.3225 0.9217 -0.2155
vn 0.8157 -0.1939 -0.5450
vn 0.1671 0.9796 -0.1117
vn 0.8315 -0.0000 -0.5556
vn 0.1671 -0.9796 -0.1117
vn 0.8157 0.1939 -0.5450
vn 0.3225 -0.9217 -0.2155
vn 0.7689 0.3805 -0.5138
vn 0.4654 -0.8286 -0.3110
vn 0.6929 0.5528 -0.4630
vn 0.5905 -0.7041 -0.3945
vn 0.6929 -0.5528 -0.4630
vn 0.2743 -0.9217 -0.2743
vn 0.6539 0.3805 -0.6539
vn 0.3958 -0.8286 -0.3958
vn 0.5893 0.5528 -0.5893
vn 0.5021 -0.7041 -0.5021
vn 0.5021 0.7041 -0.5021
vn 0.5893 -0.5528 -0.5893
vn 0.3958 0.8286 -0.3958
vn 0.6539 -0.3805 -0.6539
vn 0.2743 0.9217 -0.2743
vn 0.6937 -0.1939 -0.6937
vn 0.1421 0.9796 -0.1421
vn 0.7071 -0.0000 -0.7071
vn 0.1421 -0.9796 -0.1421
vn 0.6937 0.1939 -0.6937
vn 0.5138 -0.3805 -0.7689
vn 0.2155 0.9217 -0.3225
vn 0.5450 -0.1939 -0.8157
vn 0.1117 0.9796 -0.1671
vn 0.5556 -0.0000 -0.8315
vn 0.1117 -0.9796 -0.1671
vn 0.5450 0.1939 -0.8157
vn 0.2155 -0.9217 -0.3225
vn 0.5138 0.3805 -0.7689
vn 0.3110 -0.8286 -0.4654
vn 0.4630 0.5528 -0.6929
vn 0.3945 -0.7041 -0.5905
vn 0.3945 0.7041 -0.5905
vn 0.4630 -0.5528 -0.6929
vn 0.3110 0.8286 -0.4654
vn 0.3539 0.3805 -0.8544
vn 0.2142 -0.8286 -0.5172
vn 0.3189 0.5528 -0.7699
vn 0.2718 -0.7041 -0.6561
vn 0.2718 0.7041 -0.6561
vn 0.3189 -0.5528 -0.7699
vn 0.2142 0.8286 -0.5172
vn 0.3539 -0.3805 -0.8544
vn 0.1484 0.9217 -0.3584
vn 0.3754 -0.1939 -0.9063
vn 0.0769 0.9796 -0.1857
vn 0.3827 -0.0000 -0.9239
vn 0.0769 -0.9796 -0.1857
vn 0.3754 0.1939 -0.9063
vn 0.1484 -0.9217 -0.3584
vn 0.1092 0.8286 -0.5490
vn 0.0757 0.9217 -0.3804
vn 0.1804 -0.3805 -0.9070
vn 0.1914 -0.1939 -0.9622
vn 0.0392 0.9796 -0.1971
vn 0.1951 -0.0000 -0.9808
vn 0.0392 -0.9796 -0.1971
vn 0.1914 0.1939 -0.9622
vn 0.0757 -0.9217 -0.3804
vn 0.1804 0.3805 -0.9070
vn 0.1092 -0.8286 -0.5490
vn 0.1626 0.5528 -0.8173
vn 0.1385 -0.7041 -0.6965
vn 0.1385 0.7041 -0.6965
vn 0.1626 -0.5528 -0.8173
vn -0.0000 0.3805 -0.9248
vn -0.0000 0.5528 -0.8333
vn -0.0000 -0.7041 -0.7101
vn -0.0000 0.7041 -0.7101
vn -0.0000 -0.5528 -0.8333
vn -0.0000 0.8286 -0.5598
vn -0.0000 -0.3805 -0.9248
vn -0.0000 0.9217 -0.3879
vn -0.0000 -0.1939 -0.9810
vn -0.0000 0.9796 -0.2010
vn -0.0000 -0.0000 -1.0000
vn -0.0000 -0.9796 -0.2010
vn -0.0000 0.1939 -0.9810
vn -0.0000 -0.9217 -0.3879
vn -0.0000 -0.8286 -0.5598
vn -0.0392 0.9796 -0.1971
vn -0.1914 -0.1939 -0.9622
vn -0.1951 -0.0000 -0.9808
vn -0.0392 -0.9796 -0.1971
vn -0.1914 0.1939 -0.9622
vn -0.0757 -0.9217 -0.3804
vn -0.1804 0.3805 -0.9070
vn -0.1092 -0.8286 -0.5490
vn -0.1626 0.5528 -0.8173
vn -0.1385 -0.7041 -0.6965
vn -0.1385 0.7041 -0.6965
vn -0.1626 -0.5528 -0.8173
vn -0.1092 0.8286 -0.5490
vn -0.1804 -0.3805 -0.9070
vn -0.0757 0.9217 -0.3804
vn -0.2718 -0.7041 -0.6561
vn -0.2718 0.7041 -0.6561
vn -0.3189 -0.5528 -0.7699
vn -0.2142 0.8286 -0.5172
vn -0.3539 -0.3805 -0.8544
vn -0.1484 0.9217 -0.3584
vn -0.3754 -0.1939 -0.9063
vn -0.0769 0.9796 -0.1857
vn -0.3827 -0.0000 -0.9239
vn -0.0769 -0.9796 -0.1857
vn -0.3754 0.1939 -0.9063
vn -0.1484 -0.9217 -0.3584
vn -0.3539 0.3805 -0.8544
vn -0.2142 -0.8286 -0.5172
vn -0.3189 0.5528 -0.7699
vn -0.5450 -0.1939 -0.8157
vn -0.5556 -0.0000 -0.8315
vn -0.1117 -0.9796 -0.1671
vn -0.1117 0.9796 -0.1671
vn -0.5450 0.1939 -0.8157
vn -0.2155 -0.9217 -0.3225
vn -0.5138 0.3805 -0.7689
vn -0.3110 -0.8286 -0.4654
vn -0.4630 0.5528 -0.6929
vn -0.3945 -0.7041 -0.5905
vn -0.3945 0.7041 -0.5905
vn -0.4630 -0.5528 -0.6929
vn -0.3110 0.8286 -0.4654
vn -0.5138 -0.3805 -0.7689
vn -0.2155 0.9217 -0.3225
vn -0.5021 0.7041 -0.5021
vn -0.5021 -0.7041 -0.5021
vn -0.5893 -0.5528 -0.5893
vn -0.3958 0.8286 -0.3958
vn -0.6539 -0.3805 -0.6539
vn -0.2743 0.9217 -0.2743
vn -0.6937 -0.1939 -0.6937
vn -0.1421 0.9796 -0.1421
vn -0.7071 -0.0000 -0.7071
vn -0.1421 -0.9796 -0.1421
vn -0.6937 0.1939 -0.6937
vn -0.2743 -0.9217 -0.2743
vn -0.6539 0.3805 -0.6539
vn -0.3958 -0.8286 -0.3958
vn -0.5893 0.5528 -0.5893
vn -0.1671 -0.9796 -0.1117
vn -0.1671 0.9796 -0.1117
vn -0.8157 0.1939 -0.5450
vn -0.3225 -0.9217 -0.2155
vn -0.7689 0.3805 -0.5138
vn -0.4654 -0.8286 -0.3110
vn -0.6929 0.5528 -0.4630
vn -0.5905 -0.7041 -0.3945
vn -0.5905 0.7041 -0.3945
vn -0.6929 -0.5528 -0.4630
vn -0.4654 0.8286 -0.3110
vn -0.7689 -0.3805 -0.5138
vn -0.3225 0.9217 -0.2155
vn -0.8157 -0.1939 -0.5450
vn -0.8315 -0.0000 -0.5556
vn -0.6561 -0.7041 -0.2718
vn -0.7699 -0.5528 -0.3189
vn -0.6561 0.7041 -0.2718
vn -0.5172 0.8286 -0.2142
vn -0.8544 -0.3805 -0.3539
vn -0.3584 0.9217 -0.1484
vn -0.9063 -0.1939 -0.3754
vn -0.1857 0.9796 -0.0769
vn -0.9239 -0.0000 -0.3827
vn -0.1857 -0.9796 -0.0769
vn -0.9063 0.1939 -0.3754
vn -0.3584 -0.9217 -0.1484
vn -0.8544 0.3805 -0.3539
vn -0.5172 -0.8286 -0.2142
vn -0.7699 0.5528 -0.3189
vn -0.9622 0.1939 -0.1914
vn -0.3804 -0.9217 -0.0757
vn -0.9070 0.3805 -0.1804
vn -0.5490 -0.8286 -0.1092
vn -0.8173 0.5528 -0.1626
vn -0.6965 -0.7041 -0.1385
vn -0.6965 0.7041 -0.1385
vn -0.8173 -0.5528 -0.1626
vn -0.5490 0.8286 -0.1092
vn -0.9070 -0.3805 -0.1804
vn -0.3804 0.9217 -0.0757
vn -0.9622 -0.1939 -0.1914
vn -0.1971 0.9796 -0.0392
vn -0.9808 -0.0000 -0.1951
vn -0.1971 -0.9796 -0.0392
vn -0.7101 0.7041 -0.0000
vn -0.5598 0.8286 -0.0000
vn -0.9248 -0.3805 -0.0000
vn -0.3879 0.9217 -0.0000
vn -0.9810 -0.1939 -0.0000
vn -0.2010 0.9796 -0.0000
vn -1.0000 -0.0000 -0.0000
vn -0.2010 -0.9796 -0.0000
vn -0.9810 0.1939 -0.0000
vn -0.3879 -0.9217 -0.0000
vn -0.9248 0.3805 -0.0000
vn -0.5598 -0.8286 -0.0000
vn -0.8333 0.5528 -0.0000
vn -0.7101 -0.7041 -0.0000
vn -0.8333 -0.5528 -0.0000
vn -0.9070 0.3805 0.1804
vn -0.3804 -0.9217 0.0757
vn -0.5490 -0.8286 0.1092
vn -0.8173 0.5528 0.1626
vn -0.6965 -0.7041 0.1385
vn -0.6965 0.7041 0.1385
vn -0.8173 -0.5528 0.1626
vn -0.5490 0.8286 0.1092
vn -0.9070 -0.3805 0.1804
vn -0.3804 0.9217 0.0757
vn -0.9622 -0.1939 0.1914
vn -0.1971 0.9796 0.0392
vn -0.9808 -0.0000 0.1951
vn -0.1971 -0.9796 0.0392
vn -0.9622 0.1939 0.1914
vn -0.3584 0.9217 0.1484
vn -0.8544 -0.3805 0.3539
vn -0.9063 -0.1939 0.3754
vn -0.1857 0.9796 0.0769
vn -0.9239 -0.0000 0.3827
vn -0.1857 -0.9796 0.0769
vn -0.9063 0.1939 0.3754
vn -0.3584 -0.9217 0.1484
vn -0.8544 0.3805 0.3539
vn -0.5172 -0.8286 0.2142
vn -0.7699 0.5528 0.3189
vn -0.6561 -0.7041 0.2718
vn -0.6561 0.7041 0.2718
vn -0.7699 -0.5528 0.3189
vn -0.5172 0.8286 0.2142
vn -0.3225 -0.9217 0.2155
vn -0.4654 -0.8286 0.3110
vn -0.7689 0.3805 0.5138
vn -0.6929 0.5528 0.4630
vn -0.5905 -0.7041 0.3945
vn -0.5905 0.7041 0.3945
vn -0.6929 -0.5528 0.4630
vn -0.4654 0.8286 0.3110
vn -0.7689 -0.3805 0.5138
vn -0.3225 0.9217 0.2155
vn -0.8157 -0.1939 0.5450
vn -0.1671 0.9796 0.1117
vn -0.8315 -0.0000 0.5556
vn -0.1671 -0.9796 0.1117
vn -0.8157 0.1939 0.5450
vn -0.6539 -0.3805 0.6539
vn -0.6937 -0.1939 0.6937
vn -0.1421 0.9796 0.1421
vn -0.7071 -0.0000 0.7071
vn -0.1421 -0.9796 0.1421
vn -0.6937 0.1939 0.6937
vn -0.2743 -0.9217 0.2743
vn -0.6539 0.3805 0.6539
vn -0.3958 -0.8286 0.3958
vn -0.5893 0.5528 0.5893
vn -0.5021 -0.7041 0.5021
vn -0.5021 0.7041 0.5021
vn -0.5893 -0.5528 0.5893
vn -0.3958 0.8286 0.3958
vn -0.2743 0.9217 0.2743
vn -0.5138 0.3805 0.7689
vn -0.4630 0.5528 0.6929
vn -0.3945 -0.7041 0.5905
vn -0.3945 0.7041 0.5905
vn -0.4630 -0.5528 0.6929
vn -0.3110 0.8286 0.4654
vn -0.5138 -0.3805 0.7689
vn -0.2155 0.9217 0.3225
vn -0.5450 -0.1939 0.8157
vn -0.1117 0.9796 0.1671
vn -0.5556 -0.0000 0.8315
vn -0.1117 -0.9796 0.1671
vn -0.5450 0.1939 0.8157
vn -0.2155 -0.9217 0.3225
vn -0.3110 -0.8286 0.4654
vn -0.0769 0.9796 0.1857
vn -0.3754 -0.1939 0.9063
vn -0.3827 -0.0000 0.9239
vn -0.0769 -0.9796 0.1857
vn -0.3754 0.1939 0.9063
vn -0.1484 -0.9217 0.3584
vn -0.3539 0.3805 0.8544
vn -0.2142 -0.8286 0.5172
vn -0.3189 0.5528 0.7699
vn -0.2718 -0.7041 0.6561
vn -0.2718 0.7041 0.6561
vn -0.3189 -0.5528 0.7699
vn -0.2142 0.8286 0.5172
vn -0.3539 -0.3805 0.8544
vn -0.1484 0.9217 0.3584
vn -0.1385 -0.7041 0.6965
vn -0.1385 0.7041 0.6965
vn -0.1626 -0.5528 0.8173
vn -0.1092 0.8286 0.5490
vn -0.1804 -0.3805 0.9070
vn -0.0757 0.9217 0.3804
vn -0.1914 -0.1939 0.9622
vn -0.0392 0.9796 0.1971
vn -0.1951 -0.0000 0.9808
vn -0.0392 -0.9796 0.1971
vn -0.1914 0.1939 0.9622
vn -0.0757 -0.9217 0.3804
vn -0.1804 0.3805 0.9070
vn -0.1092 -0.8286 0.5490
vn -0.1626 0.5528 0.8173
vt 0.750000 0.125000
vt 0.718750 0.062500
vt 0.750000 0.062500
vt 0.750000 0.562500
vt 0.718750 0.500000
vt 0.750000 0.500000
vt 0.750000 0.937500
vt 0.734375 1.000000
vt 0.718750 0.937500
vt 0.734375 0.000000
vt 0.718750 0.437500
vt 0.750000 0.437500
vt 0.750000 0.875000
vt 0.718750 0.875000
vt 0.718750 0.375000
vt 0.750000 0.375000
vt 0.750000 0.812500
vt 0.718750 0.812500
vt 0.718750 0.312500
vt 0.750000 0.312500
vt 0.750000 0.750000
vt 0.718750 0.750000
vt 0.750000 0.250000
vt 0.718750 0.250000
vt 0.718750 0.687500
vt 0.750000 0.687500
vt 0.718750 0.187500
vt 0.750000 0.187500
vt 0.750000 0.625000
vt 0.718750 0.625000
vt 0.718750 0.125000
vt 0.718750 0.562500
vt 0.687500 0.187500
vt 0.687500 0.125000
vt 0.687500 0.625000
vt 0.687500 0.562500
vt 0.687500 0.062500
vt 0.687500 0.500000
vt 0.703125 1.000000
vt 0.687500 0.937500
vt 0.703125 0.000000
vt 0.687500 0.437500
vt 0.687500 0.875000
vt 0.687500 0.375000
vt 0.687500 0.812500
vt 0.687500 0.312500
vt 0.687500 0.750000
vt 0.687500 0.250000
vt 0.687500 0.687500
vt 0.656250 0.812500
vt 0.656250 0.375000
vt 0.656250 0.312500
vt 0.656250 0.750000
vt 0.656250 0.250000
vt 0.656250 0.687500
vt 0.656250 0.187500
vt 0.656250 0.625000
vt 0.656250 0.125000
vt 0.656250 0.562500
vt 0.656250 0.062500
vt 0.656250 0.500000
vt 0.671875 1.000000
vt 0.656250 0.937500
vt 0.671875 0.000000
vt 0.656250 0.437500
vt 0.656250 0.875000
vt 0.625000 0.625000
vt 0.625000 0.562500
vt 0.625000 0.125000
vt 0.625000 0.062500
vt 0.625000 0.500000
vt 0.640625 1.000000
vt 0.625000 0.937500
vt 0.640625 0.000000
vt 0.625000 0.437500
vt 0.625000 0.875000
vt 0.625000 0.375000
vt 0.625000 0.812500
vt 0.625000 0.312500
vt 0.625000 0.750000
vt 0.625000 0.250000
vt 0.625000 0.687500
vt 0.625000 0.187500
vt 0.593750 0.375000
vt 0.593750 0.312500
vt 0.593750 0.750000
vt 0.593750 0.250000
vt 0.593750 0.687500
vt 0.593750 0.187500
vt 0.593750 0.625000
vt 0.593750 0.125000
vt 0.593750 0.562500
vt 0.593750 0.062500
vt 0.593750 0.500000
vt 0.609375 1.000000
vt 0.593750 0.937500
vt 0.609375 0.000000
vt 0.593750 0.437500
vt 0.593750 0.875000
vt 0.593750 0.812500
vt 0.562500 0.125000
vt 0.562500 0.062500
vt 0.562500 0.562500
vt 0.562500 0.500000
vt 0.578125 1.000000
vt 0.562500 0.937500
vt 0.578125 0.000000
vt 0.562500 0.437500
vt 0.562500 0.875000
vt 0.562500 0.375000
vt 0.562500 0.812500
vt 0.562500 0.312500
vt 0.562500 0.750000
vt 0.562500 0.250000
vt 0.562500 0.687500
vt 0.562500 0.187500
vt 0.562500 0.625000
vt 0.531250 0.250000
vt 0.531250 0.750000
vt 0.531250 0.687500
vt 0.531250 0.187500
vt 0.531250 0.625000
vt 0.531250 0.125000
vt 0.531250 0.562500
vt 0.531250 0.062500
vt 0.531250 0.500000
vt 0.546875 1.000000
vt 0.531250 0.937500
vt 0.546875 0.000000
vt 0.531250 0.437500
vt 0.531250 0.875000
vt 0.531250 0.375000
vt 0.531250 0.812500
vt 0.531250 0.312500
vt 0.515625 1.000000
vt 0.500000 0.937500
vt 0.515625 0.000000
vt 0.500000 0.062500
vt 0.500000 0.437500
vt 0.500000 0.875000
vt 0.500000 0.375000
vt 0.500000 0.812500
vt 0.500000 0.312500
vt 0.500000 0.750000
vt 0.500000 0.250000
vt 0.500000 0.687500
vt 0.500000 0.187500
vt 0.500000 0.625000
vt 0.500000 0.125000
vt 0.500000 0.562500
vt 0.500000 0.500000
vt 0.468750 0.750000
vt 0.468750 0.687500
vt 0.468750 0.250000
vt 0.468750 0.187500
vt 0.468750 0.625000
vt 0.468750 0.125000
vt 0.468750 0.562500
vt 0.468750 0.062500
vt 0.468750 0.500000
vt 0.484375 1.000000
vt 0.468750 0.937500
vt 0.484375 0.000000
vt 0.468750 0.437500
vt 0.468750 0.875000
vt 0.468750 0.375000
vt 0.468750 0.812500
vt 0.468750 0.312500
vt 0.437500 0.437500
vt 0.437500 0.875000
vt 0.437500 0.375000
vt 0.437500 0.812500
vt 0.437500 0.312500
vt 0.437500 0.750000
vt 0.437500 0.250000
vt 0.437500 0.687500
vt 0.437500 0.187500
vt 0.437500 0.625000
vt 0.437500 0.125000
vt 0.437500 0.562500
vt 0.437500 0.062500
vt 0.437500 0.500000
vt 0.453125 1.000000
vt 0.437500 0.937500
vt 0.453125 0.000000
vt 0.406250 0.250000
vt 0.406250 0.187500
vt 0.406250 0.625000
vt 0.406250 0.125000
vt 0.406250 0.562500
vt 0.406250 0.062500
vt 0.406250 0.500000
vt 0.421875 1.000000
vt 0.406250 0.937500
vt 0.421875 0.000000
vt 0.406250 0.437500
vt 0.406250 0.875000
vt 0.406250 0.375000
vt 0.406250 0.812500
vt 0.406250 0.312500
vt 0.406250 0.750000
vt 0.406250 0.687500
vt 0.375000 0.875000
vt 0.375000 0.375000
vt 0.375000 0.812500
vt 0.375000 0.312500
vt 0.375000 0.750000
vt 0.375000 0.250000
vt 0.375000 0.687500
vt 0.375000 0.187500
vt 0.375000 0.625000
vt 0.375000 0.125000
vt 0.375000 0.562500
vt 0.375000 0.062500
vt 0.375000 0.500000
vt 0.390625 1.000000
vt 0.375000 0.937500
vt 0.390625 0.000000
vt 0.375000 0.437500
vt 0.343750 0.625000
vt 0.343750 0.125000
vt 0.343750 0.562500
vt 0.343750 0.062500
vt 0.343750 0.500000
vt 0.359375 1.000000
vt 0.343750 0.937500
vt 0.359375 0.000000
vt 0.343750 0.437500
vt 0.343750 0.875000
vt 0.343750 0.375000
vt 0.343750 0.812500
vt 0.343750 0.312500
vt 0.343750 0.750000
vt 0.343750 0.250000
vt 0.343750 0.687500
vt 0.343750 0.187500
vt 0.312500 0.375000
vt 0.312500 0.812500
vt 0.312500 0.312500
vt 0.312500 0.750000
vt 0.312500 0.250000
vt 0.312500 0.687500
vt 0.312500 0.187500
vt 0.312500 0.625000
vt 0.312500 0.125000
vt 0.312500 0.562500
vt 0.312500 0.062500
vt 0.312500 0.500000
vt 0.328125 1.000000
vt 0.312500 0.937500
vt 0.328125 0.000000
vt 0.312500 0.437500
vt 0.312500 0.875000
vt 0.281250 0.187500
vt 0.281250 0.125000
vt 0.281250 0.625000
vt 0.281250 0.562500
vt 0.281250 0.062500
vt 0.281250 0.500000
vt 0.296875 1.000000
vt 0.281250 0.937500
vt 0.296875 0.000000
vt 0.281250 0.437500
vt 0.281250 0.875000
vt 0.281250 0.375000
vt 0.281250 0.812500
vt 0.281250 0.312500
vt 0.281250 0.750000
vt 0.281250 0.250000
vt 0.281250 0.687500
vt 0.250000 0.375000
vt 0.250000 0.312500
vt 0.250000 0.750000
vt 0.250000 0.250000
vt 0.250000 0.687500
vt 0.250000 0.187500
vt 0.250000 0.625000
vt 0.250000 0.125000
vt 0.250000 0.562500
vt 0.250000 0.062500
vt 0.250000 0.500000
vt 0.265625 1.000000
vt 0.250000 0.937500
vt 0.265625 0.000000
vt 0.250000 0.437500
vt 0.250000 0.875000
vt 0.250000 0.812500
vt 0.218750 0.062500
vt 0.218750 0.562500
vt 0.218750 0.500000
vt 0.234375 1.000000
vt 0.218750 0.937500
vt 0.234375 0.000000
vt 0.218750 0.437500
vt 0.218750 0.875000
vt 0.218750 0.375000
vt 0.218750 0.812500
vt 0.218750 0.312500
vt 0.218750 0.750000
vt 0.218750 0.250000
vt 0.218750 0.687500
vt 0.218750 0.187500
vt 0.218750 0.625000
vt 0.218750 0.125000
vt 0.187500 0.750000
vt 0.187500 0.250000
vt 0.187500 0.687500
vt 0.187500 0.187500
vt 0.187500 0.625000
vt 0.187500 0.125000
vt 0.187500 0.562500
vt 0.187500 0.062500
vt 0.187500 0.500000
vt 0.203125 1.000000
vt 0.187500 0.937500
vt 0.203125 0.000000
vt 0.187500 0.437500
vt 0.187500 0.875000
vt 0.187500 0.375000
vt 0.187500 0.812500
vt 0.187500 0.312500
vt 0.156250 0.562500
vt 0.156250 0.500000
vt 0.171875 1.000000
vt 0.156250 0.937500
vt 0.171875 0.000000
vt 0.156250 0.062500
vt 0.156250 0.437500
vt 0.156250 0.875000
vt 0.156250 0.375000
vt 0.156250 0.812500
vt 0.156250 0.312500
vt 0.156250 0.750000
vt 0.156250 0.250000
vt 0.156250 0.687500
vt 0.156250 0.187500
vt 0.156250 0.625000
vt 0.156250 0.125000
vt 0.125000 0.250000
vt 0.125000 0.750000
vt 0.125000 0.687500
vt 0.125000 0.187500
vt 0.125000 0.625000
vt 0.125000 0.125000
vt 0.125000 0.562500
vt 0.125000 0.062500
vt 0.125000 0.500000
vt 0.140625 1.000000
vt 0.125000 0.937500
vt 0.140625 0.000000
vt 0.125000 0.437500
vt 0.125000 0.875000
vt 0.125000 0.375000
vt 0.125000 0.812500
vt 0.125000 0.312500
vt 0.109375 1.000000
vt 0.093750 0.937500
vt 0.109375 0.000000
vt 0.093750 0.062500
vt 0.093750 0.437500
vt 0.093750 0.875000
vt 0.093750 0.375000
vt 0.093750 0.812500
vt 0.093750 0.312500
vt 0.093750 0.750000
vt 0.093750 0.250000
vt 0.093750 0.687500
vt 0.093750 0.187500
vt 0.093750 0.625000
vt 0.093750 0.125000
vt 0.093750 0.562500
vt 0.093750 0.500000
vt 0.062500 0.750000
vt 0.062500 0.687500
vt 0.062500 0.250000
vt 0.062500 0.187500
vt 0.062500 0.625000
vt 0.062500 0.125000
vt 0.062500 0.562500
vt 0.062500 0.062500
vt 0.062500 0.500000
vt 0.078125 1.000000
vt 0.062500 0.937500
vt 0.078125 0.000000
vt 0.062500 0.437500
vt 0.062500 0.875000
vt 0.062500 0.375000
vt 0.062500 0.812500
vt 0.062500 0.312500
vt 0.031250 0.437500
vt 0.031250 0.875000
vt 0.031250 0.375000
vt 0.031250 0.812500
vt 0.031250 0.312500
vt 0.031250 0.750000
vt 0.031250 0.250000
vt 0.031250 0.687500
vt 0.031250 0.187500
vt 0.031250 0.625000
vt 0.031250 0.125000
vt 0.031250 0.562500
vt 0.031250 0.062500
vt 0.031250 0.500000
vt 0.046875 1.000000
vt 0.031250 0.937500
vt 0.046875 0.000000
vt 0.000000 0.250000
vt 0.000000 0.187500
vt 0.000000 0.625000
vt 0.000000 0.125000
vt 0.000000 0.562500
vt 0.000000 0.062500
vt 0.000000 0.500000
vt 0.015625 1.000000
vt 0.000000 0.937500
vt 0.015625 0.000000
vt 0.000000 0.437500
vt 0.000000 0.875000
vt 0.000000 0.375000
vt 0.000000 0.812500
vt 0.000000 0.312500
vt 0.000000 0.750000
vt 0.000000 0.687500
vt 1.000000 0.437500
vt 0.968750 0.375000
vt 1.000000 0.375000
vt 1.000000 0.812500
vt 0.968750 0.875000
vt 0.968750 0.812500
vt 1.000000 0.312500
vt 0.968750 0.312500
vt 0.968750 0.750000
vt 1.000000 0.750000
vt 0.968750 0.250000
vt 1.000000 0.250000
vt 1.000000 0.687500
vt 0.968750 0.687500
vt 1.000000 0.187500
vt 0.968750 0.187500
vt 0.968750 0.625000
vt 1.000000 0.625000
vt 0.968750 0.125000
vt 1.000000 0.125000
vt 1.000000 0.562500
vt 0.968750 0.562500
vt 0.968750 0.062500
vt 1.000000 0.062500
vt 1.000000 0.500000
vt 0.968750 0.500000
vt 1.000000 0.937500
vt 0.984375 1.000000
vt 0.968750 0.937500
vt 0.984375 0.000000
vt 0.968750 0.437500
vt 1.000000 0.875000
vt 0.937500 0.125000
vt 0.937500 0.625000
vt 0.937500 0.562500
vt 0.937500 0.062500
vt 0.937500 0.500000
vt 0.953125 1.000000
vt 0.937500 0.937500
vt 0.953125 0.000000
vt 0.937500 0.437500
vt 0.937500 0.875000
vt 0.937500 0.375000
vt 0.937500 0.812500
vt 0.937500 0.312500
vt 0.937500 0.750000
vt 0.937500 0.250000
vt 0.937500 0.687500
vt 0.937500 0.187500
vt 0.906250 0.875000
vt 0.906250 0.812500
vt 0.906250 0.375000
vt 0.906250 0.312500
vt 0.906250 0.750000
vt 0.906250 0.250000
vt 0.906250 0.687500
vt 0.906250 0.187500
vt 0.906250 0.625000
vt 0.906250 0.125000
vt 0.906250 0.562500
vt 0.906250 0.062500
vt 0.906250 0.500000
vt 0.921875 1.000000
vt 0.906250 0.937500
vt 0.921875 0.000000
vt 0.906250 0.437500
vt 0.875000 0.625000
vt 0.875000 0.562500
vt 0.875000 0.062500
vt 0.875000 0.500000
vt 0.890625 1.000000
vt 0.875000 0.937500
vt 0.890625 0.000000
vt 0.875000 0.437500
vt 0.875000 0.875000
vt 0.875000 0.375000
vt 0.875000 0.812500
vt 0.875000 0.312500
vt 0.875000 0.750000
vt 0.875000 0.250000
vt 0.875000 0.687500
vt 0.875000 0.187500
vt 0.875000 0.125000
vt 0.843750 0.375000
vt 0.843750 0.312500
vt 0.843750 0.750000
vt 0.843750 0.250000
vt 0.843750 0.687500
vt 0.843750 0.187500
vt 0.843750 0.625000
vt 0.843750 0.125000
vt 0.843750 0.562500
vt 0.843750 0.062500
vt 0.843750 0.500000
vt 0.859375 1.000000
vt 0.843750 0.937500
vt 0.859375 0.000000
vt 0.843750 0.437500
vt 0.843750 0.875000
vt 0.843750 0.812500
vt 0.812500 0.062500
vt 0.812500 0.562500
vt 0.812500 0.500000
vt 0.828125 1.000000
vt 0.812500 0.937500
vt 0.828125 0.000000
vt 0.812500 0.437500
vt 0.812500 0.875000
vt 0.812500 0.375000
vt 0.812500 0.812500
vt 0.812500 0.312500
vt 0.812500 0.750000
vt 0.812500 0.250000
vt 0.812500 0.687500
vt 0.812500 0.187500
vt 0.812500 0.625000
vt 0.812500 0.125000
vt 0.781250 0.750000
vt 0.781250 0.250000
vt 0.781250 0.687500
vt 0.781250 0.187500
vt 0.781250 0.625000
vt 0.781250 0.125000
vt 0.781250 0.562500
vt 0.781250 0.062500
vt 0.781250 0.500000
vt 0.796875 1.000000
vt 0.781250 0.937500
vt 0.796875 0.000000
vt 0.781250 0.437500
vt 0.781250 0.875000
vt 0.781250 0.375000
vt 0.781250 0.812500
vt 0.781250 0.312500
vt 0.765625 1.000000
vt 0.765625 0.000000
s 1
usemtl マテリアル.002
f 481/1/1 21/2/2 482/3/3
f 3/4/4 14/5/5 4/6/6
f 474/7/7 82/8/8 7/9/9
f 308/10/10 482/3/3 21/2/2
f 4/6/6 15/11/11 5/12/12
f 475/13/13 7/9/9 8/14/14
f 5/12/12 16/15/15 478/16/16
f 1/17/17 8/14/14 9/18/18
f 478/16/16 17/19/19 6/20/20
f 476/21/21 9/18/18 10/22/22
f 479/23/23 17/19/19 18/24/24
f 476/21/21 11/25/25 2/26/26
f 479/23/23 19/27/27 480/28/28
f 477/29/29 11/25/25 12/30/30
f 480/28/28 20/31/31 481/1/1
f 3/4/4 12/30/30 13/32/32
f 20/31/31 34/33/33 35/34/34
f 13/32/32 27/35/35 28/36/36
f 20/31/31 36/37/37 21/2/2
f 13/32/32 29/38/38 14/5/5
f 7/9/9 82/39/8 22/40/39
f 308/41/10 21/2/2 36/37/37
f 14/5/5 30/42/40 15/11/11
f 8/14/14 22/40/39 23/43/41
f 15/11/11 31/44/42 16/15/15
f 8/14/14 24/45/43 9/18/18
f 17/19/19 31/44/42 32/46/44
f 9/18/18 25/47/45 10/22/22
f 18/24/24 32/46/44 33/48/46
f 10/22/22 26/49/47 11/25/25
f 19/27/27 33/48/46 34/33/33
f 11/25/25 27/35/35 12/30/30
f 23/43/41 39/50/48 24/45/43
f 32/46/44 46/51/49 47/52/50
f 24/45/43 40/53/51 25/47/45
f 33/48/46 47/52/50 48/54/52
f 25/47/45 41/55/53 26/49/47
f 34/33/33 48/54/52 49/56/54
f 26/49/47 42/57/55 27/35/35
f 35/34/34 49/56/54 50/58/56
f 28/36/36 42/57/55 43/59/57
f 36/37/37 50/58/56 51/60/58
f 29/38/38 43/59/57 44/61/59
f 22/40/39 82/62/8 37/63/60
f 308/64/10 36/37/37 51/60/58
f 29/38/38 45/65/61 30/42/40
f 22/40/39 38/66/62 23/43/41
f 30/42/40 46/51/49 31/44/42
f 43/59/57 57/67/63 58/68/64
f 51/60/58 65/69/65 66/70/66
f 44/61/59 58/68/64 59/71/67
f 37/63/60 82/72/8 52/73/68
f 308/74/10 51/60/58 66/70/66
f 44/61/59 60/75/69 45/65/61
f 37/63/60 53/76/70 38/66/62
f 45/65/61 61/77/71 46/51/49
f 38/66/62 54/78/72 39/50/48
f 47/52/50 61/77/71 62/79/73
f 39/50/48 55/80/74 40/53/51
f 47/52/50 63/81/75 48/54/52
f 41/55/53 55/80/74 56/82/76
f 49/56/54 63/81/75 64/83/77
f 41/55/53 57/67/63 42/57/55
f 50/58/56 64/83/77 65/69/65
f 62/79/73 76/84/78 77/85/79
f 54/78/72 70/86/80 55/80/74
f 62/79/73 78/87/81 63/81/75
f 56/82/76 70/86/80 71/88/82
f 64/83/77 78/87/81 79/89/83
f 56/82/76 72/90/84 57/67/63
f 64/83/77 80/91/85 65/69/65
f 58/68/64 72/90/84 73/92/86
f 65/69/65 81/93/87 66/70/66
f 59/71/67 73/92/86 74/94/88
f 52/73/68 82/95/8 67/96/89
f 308/97/10 66/70/66 81/93/87
f 59/71/67 75/98/90 60/75/69
f 53/76/70 67/96/89 68/99/91
f 60/75/69 76/84/78 61/77/71
f 54/78/72 68/99/91 69/100/92
f 81/93/87 96/101/93 97/102/94
f 74/94/88 89/103/95 90/104/96
f 67/96/89 82/105/8 83/106/97
f 308/107/10 81/93/87 97/102/94
f 74/94/88 91/108/98 75/98/90
f 67/96/89 84/109/99 68/99/91
f 75/98/90 92/110/100 76/84/78
f 68/99/91 85/111/101 69/100/92
f 77/85/79 92/110/100 93/112/102
f 69/100/92 86/113/103 70/86/80
f 77/85/79 94/114/104 78/87/81
f 71/88/82 86/113/103 87/115/105
f 79/89/83 94/114/104 95/116/106
f 71/88/82 88/117/107 72/90/84
f 80/91/85 95/116/106 96/101/93
f 73/92/86 88/117/107 89/103/95
f 93/112/102 109/118/108 94/114/104
f 87/115/105 101/119/109 102/120/110
f 95/116/106 109/118/108 110/121/111
f 87/115/105 103/122/112 88/117/107
f 95/116/106 111/123/113 96/101/93
f 89/103/95 103/122/112 104/124/114
f 96/101/93 112/125/115 97/102/94
f 90/104/96 104/124/114 105/126/116
f 83/106/97 82/127/8 98/128/117
f 308/129/10 97/102/94 112/125/115
f 90/104/96 106/130/118 91/108/98
f 83/106/97 99/131/119 84/109/99
f 91/108/98 107/132/120 92/110/100
f 85/111/101 99/131/119 100/133/121
f 93/112/102 107/132/120 108/134/122
f 85/111/101 101/119/109 86/113/103
f 98/128/117 82/135/8 113/136/123
f 308/137/10 112/125/115 127/138/124
f 105/126/116 121/139/125 106/130/118
f 98/128/117 114/140/126 99/131/119
f 106/130/118 122/141/127 107/132/120
f 99/131/119 115/142/128 100/133/121
f 108/134/122 122/141/127 123/143/129
f 100/133/121 116/144/130 101/119/109
f 108/134/122 124/145/131 109/118/108
f 102/120/110 116/144/130 117/146/132
f 110/121/111 124/145/131 125/147/133
f 102/120/110 118/148/134 103/122/112
f 111/123/113 125/147/133 126/149/135
f 104/124/114 118/148/134 119/150/136
f 111/123/113 127/138/124 112/125/115
f 105/126/116 119/150/136 120/151/137
f 117/146/132 131/152/138 132/153/139
f 125/147/133 139/154/140 140/155/141
f 117/146/132 133/156/142 118/148/134
f 125/147/133 141/157/143 126/149/135
f 119/150/136 133/156/142 134/158/144
f 126/149/135 142/159/145 127/138/124
f 120/151/137 134/158/144 135/160/146
f 113/136/123 82/161/8 128/162/147
f 308/163/10 127/138/124 142/159/145
f 120/151/137 136/164/148 121/139/125
f 114/140/126 128/162/147 129/165/149
f 121/139/125 137/166/150 122/141/127
f 115/142/128 129/165/149 130/167/151
f 123/143/129 137/166/150 138/168/152
f 115/142/128 131/152/138 116/144/130
f 123/143/129 139/154/140 124/145/131
f 135/160/146 151/169/153 136/164/148
f 128/162/147 144/170/154 129/165/149
f 136/164/148 152/171/155 137/166/150
f 129/165/149 145/172/156 130/167/151
f 138/168/152 152/171/155 153/173/157
f 130/167/151 146/174/158 131/152/138
f 138/168/152 154/175/159 139/154/140
f 132/153/139 146/174/158 147/176/160
f 140/155/141 154/175/159 155/177/161
f 132/153/139 148/178/162 133/156/142
f 141/157/143 155/177/161 156/179/163
f 134/158/144 148/178/162 149/180/164
f 141/157/143 157/181/165 142/159/145
f 135/160/146 149/180/164 150/182/166
f 128/162/147 82/183/8 143/184/167
f 308/185/10 142/159/145 157/181/165
f 155/177/161 169/186/168 170/187/169
f 147/176/160 163/188/170 148/178/162
f 156/179/163 170/187/169 171/189/171
f 149/180/164 163/188/170 164/190/172
f 157/181/165 171/189/171 172/191/173
f 150/182/166 164/190/172 165/192/174
f 143/184/167 82/193/8 158/194/175
f 308/195/10 157/181/165 172/191/173
f 150/182/166 166/196/176 151/169/153
f 143/184/167 159/197/177 144/170/154
f 151/169/153 167/198/178 152/171/155
f 144/170/154 160/199/179 145/172/156
f 153/173/157 167/198/178 168/200/180
f 145/172/156 161/201/181 146/174/158
f 153/173/157 169/186/168 154/175/159
f 147/176/160 161/201/181 162/202/182
f 158/194/175 174/203/183 159/197/177
f 166/196/176 182/204/184 167/198/178
f 159/197/177 175/205/185 160/199/179
f 168/200/180 182/204/184 183/206/186
f 160/199/179 176/207/187 161/201/181
f 168/200/180 184/208/188 169/186/168
f 162/202/182 176/207/187 177/209/189
f 170/187/169 184/208/188 185/210/190
f 162/202/182 178/211/191 163/188/170
f 171/189/171 185/210/190 186/212/192
f 164/190/172 178/211/191 179/213/193
f 172/191/173 186/212/192 187/214/194
f 165/192/174 179/213/193 180/215/195
f 158/194/175 82/216/8 173/217/196
f 308/218/10 172/191/173 187/214/194
f 165/192/174 181/219/197 166/196/176
f 177/209/189 193/220/198 178/211/191
f 185/210/190 201/221/199 186/212/192
f 179/213/193 193/220/198 194/222/200
f 186/212/192 202/223/201 187/214/194
f 180/215/195 194/222/200 195/224/202
f 173/217/196 82/225/8 188/226/203
f 308/227/10 187/214/194 202/223/201
f 180/215/195 196/228/204 181/219/197
f 174/203/183 188/226/203 189/229/205
f 181/219/197 197/230/206 182/204/184
f 175/205/185 189/229/205 190/231/207
f 183/206/186 197/230/206 198/232/208
f 175/205/185 191/233/209 176/207/187
f 183/206/186 199/234/210 184/208/188
f 177/209/189 191/233/209 192/235/211
f 185/210/190 199/234/210 200/236/212
f 196/228/204 212/237/213 197/230/206
f 189/229/205 205/238/214 190/231/207
f 198/232/208 212/237/213 213/239/215
f 190/231/207 206/240/216 191/233/209
f 198/232/208 214/241/217 199/234/210
f 192/235/211 206/240/216 207/242/218
f 200/236/212 214/241/217 215/243/219
f 192/235/211 208/244/220 193/220/198
f 201/221/199 215/243/219 216/245/221
f 194/222/200 208/244/220 209/246/222
f 202/223/201 216/245/221 217/247/223
f 195/224/202 209/246/222 210/248/224
f 188/226/203 82/249/8 203/250/225
f 308/251/10 202/223/201 217/247/223
f 195/224/202 211/252/226 196/228/204
f 188/226/203 204/253/227 189/229/205
f 216/245/221 230/254/228 231/255/229
f 209/246/222 223/256/230 224/257/231
f 217/247/223 231/255/229 232/258/232
f 210/248/224 224/257/231 225/259/233
f 203/250/225 82/260/8 218/261/234
f 308/262/10 217/247/223 232/258/232
f 210/248/224 226/263/235 211/252/226
f 203/250/225 219/264/236 204/253/227
f 211/252/226 227/265/237 212/237/213
f 204/253/227 220/266/238 205/238/214
f 213/239/215 227/265/237 228/267/239
f 205/238/214 221/268/240 206/240/216
f 213/239/215 229/269/241 214/241/217
f 207/242/218 221/268/240 222/270/242
f 215/243/219 229/269/241 230/254/228
f 207/242/218 223/256/230 208/244/220
f 228/267/239 242/271/243 243/272/244
f 220/266/238 236/273/245 221/268/240
f 228/267/239 244/274/246 229/269/241
f 222/270/242 236/273/245 237/275/247
f 230/254/228 244/274/246 245/276/248
f 222/270/242 238/277/249 223/256/230
f 230/254/228 246/278/250 231/255/229
f 224/257/231 238/277/249 239/279/251
f 231/255/229 247/280/252 232/258/232
f 225/259/233 239/279/251 240/281/253
f 218/261/234 82/282/8 233/283/254
f 308/284/10 232/258/232 247/280/252
f 225/259/233 241/285/255 226/263/235
f 219/264/236 233/283/254 234/286/256
f 226/263/235 242/271/243 227/265/237
f 219/264/236 235/287/257 220/266/238
f 246/278/250 262/288/258 247/280/252
f 240/281/253 254/289/259 255/290/260
f 233/283/254 82/291/8 248/292/261
f 308/293/10 247/280/252 262/288/258
f 240/281/253 256/294/262 241/285/255
f 234/286/256 248/292/261 249/295/263
f 241/285/255 257/296/264 242/271/243
f 235/287/257 249/295/263 250/297/265
f 243/272/244 257/296/264 258/298/266
f 235/287/257 251/299/267 236/273/245
f 243/272/244 259/300/268 244/274/246
f 237/275/247 251/299/267 252/301/269
f 245/276/248 259/300/268 260/302/270
f 237/275/247 253/303/271 238/277/249
f 245/276/248 261/304/272 246/278/250
f 239/279/251 253/303/271 254/289/259
f 250/297/265 266/305/273 251/299/267
f 258/298/266 274/306/274 259/300/268
f 252/301/269 266/305/273 267/307/275
f 260/302/270 274/306/274 275/308/276
f 252/301/269 268/309/277 253/303/271
f 261/304/272 275/308/276 276/310/278
f 254/289/259 268/309/277 269/311/279
f 261/304/272 277/312/280 262/288/258
f 255/290/260 269/311/279 270/313/281
f 248/292/261 82/314/8 263/315/282
f 308/316/10 262/288/258 277/312/280
f 255/290/260 271/317/283 256/294/262
f 249/295/263 263/315/282 264/318/284
f 256/294/262 272/319/285 257/296/264
f 249/295/263 265/320/286 250/297/265
f 258/298/266 272/319/285 273/321/287
f 270/313/281 284/322/288 285/323/289
f 263/315/282 82/324/8 278/325/290
f 308/326/10 277/312/280 292/327/291
f 270/313/281 286/328/292 271/317/283
f 263/315/282 279/329/293 264/318/284
f 271/317/283 287/330/294 272/319/285
f 264/318/284 280/331/295 265/320/286
f 273/321/287 287/330/294 288/332/296
f 265/320/286 281/333/297 266/305/273
f 273/321/287 289/334/298 274/306/274
f 267/307/275 281/333/297 282/335/299
f 275/308/276 289/334/298 290/336/300
f 267/307/275 283/337/301 268/309/277
f 275/308/276 291/338/302 276/310/278
f 269/311/279 283/337/301 284/322/288
f 276/310/278 292/327/291 277/312/280
f 288/332/296 304/339/303 289/334/298
f 282/335/299 296/340/304 297/341/305
f 290/336/300 304/339/303 305/342/306
f 282/335/299 298/343/307 283/337/301
f 290/336/300 306/344/308 291/338/302
f 284/322/288 298/343/307 299/345/309
f 292/327/291 306/344/308 307/346/310
f 285/323/289 299/345/309 300/347/311
f 278/325/290 82/348/8 293/349/312
f 308/350/10 292/327/291 307/346/310
f 285/323/289 301/351/313 286/328/292
f 278/325/290 294/352/314 279/329/293
f 286/328/292 302/353/315 287/330/294
f 280/331/295 294/352/314 295/354/316
f 288/332/296 302/353/315 303/355/317
f 280/331/295 296/340/304 281/333/297
f 293/349/312 82/356/8 309/357/318
f 308/358/10 307/346/310 323/359/319
f 300/347/311 317/360/320 301/351/313
f 294/352/314 309/357/318 310/361/321
f 301/351/313 318/362/322 302/353/315
f 295/354/316 310/361/321 311/363/323
f 303/355/317 318/362/322 319/364/324
f 295/354/316 312/365/325 296/340/304
f 303/355/317 320/366/326 304/339/303
f 297/341/305 312/365/325 313/367/327
f 305/342/306 320/366/326 321/368/328
f 297/341/305 314/369/329 298/343/307
f 305/342/306 322/370/330 306/344/308
f 299/345/309 314/369/329 315/371/331
f 306/344/308 323/359/319 307/346/310
f 300/347/311 315/371/331 316/372/332
f 313/367/327 327/373/333 328/374/334
f 321/368/328 335/375/335 336/376/336
f 313/367/327 329/377/337 314/369/329
f 321/368/328 337/378/338 322/370/330
f 315/371/331 329/377/337 330/379/339
f 323/359/319 337/378/338 338/380/340
f 316/372/332 330/379/339 331/381/341
f 309/357/318 82/382/8 324/383/342
f 308/384/10 323/359/319 338/380/340
f 316/372/332 332/385/343 317/360/320
f 309/357/318 325/386/344 310/361/321
f 317/360/320 333/387/345 318/362/322
f 310/361/321 326/388/346 311/363/323
f 319/364/324 333/387/345 334/389/347
f 311/363/323 327/373/333 312/365/325
f 319/364/324 335/375/335 320/366/326
f 331/381/341 347/390/348 332/385/343
f 324/383/342 340/391/349 325/386/344
f 332/385/343 348/392/350 333/387/345
f 326/388/346 340/391/349 341/393/351
f 334/389/347 348/392/350 349/394/352
f 326/388/346 342/395/353 327/373/333
f 334/389/347 350/396/354 335/375/335
f 328/374/334 342/395/353 343/397/355
f 336/376/336 350/396/354 351/398/356
f 328/374/334 344/399/357 329/377/337
f 336/376/336 352/400/358 337/378/338
f 330/379/339 344/399/357 345/401/359
f 338/380/340 352/400/358 353/402/360
f 331/381/341 345/401/359 346/403/361
f 324/383/342 82/404/8 339/405/362
f 308/406/10 338/380/340 353/402/360
f 351/398/356 365/407/363 366/408/364
f 343/397/355 359/409/365 344/399/357
f 351/398/356 367/410/366 352/400/358
f 345/401/359 359/409/365 360/411/367
f 353/402/360 367/410/366 368/412/368
f 346/403/361 360/411/367 361/413/369
f 339/405/362 82/414/8 354/415/370
f 308/416/10 353/402/360 368/412/368
f 346/403/361 362/417/371 347/390/348
f 339/405/362 355/418/372 340/391/349
f 347/390/348 363/419/373 348/392/350
f 341/393/351 355/418/372 356/420/374
f 349/394/352 363/419/373 364/421/375
f 341/393/351 357/422/376 342/395/353
f 349/394/352 365/407/363 350/396/354
f 343/397/355 357/422/376 358/423/377
f 362/424/371 378/425/378 363/426/373
f 356/427/374 370/428/379 371/429/380
f 364/430/375 378/425/378 379/431/381
f 356/427/374 372/432/382 357/433/376
f 364/430/375 380/434/383 365/435/363
f 358/436/377 372/432/382 373/437/384
f 366/438/364 380/434/383 381/439/385
f 358/436/377 374/440/386 359/441/365
f 366/438/364 382/442/387 367/443/366
f 360/444/367 374/440/386 375/445/388
f 367/443/366 383/446/389 368/447/368
f 361/448/369 375/445/388 376/449/390
f 354/450/370 82/451/8 369/452/391
f 308/453/10 368/447/368 383/446/389
f 361/448/369 377/454/392 362/424/371
f 355/455/372 369/452/391 370/428/379
f 381/439/385 397/456/393 382/442/387
f 375/445/388 389/457/394 390/458/395
f 382/442/387 398/459/396 383/446/389
f 376/449/390 390/458/395 391/460/397
f 369/452/391 82/461/8 384/462/398
f 308/463/10 383/446/389 398/459/396
f 376/449/390 392/464/399 377/454/392
f 370/428/379 384/462/398 385/465/400
f 377/454/392 393/466/401 378/425/378
f 371/429/380 385/465/400 386/467/402
f 379/431/381 393/466/401 394/468/403
f 371/429/380 387/469/404 372/432/382
f 379/431/381 395/470/405 380/434/383
f 373/437/384 387/469/404 388/471/406
f 381/439/385 395/470/405 396/472/407
f 373/437/384 389/457/394 374/440/386
f 386/467/402 400/473/408 401/474/409
f 394/468/403 408/475/410 409/476/411
f 386/467/402 402/477/412 387/469/404
f 394/468/403 410/478/413 395/470/405
f 388/471/406 402/477/412 403/479/414
f 396/472/407 410/478/413 411/480/415
f 388/471/406 404/481/416 389/457/394
f 396/472/407 412/482/417 397/456/393
f 390/458/395 404/481/416 405/483/418
f 398/459/396 412/482/417 413/484/419
f 391/460/397 405/483/418 406/485/420
f 384/462/398 82/486/8 399/487/421
f 308/488/10 398/459/396 413/484/419
f 391/460/397 407/489/422 392/464/399
f 384/462/398 400/473/408 385/465/400
f 392/464/399 408/475/410 393/466/401
f 405/483/418 419/490/423 420/491/424
f 412/482/417 428/492/425 413/484/419
f 406/485/420 420/491/424 421/493/426
f 399/487/421 82/494/8 414/495/427
f 308/496/10 413/484/419 428/492/425
f 406/485/420 422/497/428 407/489/422
f 399/487/421 415/498/429 400/473/408
f 407/489/422 423/499/430 408/475/410
f 401/474/409 415/498/429 416/500/431
f 409/476/411 423/499/430 424/501/432
f 401/474/409 417/502/433 402/477/412
f 409/476/411 425/503/434 410/478/413
f 403/479/414 417/502/433 418/504/435
f 411/480/415 425/503/434 426/505/436
f 403/479/414 419/490/423 404/481/416
f 411/480/415 427/506/437 412/482/417
f 424/501/432 438/507/438 439/508/439
f 416/500/431 432/509/440 417/502/433
f 424/501/432 440/510/441 425/503/434
f 418/504/435 432/509/440 433/511/442
f 426/505/436 440/510/441 441/512/443
f 418/504/435 434/513/444 419/490/423
f 426/505/436 442/514/445 427/506/437
f 420/491/424 434/513/444 435/515/446
f 428/492/425 442/514/445 443/516/447
f 421/493/426 435/515/446 436/517/448
f 414/495/427 82/518/8 429/519/449
f 308/520/10 428/492/425 443/516/447
f 421/493/426 437/521/450 422/497/428
f 414/495/427 430/522/451 415/498/429
f 422/497/428 438/507/438 423/499/430
f 416/500/431 430/522/451 431/523/452
f 442/514/445 458/524/453 443/516/447
f 436/517/448 450/525/454 451/526/455
f 429/519/449 82/527/8 444/528/456
f 308/529/10 443/516/447 458/524/453
f 436/517/448 452/530/457 437/521/450
f 430/522/451 444/528/456 445/531/458
f 437/521/450 453/532/459 438/507/438
f 431/523/452 445/531/458 446/533/460
f 439/508/439 453/532/459 454/534/461
f 431/523/452 447/535/462 432/509/440
f 439/508/439 455/536/463 440/510/441
f 433/511/442 447/535/462 448/537/464
f 441/512/443 455/536/463 456/538/465
f 433/511/442 449/539/466 434/513/444
f 441/512/443 457/540/467 442/514/445
f 435/515/446 449/539/466 450/525/454
f 446/533/460 462/541/468 447/535/462
f 454/534/461 470/542/469 455/536/463
f 448/537/464 462/541/468 463/543/470
f 456/538/465 470/542/469 471/544/471
f 448/537/464 464/545/472 449/539/466
f 456/538/465 472/546/473 457/540/467
f 450/525/454 464/545/472 465/547/474
f 457/540/467 473/548/475 458/524/453
f 451/526/455 465/547/474 466/549/476
f 444/528/456 82/550/8 459/551/477
f 308/552/10 458/524/453 473/548/475
f 451/526/455 467/553/478 452/530/457
f 444/528/456 460/554/479 445/531/458
f 452/530/457 468/555/480 453/532/459
f 446/533/460 460/554/479 461/556/481
f 454/534/461 468/555/480 469/557/482
f 466/549/476 3/4/4 4/6/6
f 459/551/477 82/558/8 474/7/7
f 308/559/10 473/548/475 482/3/3
f 466/549/476 5/12/12 467/553/478
f 459/551/477 475/13/13 460/554/479
f 467/553/478 478/16/16 468/555/480
f 461/556/481 475/13/13 1/17/17
f 468/555/480 6/20/20 469/557/482
f 462/541/468 1/17/17 476/21/21
f 469/557/482 479/23/23 470/542/469
f 463/543/470 476/21/21 2/26/26
f 471/544/471 479/23/23 480/28/28
f 464/545/472 2/26/26 477/29/29
f 471/544/471 481/1/1 472/546/473
f 465/547/474 477/29/29 3/4/4
f 472/546/473 482/3/3 473/548/475
f 481/1/1 20/31/31 21/2/2
f 3/4/4 13/32/32 14/5/5
f 4/6/6 14/5/5 15/11/11
f 475/13/13 474/7/7 7/9/9
f 5/12/12 15/11/11 16/15/15
f 1/17/17 475/13/13 8/14/14
f 478/16/16 16/15/15 17/19/19
f 476/21/21 1/17/17 9/18/18
f 479/23/23 6/20/20 17/19/19
f 476/21/21 10/22/22 11/25/25
f 479/23/23 18/24/24 19/27/27
f 477/29/29 2/26/26 11/25/25
f 480/28/28 19/27/27 20/31/31
f 3/4/4 477/29/29 12/30/30
f 20/31/31 19/27/27 34/33/33
f 13/32/32 12/30/30 27/35/35
f 20/31/31 35/34/34 36/37/37
f 13/32/32 28/36/36 29/38/38
f 14/5/5 29/38/38 30/42/40
f 8/14/14 7/9/9 22/40/39
f 15/11/11 30/42/40 31/44/42
f 8/14/14 23/43/41 24/45/43
f 17/19/19 16/15/15 31/44/42
f 9/18/18 24/45/43 25/47/45
f 18/24/24 17/19/19 32/46/44
f 10/22/22 25/47/45 26/49/47
f 19/27/27 18/24/24 33/48/46
f 11/25/25 26/49/47 27/35/35
f 23/43/41 38/66/62 39/50/48
f 32/46/44 31/44/42 46/51/49
f 24/45/43 39/50/48 40/53/51
f 33/48/46 32/46/44 47/52/50
f 25/47/45 40/53/51 41/55/53
f 34/33/33 33/48/46 48/54/52
f 26/49/47 41/55/53 42/57/55
f 35/34/34 34/33/33 49/56/54
f 28/36/36 27/35/35 42/57/55
f 36/37/37 35/34/34 50/58/56
f 29/38/38 28/36/36 43/59/57
f 29/38/38 44/61/59 45/65/61
f 22/40/39 37/63/60 38/66/62
f 30/42/40 45/65/61 46/51/49
f 43/59/57 42/57/55 57/67/63
f 51/60/58 50/58/56 65/69/65
f 44/61/59 43/59/57 58/68/64
f 44/61/59 59/71/67 60/75/69
f 37/63/60 52/73/68 53/76/70
f 45/65/61 60/75/69 61/77/71
f 38/66/62 53/76/70 54/78/72
f 47/52/50 46/51/49 61/77/71
f 39/50/48 54/78/72 55/80/74
f 47/52/50 62/79/73 63/81/75
f 41/55/53 40/53/51 55/80/74
f 49/56/54 48/54/52 63/81/75
f 41/55/53 56/82/76 57/67/63
f 50/58/56 49/56/54 64/83/77
f 62/79/73 61/77/71 76/84/78
f 54/78/72 69/100/92 70/86/80
f 62/79/73 77/85/79 78/87/81
f 56/82/76 55/80/74 70/86/80
f 64/83/77 63/81/75 78/87/81
f 56/82/76 71/88/82 72/90/84
f 64/83/77 79/89/83 80/91/85
f 58/68/64 57/67/63 72/90/84
f 65/69/65 80/91/85 81/93/87
f 59/71/67 58/68/64 73/92/86
f 59/71/67 74/94/88 75/98/90
f 53/76/70 52/73/68 67/96/89
f 60/75/69 75/98/90 76/84/78
f 54/78/72 53/76/70 68/99/91
f 81/93/87 80/91/85 96/101/93
f 74/94/88 73/92/86 89/103/95
f 74/94/88 90/104/96 91/108/98
f 67/96/89 83/106/97 84/109/99
f 75/98/90 91/108/98 92/110/100
f 68/99/91 84/109/99 85/111/101
f 77/85/79 76/84/78 92/110/100
f 69/100/92 85/111/101 86/113/103
f 77/85/79 93/112/102 94/114/104
f 71/88/82 70/86/80 86/113/103
f 79/89/83 78/87/81 94/114/104
f 71/88/82 87/115/105 88/117/107
f 80/91/85 79/89/83 95/116/106
f 73/92/86 72/90/84 88/117/107
f 93/112/102 108/134/122 109/118/108
f 87/115/105 86/113/103 101/119/109
f 95/116/106 94/114/104 109/118/108
f 87/115/105 102/120/110 103/122/112
f 95/116/106 110/121/111 111/123/113
f 89/103/95 88/117/107 103/122/112
f 96/101/93 111/123/113 112/125/115
f 90/104/96 89/103/95 104/124/114
f 90/104/96 105/126/116 106/130/118
f 83/106/97 98/128/117 99/131/119
f 91/108/98 106/130/118 107/132/120
f 85/111/101 84/109/99 99/131/119
f 93/112/102 92/110/100 107/132/120
f 85/111/101 100/133/121 101/119/109
f 105/126/116 120/151/137 121/139/125
f 98/128/117 113/136/123 114/140/126
f 106/130/118 121/139/125 122/141/127
f 99/131/119 114/140/126 115/142/128
f 108/134/122 107/132/120 122/141/127
f 100/133/121 115/142/128 116/144/130
f 108/134/122 123/143/129 124/145/131
f 102/120/110 101/119/109 116/144/130
f 110/121/111 109/118/108 124/145/131
f 102/120/110 117/146/132 118/148/134
f 111/123/113 110/121/111 125/147/133
f 104/124/114 103/122/112 118/148/134
f 111/123/113 126/149/135 127/138/124
f 105/126/116 104/124/114 119/150/136
f 117/146/132 116/144/130 131/152/138
f 125/147/133 124/145/131 139/154/140
f 117/146/132 132/153/139 133/156/142
f 125/147/133 140/155/141 141/157/143
f 119/150/136 118/148/134 133/156/142
f 126/149/135 141/157/143 142/159/145
f 120/151/137 119/150/136 134/158/144
f 120/151/137 135/160/146 136/164/148
f 114/140/126 113/136/123 128/162/147
f 121/139/125 136/164/148 137/166/150
f 115/142/128 114/140/126 129/165/149
f 123/143/129 122/141/127 137/166/150
f 115/142/128 130/167/151 131/152/138
f 123/143/129 138/168/152 139/154/140
f 135/160/146 150/182/166 151/169/153
f 128/162/147 143/184/167 144/170/154
f 136/164/148 151/169/153 152/171/155
f 129/165/149 144/170/154 145/172/156
f 138/168/152 137/166/150 152/171/155
f 130/167/151 145/172/156 146/174/158
f 138/168/152 153/173/157 154/175/159
f 132/153/139 131/152/138 146/174/158
f 140/155/141 139/154/140 154/175/159
f 132/153/139 147/176/160 148/178/162
f 141/157/143 140/155/141 155/177/161
f 134/158/144 133/156/142 148/178/162
f 141/157/143 156/179/163 157/181/165
f 135/160/146 134/158/144 149/180/164
f 155/177/161 154/175/159 169/186/168
f 147/176/160 162/202/182 163/188/170
f 156/179/163 155/177/161 170/187/169
f 149/180/164 148/178/162 163/188/170
f 157/181/165 156/179/163 171/189/171
f 150/182/166 149/180/164 164/190/172
f 150/182/166 165/192/174 166/196/176
f 143/184/167 158/194/175 159/197/177
f 151/169/153 166/196/176 167/198/178
f 144/170/154 159/197/177 160/199/179
f 153/173/157 152/171/155 167/198/178
f 145/172/156 160/199/179 161/201/181
f 153/173/157 168/200/180 169/186/168
f 147/176/160 146/174/158 161/201/181
f 158/194/175 173/217/196 174/203/183
f 166/196/176 181/219/197 182/204/184
f 159/197/177 174/203/183 175/205/185
f 168/200/180 167/198/178 182/204/184
f 160/199/179 175/205/185 176/207/187
f 168/200/180 183/206/186 184/208/188
f 162/202/182 161/201/181 176/207/187
f 170/187/169 169/186/168 184/208/188
f 162/202/182 177/209/189 178/211/191
f 171/189/171 170/187/169 185/210/190
f 164/190/172 163/188/170 178/211/191
f 172/191/173 171/189/171 186/212/192
f 165/192/174 164/190/172 179/213/193
f 165/192/174 180/215/195 181/219/197
f 177/209/189 192/235/211 193/220/198
f 185/210/190 200/236/212 201/221/199
f 179/213/193 178/211/191 193/220/198
f 186/212/192 201/221/199 202/223/201
f 180/215/195 179/213/193 194/222/200
f 180/215/195 195/224/202 196/228/204
f 174/203/183 173/217/196 188/226/203
f 181/219/197 196/228/204 197/230/206
f 175/205/185 174/203/183 189/229/205
f 183/206/186 182/204/184 197/230/206
f 175/205/185 190/231/207 191/233/209
f 183/206/186 198/232/208 199/234/210
f 177/209/189 176/207/187 191/233/209
f 185/210/190 184/208/188 199/234/210
f 196/228/204 211/252/226 212/237/213
f 189/229/205 204/253/227 205/238/214
f 198/232/208 197/230/206 212/237/213
f 190/231/207 205/238/214 206/240/216
f 198/232/208 213/239/215 214/241/217
f 192/235/211 191/233/209 206/240/216
f 200/236/212 199/234/210 214/241/217
f 192/235/211 207/242/218 208/244/220
f 201/221/199 200/236/212 215/243/219
f 194/222/200 193/220/198 208/244/220
f 202/223/201 201/221/199 216/245/221
f 195/224/202 194/222/200 209/246/222
f 195/224/202 210/248/224 211/252/226
f 188/226/203 203/250/225 204/253/227
f 216/245/221 215/243/219 230/254/228
f 209/246/222 208/244/220 223/256/230
f 217/247/223 216/245/221 231/255/229
f 210/248/224 209/246/222 224/257/231
f 210/248/224 225/259/233 226/263/235
f 203/250/225 218/261/234 219/264/236
f 211/252/226 226/263/235 227/265/237
f 204/253/227 219/264/236 220/266/238
f 213/239/215 212/237/213 227/265/237
f 205/238/214 220/266/238 221/268/240
f 213/239/215 228/267/239 229/269/241
f 207/242/218 206/240/216 221/268/240
f 215/243/219 214/241/217 229/269/241
f 207/242/218 222/270/242 223/256/230
f 228/267/239 227/265/237 242/271/243
f 220/266/238 235/287/257 236/273/245
f 228/267/239 243/272/244 244/274/246
f 222/270/242 221/268/240 236/273/245
f 230/254/228 229/269/241 244/274/246
f 222/270/242 237/275/247 238/277/249
f 230/254/228 245/276/248 246/278/250
f 224/257/231 223/256/230 238/277/249
f 231/255/229 246/278/250 247/280/252
f 225/259/233 224/257/231 239/279/251
f 225/259/233 240/281/253 241/285/255
f 219/264/236 218/261/234 233/283/254
f 226/263/235 241/285/255 242/271/243
f 219/264/236 234/286/256 235/287/257
f 246/278/250 261/304/272 262/288/258
f 240/281/253 239/279/251 254/289/259
f 240/281/253 255/290/260 256/294/262
f 234/286/256 233/283/254 248/292/261
f 241/285/255 256/294/262 257/296/264
f 235/287/257 234/286/256 249/295/263
f 243/272/244 242/271/243 257/296/264
f 235/287/257 250/297/265 251/299/267
f 243/272/244 258/298/266 259/300/268
f 237/275/247 236/273/245 251/299/267
f 245/276/248 244/274/246 259/300/268
f 237/275/247 252/301/269 253/303/271
f 245/276/248 260/302/270 261/304/272
f 239/279/251 238/277/249 253/303/271
f 250/297/265 265/320/286 266/305/273
f 258/298/266 273/321/287 274/306/274
f 252/301/269 251/299/267 266/305/273
f 260/302/270 259/300/268 274/306/274
f 252/301/269 267/307/275 268/309/277
f 261/304/272 260/302/270 275/308/276
f 254/289/259 253/303/271 268/309/277
f 261/304/272 276/310/278 277/312/280
f 255/290/260 254/289/259 269/311/279
f 255/290/260 270/313/281 271/317/283
f 249/295/263 248/292/261 263/315/282
f 256/294/262 271/317/283 272/319/285
f 249/295/263 264/318/284 265/320/286
f 258/298/266 257/296/264 272/319/285
f 270/313/281 269/311/279 284/322/288
f 270/313/281 285/323/289 286/328/292
f 263/315/282 278/325/290 279/329/293
f 271/317/283 286/328/292 287/330/294
f 264/318/284 279/329/293 280/331/295
f 273/321/287 272/319/285 287/330/294
f 265/320/286 280/331/295 281/333/297
f 273/321/287 288/332/296 289/334/298
f 267/307/275 266/305/273 281/333/297
f 275/308/276 274/306/274 289/334/298
f 267/307/275 282/335/299 283/337/301
f 275/308/276 290/336/300 291/338/302
f 269/311/279 268/309/277 283/337/301
f 276/310/278 291/338/302 292/327/291
f 288/332/296 303/355/317 304/339/303
f 282/335/299 281/333/297 296/340/304
f 290/336/300 289/334/298 304/339/303
f 282/335/299 297/341/305 298/343/307
f 290/336/300 305/342/306 306/344/308
f 284/322/288 283/337/301 298/343/307
f 292/327/291 291/338/302 306/344/308
f 285/323/289 284/322/288 299/345/309
f 285/323/289 300/347/311 301/351/313
f 278/325/290 293/349/312 294/352/314
f 286/328/292 301/351/313 302/353/315
f 280/331/295 279/329/293 294/352/314
f 288/332/296 287/330/294 302/353/315
f 280/331/295 295/354/316 296/340/304
f 300/347/311 316/372/332 317/360/320
f 294/352/314 293/349/312 309/357/318
f 301/351/313 317/360/320 318/362/322
f 295/354/316 294/352/314 310/361/321
f 303/355/317 302/353/315 318/362/322
f 295/354/316 311/363/323 312/365/325
f 303/355/317 319/364/324 320/366/326
f 297/341/305 296/340/304 312/365/325
f 305/342/306 304/339/303 320/366/326
f 297/341/305 313/367/327 314/369/329
f 305/342/306 321/368/328 322/370/330
f 299/345/309 298/343/307 314/369/329
f 306/344/308 322/370/330 323/359/319
f 300/347/311 299/345/309 315/371/331
f 313/367/327 312/365/325 327/373/333
f 321/368/328 320/366/326 335/375/335
f 313/367/327 328/374/334 329/377/337
f 321/368/328 336/376/336 337/378/338
f 315/371/331 314/369/329 329/377/337
f 323/359/319 322/370/330 337/378/338
f 316/372/332 315/371/331 330/379/339
f 316/372/332 331/381/341 332/385/343
f 309/357/318 324/383/342 325/386/344
f 317/360/320 332/385/343 333/387/345
f 310/361/321 325/386/344 326/388/346
f 319/364/324 318/362/322 333/387/345
f 311/363/323 326/388/346 327/373/333
f 319/364/324 334/389/347 335/375/335
f 331/381/341 346/403/361 347/390/348
f 324/383/342 339/405/362 340/391/349
f 332/385/343 347/390/348 348/392/350
f 326/388/346 325/386/344 340/391/349
f 334/389/347 333/387/345 348/392/350
f 326/388/346 341/393/351 342/395/353
f 334/389/347 349/394/352 350/396/354
f 328/374/334 327/373/333 342/395/353
f 336/376/336 335/375/335 350/396/354
f 328/374/334 343/397/355 344/399/357
f 336/376/336 351/398/356 352/400/358
f 330/379/339 329/377/337 344/399/357
f 338/380/340 337/378/338 352/400/358
f 331/381/341 330/379/339 345/401/359
f 351/398/356 350/396/354 365/407/363
f 343/397/355 358/423/377 359/409/365
f 351/398/356 366/408/364 367/410/366
f 345/401/359 344/399/357 359/409/365
f 353/402/360 352/400/358 367/410/366
f 346/403/361 345/401/359 360/411/367
f 346/403/361 361/413/369 362/417/371
f 339/405/362 354/415/370 355/418/372
f 347/390/348 362/417/371 363/419/373
f 341/393/351 340/391/349 355/418/372
f 349/394/352 348/392/350 363/419/373
f 341/393/351 356/420/374 357/422/376
f 349/394/352 364/421/375 365/407/363
f 343/397/355 342/395/353 357/422/376
f 362/424/371 377/454/392 378/425/378
f 356/427/374 355/455/372 370/428/379
f 364/430/375 363/426/373 378/425/378
f 356/427/374 371/429/380 372/432/382
f 364/430/375 379/431/381 380/434/383
f 358/436/377 357/433/376 372/432/382
f 366/438/364 365/435/363 380/434/383
f 358/436/377 373/437/384 374/440/386
f 366/438/364 381/439/385 382/442/387
f 360/444/367 359/441/365 374/440/386
f 367/443/366 382/442/387 383/446/389
f 361/448/369 360/444/367 375/445/388
f 361/448/369 376/449/390 377/454/392
f 355/455/372 354/450/370 369/452/391
f 381/439/385 396/472/407 397/456/393
f 375/445/388 374/440/386 389/457/394
f 382/442/387 397/456/393 398/459/396
f 376/449/390 375/445/388 390/458/395
f 376/449/390 391/460/397 392/464/399
f 370/428/379 369/452/391 384/462/398
f 377/454/392 392/464/399 393/466/401
f 371/429/380 370/428/379 385/465/400
f 379/431/381 378/425/378 393/466/401
f 371/429/380 386/467/402 387/469/404
f 379/431/381 394/468/403 395/470/405
f 373/437/384 372/432/382 387/469/404
f 381/439/385 380/434/383 395/470/405
f 373/437/384 388/471/406 389/457/394
f 386/467/402 385/465/400 400/473/408
f 394/468/403 393/466/401 408/475/410
f 386/467/402 401/474/409 402/477/412
f 394/468/403 409/476/411 410/478/413
f 388/471/406 387/469/404 402/477/412
f 396/472/407 395/470/405 410/478/413
f 388/471/406 403/479/414 404/481/416
f 396/472/407 411/480/415 412/482/417
f 390/458/395 389/457/394 404/481/416
f 398/459/396 397/456/393 412/482/417
f 391/460/397 390/458/395 405/483/418
f 391/460/397 406/485/420 407/489/422
f 384/462/398 399/487/421 400/473/408
f 392/464/399 407/489/422 408/475/410
f 405/483/418 404/481/416 419/490/423
f 412/482/417 427/506/437 428/492/425
f 406/485/420 405/483/418 420/491/424
f 406/485/420 421/493/426 422/497/428
f 399/487/421 414/495/427 415/498/429
f 407/489/422 422/497/428 423/499/430
f 401/474/409 400/473/408 415/498/429
f 409/476/411 408/475/410 423/499/430
f 401/474/409 416/500/431 417/502/433
f 409/476/411 424/501/432 425/503/434
f 403/479/414 402/477/412 417/502/433
f 411/480/415 410/478/413 425/503/434
f 403/479/414 418/504/435 419/490/423
f 411/480/415 426/505/436 427/506/437
f 424/501/432 423/499/430 438/507/438
f 416/500/431 431/523/452 432/509/440
f 424/501/432 439/508/439 440/510/441
f 418/504/435 417/502/433 432/509/440
f 426/505/436 425/503/434 440/510/441
f 418/504/435 433/511/442 434/513/444
f 426/505/436 441/512/443 442/514/445
f 420/491/424 419/490/423 434/513/444
f 428/492/425 427/506/437 442/514/445
f 421/493/426 420/491/424 435/515/446
f 421/493/426 436/517/448 437/521/450
f 414/495/427 429/519/449 430/522/451
f 422/497/428 437/521/450 438/507/438
f 416/500/431 415/498/429 430/522/451
f 442/514/445 457/540/467 458/524/453
f 436/517/448 435/515/446 450/525/454
f 436/517/448 451/526/455 452/530/457
f 430/522/451 429/519/449 444/528/456
f 437/521/450 452/530/457 453/532/459
f 431/523/452 430/522/451 445/531/458
f 439/508/439 438/507/438 453/532/459
f 431/523/452 446/533/460 447/535/462
f 439/508/439 454/534/461 455/536/463
f 433/511/442 432/509/440 447/535/462
f 441/512/443 440/510/441 455/536/463
f 433/511/442 448/537/464 449/539/466
f 441/512/443 456/538/465 457/540/467
f 435/515/446 434/513/444 449/539/466
f 446/533/460 461/556/481 462/541/468
f 454/534/461 469/557/482 470/542/469
f 448/537/464 447/535/462 462/541/468
f 456/538/465 455/536/463 470/542/469
f 448/537/464 463/543/470 464/545/472
f 456/538/465 471/544/471 472/546/473
f 450/525/454 449/539/466 464/545/472
f 457/540/467 472/546/473 473/548/475
f 451/526/455 450/525/454 465/547/474
f 451/526/455 466/549/476 467/553/478
f 444/528/456 459/551/477 460/554/479
f 452/530/457 467/553/478 468/555/480
f 446/533/460 445/531/458 460/554/479
f 454/534/461 453/532/459 468/555/480
f 466/549/476 465/547/474 3/4/4
f 466/549/476 4/6/6 5/12/12
f 459/551/477 474/7/7 475/13/13
f 467/553/478 5/12/12 478/16/16
f 461/556/481 460/554/479 475/13/13
f 468/555/480 478/16/16 6/20/20
f 462/541/468 461/556/481 1/17/17
f 469/557/482 6/20/20 479/23/23
f 463/543/470 462/541/468 476/21/21
f 471/544/471 470/542/469 479/23/23
f 464/545/472 463/543/470 2/26/26
f 471/544/471 480/28/28 481/1/1
f 465/547/474 464/545/472 477/29/29
f 472/546/473 481/1/1 482/3/3
