# Blender 4.4.1
# www.blender.org
mtllib enemy_tackler.mtl
o 立方体
v -0.131887 -1.000000 0.131887
v -0.131887 -0.131887 1.000000
v -0.131887 -0.970441 0.356493
v -0.131887 -0.883654 0.566014
v -0.131887 -0.745736 0.745736
v -0.356493 -0.970441 0.131887
v -0.363562 -0.935246 0.365471
v -0.359779 -0.847471 0.567346
v -0.355120 -0.725370 0.724817
v -0.566014 -0.883654 0.131887
v -0.567578 -0.846911 0.361089
v -0.545401 -0.773344 0.545602
v -0.527211 -0.678424 0.678364
v -0.356493 -0.131887 0.970441
v -0.566014 -0.131887 0.883654
v -0.745736 -0.131887 0.745736
v -0.131887 -0.356493 0.970441
v -0.365471 -0.363562 0.935246
v -0.567347 -0.359779 0.847471
v -0.724817 -0.355120 0.725370
v -0.131887 -0.566014 0.883654
v -0.361089 -0.567578 0.846911
v -0.545602 -0.545401 0.773344
v -0.678364 -0.527210 0.678424
v -0.970441 -0.252787 0.087670
v -0.883654 -0.566014 0.131887
v -0.970441 -0.093521 0.236974
v -0.935246 -0.365471 0.363562
v -0.847471 -0.567346 0.359779
v -0.883654 -0.131887 0.566014
v -0.846911 -0.361089 0.567578
v -0.773344 -0.545602 0.545401
v -0.131887 0.131887 1.000000
v -0.131887 1.000000 0.131887
v -0.131887 0.356493 0.970441
v -0.131887 0.566014 0.883654
v -0.131887 0.745736 0.745736
v -0.356493 0.131887 0.970441
v -0.363562 0.365471 0.935246
v -0.359779 0.567346 0.847471
v -0.355120 0.724817 0.725370
v -0.566014 0.131887 0.883654
v -0.567578 0.361089 0.846911
v -0.545401 0.545602 0.773344
v -0.527211 0.678364 0.678424
v -0.760701 -0.760701 0.632780
v -0.356493 0.970441 0.131887
v -0.566014 0.883654 0.131887
v -0.806033 -0.805973 0.526898
v -0.131887 0.970441 0.356493
v -0.365471 0.935246 0.363562
v -0.567347 0.847471 0.359779
v -0.852979 -0.852425 0.354807
v -0.131887 0.883654 0.566014
v -0.361089 0.846911 0.567578
v -0.545602 0.773344 0.545401
v -0.873344 -0.873344 0.131575
v -0.970441 0.093521 0.236974
v -0.883654 0.131887 0.566014
v -0.745736 0.131887 0.745736
v -0.970441 0.252787 0.087670
v -0.935246 0.363562 0.365471
v -0.847471 0.359779 0.567346
v -0.725370 0.355120 0.724817
v -0.883654 0.566014 0.131887
v -0.846911 0.567578 0.361089
v -0.773344 0.545401 0.545602
v -0.678424 0.527210 0.678364
v -0.131887 -1.000000 -0.131887
v -0.131887 -0.131887 -0.866696
v -0.356493 -0.970441 -0.131887
v -0.566014 -0.883654 -0.131887
v -0.131887 -0.970441 -0.356493
v -0.365471 -0.935246 -0.363562
v -0.567346 -0.847471 -0.359779
v -0.131887 -0.883654 -0.566014
v -0.361089 -0.846911 -0.567578
v -0.545602 -0.773344 -0.545401
v -0.970441 -0.093521 -0.236974
v -0.883654 -0.131887 -0.566014
v -0.745736 -0.131887 -0.745736
v -0.970441 -0.252787 -0.087670
v -0.935246 -0.363562 -0.365471
v -0.847471 -0.359779 -0.567347
v -0.725370 -0.355120 -0.724817
v -0.883654 -0.566014 -0.131887
v -0.846911 -0.567578 -0.361089
v -0.773344 -0.545401 -0.545602
v -0.678424 -0.527210 -0.678364
v -0.131887 -0.356493 -0.704302
v -0.113028 -0.485076 -0.881047
v -0.131887 -0.745736 -0.745736
v -0.356493 -0.131887 -0.704302
v -0.363562 -0.365471 -0.814191
v -0.308332 -0.486218 -0.850038
v -0.355120 -0.724817 -0.725370
v -0.485076 -0.113028 -0.881047
v -0.486417 -0.309455 -0.849558
v -0.545401 -0.545602 -0.773344
v -0.527210 -0.678364 -0.678424
v -0.131887 1.000000 -0.131887
v -0.131887 0.131887 -0.866696
v -0.131887 0.970441 -0.356493
v -0.131887 0.883654 -0.566014
v -0.131887 0.745736 -0.745736
v -0.356493 0.970441 -0.131887
v -0.363562 0.935246 -0.365471
v -0.359779 0.847471 -0.567346
v -0.355120 0.725370 -0.724817
v -0.566014 0.883654 -0.131887
v -0.567578 0.846911 -0.361089
v -0.545401 0.773344 -0.545602
v -0.527211 0.678424 -0.678364
v -0.654819 -0.806033 0.678052
v -0.356493 0.131887 -0.704302
v -0.485076 0.113028 -0.881047
v -0.745736 0.131887 -0.745736
v -0.131887 0.356493 -0.704302
v -0.365471 0.363562 -0.814191
v -0.486218 0.308332 -0.850038
v -0.724817 0.355120 -0.725370
v -0.113028 0.485076 -0.881047
v -0.309455 0.486417 -0.849558
v -0.545602 0.545401 -0.773344
v -0.678364 0.527210 -0.678424
v -0.970441 0.252787 -0.087670
v -0.883654 0.566014 -0.131887
v -0.673009 -0.900952 0.545290
v -0.970441 0.093521 -0.236974
v -0.935246 0.365471 -0.363562
v -0.847471 0.567346 -0.359779
v -0.693623 -1.011263 0.131575
v -0.883654 0.131887 -0.566014
v -0.846911 0.361089 -0.567578
v -0.773344 0.545602 -0.545401
v -0.695187 -0.974520 0.360776
v 0.131887 -1.000000 0.131887
v 0.131887 -0.131887 1.000000
v 0.356493 -0.970441 0.131887
v 0.566014 -0.883654 0.131887
v 0.131887 -0.970441 0.356493
v 0.365471 -0.935246 0.363562
v 0.567346 -0.847471 0.359779
v 0.131887 -0.883654 0.566014
v 0.361089 -0.846911 0.567578
v 0.545602 -0.773344 0.545401
v 0.970441 -0.093521 0.236974
v 0.883654 -0.131887 0.566014
v 0.745736 -0.131887 0.745736
v 0.970441 -0.252787 0.087670
v 0.935246 -0.363562 0.365471
v 0.847471 -0.359779 0.567347
v 0.725370 -0.355120 0.724817
v 0.883654 -0.566014 0.131887
v 0.846911 -0.567578 0.361089
v 0.773344 -0.545401 0.545602
v 0.678424 -0.527210 0.678364
v 0.131887 -0.356493 0.970441
v 0.131887 -0.566014 0.883654
v 0.131887 -0.745736 0.745736
v 0.356493 -0.131887 0.970441
v 0.363562 -0.365471 0.935246
v 0.359779 -0.567346 0.847471
v 0.355120 -0.724817 0.725370
v 0.566014 -0.131887 0.883654
v 0.567578 -0.361089 0.846911
v 0.545401 -0.545602 0.773344
v 0.527210 -0.678364 0.678424
v 0.131887 1.000000 0.131887
v 0.131887 0.131887 1.000000
v 0.131887 0.970441 0.356493
v 0.131887 0.883654 0.566014
v 0.131887 0.745736 0.745736
v 0.356493 0.970441 0.131887
v 0.363562 0.935246 0.365471
v 0.359779 0.847471 0.567346
v 0.355120 0.725370 0.724817
v 0.566014 0.883654 0.131887
v 0.567578 0.846911 0.361089
v 0.545401 0.773344 0.545602
v 0.527211 0.678424 0.678364
v 0.753782 0.753782 0.632797
v 0.356493 0.131887 0.970441
v 0.566014 0.131887 0.883654
v 0.745736 0.131887 0.745736
v 0.131887 0.356493 0.970441
v 0.365471 0.363562 0.935246
v 0.567347 0.359779 0.847471
v 0.724817 0.355120 0.725370
v 0.131887 0.566014 0.883654
v 0.361089 0.567578 0.846911
v 0.545602 0.545401 0.773344
v 0.678364 0.527210 0.678424
v 0.970441 0.252787 0.087670
v 0.883654 0.566014 0.131887
v 0.799113 0.799053 0.526915
v 0.970441 0.093521 0.236974
v 0.935246 0.365471 0.363562
v 0.847471 0.567346 0.359779
v 0.846060 0.845506 0.354824
v 0.883654 0.131887 0.566014
v 0.846911 0.361089 0.567578
v 0.773344 0.545602 0.545401
v 0.866425 0.866425 0.131592
v 0.131887 -1.000000 -0.131887
v 0.131887 -0.131887 -0.866696
v 0.131887 -0.970441 -0.356493
v 0.131887 -0.883654 -0.566014
v 0.131887 -0.745736 -0.745736
v 0.356493 -0.970441 -0.131887
v 0.363562 -0.935246 -0.365471
v 0.359779 -0.847471 -0.567346
v 0.355120 -0.725370 -0.724817
v 0.566014 -0.883654 -0.131887
v 0.567578 -0.846911 -0.361089
v 0.545401 -0.773344 -0.545602
v 0.527211 -0.678424 -0.678364
v 0.356493 -0.131887 -0.704302
v 0.485076 -0.113028 -0.881047
v 0.745736 -0.131887 -0.745736
v 0.131887 -0.356493 -0.704302
v 0.365471 -0.363562 -0.814191
v 0.486218 -0.308332 -0.850038
v 0.724817 -0.355120 -0.725370
v 0.113028 -0.485076 -0.881047
v 0.309455 -0.486417 -0.849558
v 0.545602 -0.545401 -0.773344
v 0.678364 -0.527210 -0.678424
v 0.970441 -0.252787 -0.087670
v 0.883654 -0.566014 -0.131887
v 0.970441 -0.093521 -0.236974
v 0.935246 -0.365471 -0.363562
v 0.847471 -0.567346 -0.359779
v 0.883654 -0.131887 -0.566014
v 0.846911 -0.361089 -0.567578
v 0.773344 -0.545602 -0.545401
v 0.131887 1.000000 -0.131887
v 0.131887 0.131887 -0.866696
v 0.356493 0.970441 -0.131887
v 0.566014 0.883654 -0.131887
v 0.647900 0.799113 0.678069
v 0.131887 0.970441 -0.356493
v 0.365471 0.935246 -0.363562
v 0.567346 0.847471 -0.359779
v 0.666090 0.894033 0.545307
v 0.131887 0.883654 -0.566014
v 0.361089 0.846911 -0.567578
v 0.545602 0.773344 -0.545401
v 0.686704 1.004344 0.131592
v 0.688268 0.967601 0.360793
v 0.970441 0.093521 -0.236974
v 0.883654 0.131887 -0.566014
v 0.745736 0.131887 -0.745736
v 0.970441 0.252787 -0.087670
v 0.935246 0.363562 -0.365471
v 0.847471 0.359779 -0.567347
v 0.725370 0.355120 -0.724817
v 0.883654 0.566014 -0.131887
v 0.846911 0.567578 -0.361089
v 0.773344 0.545401 -0.545602
v 0.678424 0.527210 -0.678364
v 0.131887 0.356493 -0.704302
v 0.113028 0.485076 -0.881047
v 0.131887 0.745736 -0.745736
v 0.356493 0.131887 -0.704302
v 0.363562 0.365471 -0.814191
v 0.308332 0.486218 -0.850038
v 0.355120 0.724817 -0.725370
v 0.485076 0.113028 -0.881047
v 0.486417 0.309455 -0.849558
v 0.545401 0.545602 -0.773344
v 0.527210 0.678364 -0.678424
v 0.678250 -0.995890 0.131613
v 0.679582 -0.959707 0.359504
v 0.857971 -0.857972 0.131613
v 0.837052 -0.837606 0.354845
v 0.657838 -0.885580 0.545126
v 0.790600 -0.790660 0.526936
v 0.639446 -0.790600 0.678149
v 0.745328 -0.745328 0.632818
v 0.959147 -0.679814 0.360814
v 0.995890 -0.678250 0.131613
v 0.885579 -0.657637 0.545327
v 0.790660 -0.639446 0.678089
v 0.657636 -0.657838 0.773069
v 0.679814 -0.959147 -0.361364
v 0.678250 -0.995890 -0.132162
v 0.657636 -0.885580 -0.545877
v 0.639446 -0.790660 -0.678639
v 0.857971 -0.857972 -0.132162
v 0.837606 -0.837052 -0.355395
v 0.790660 -0.790600 -0.527485
v 0.745328 -0.745328 -0.633367
v 0.790600 -0.639446 -0.678699
v 0.995890 -0.678250 -0.132162
v 0.959707 -0.679582 -0.360054
v 0.885579 -0.657838 -0.545676
v 0.688170 0.967503 0.360794
v 0.686606 1.004246 0.131592
v 0.665992 0.893935 0.545307
v 0.647802 0.799016 0.678069
v 0.798956 0.647802 0.678128
v 0.666194 0.665992 0.773048
v 1.004246 0.686606 0.131592
v 0.968063 0.687938 0.359484
v 0.893936 0.666194 0.545105
v 0.686606 1.004246 -0.132183
v 0.687938 0.968063 -0.360075
v 0.666194 0.893935 -0.545696
v 0.647802 0.798956 -0.678719
v 0.967503 0.688170 -0.361385
v 1.004246 0.686606 -0.132183
v 0.893936 0.665992 -0.545898
v 0.799016 0.647802 -0.678660
v 0.799054 0.647900 0.678128
v 0.666292 0.666090 0.773048
v 1.004344 0.686704 0.131592
v 0.968161 0.688036 0.359484
v 0.894033 0.666292 0.545105
v 0.686704 1.004343 -0.132183
v 0.688036 0.968160 -0.360075
v 0.866425 0.866425 -0.132183
v 0.845506 0.846059 -0.355416
v 0.666292 0.894033 -0.545696
v 0.799054 0.799113 -0.527506
v 0.647900 0.799053 -0.678720
v 0.753782 0.753782 -0.633388
v 0.967601 0.688268 -0.361385
v 1.004344 0.686703 -0.132183
v 0.894033 0.666090 -0.545898
v 0.799113 0.647900 -0.678660
v -0.655689 0.806843 0.678109
v -0.673879 0.674081 0.773029
v -0.806902 0.655689 0.678050
v -0.761571 0.761571 0.632778
v -0.694492 1.012133 0.131573
v -0.695825 0.975950 0.359465
v -0.874214 0.874214 0.131573
v -0.853295 0.853848 0.354805
v -0.674080 0.901822 0.545086
v -0.806842 0.806902 0.526896
v -0.975390 0.696057 0.360774
v -1.012133 0.694492 0.131573
v -0.901822 0.673879 0.545287
v -0.696057 0.975390 -0.361404
v -0.694492 1.012133 -0.132202
v -0.673879 0.901822 -0.545917
v -0.655689 0.806902 -0.678679
v -0.874214 0.874214 -0.132202
v -0.853848 0.853295 -0.355435
v -0.806902 0.806843 -0.527525
v -0.761571 0.761571 -0.633407
v -0.806842 0.655689 -0.678739
v -1.012132 0.694493 -0.132202
v -0.975949 0.695825 -0.360094
v -0.901822 0.674081 -0.545715
v -0.805973 -0.654819 0.678111
v -0.673211 -0.673009 0.773031
v -1.011263 -0.693623 0.131575
v -0.975080 -0.694955 0.359467
v -0.900952 -0.673211 0.545088
v -0.693623 -1.011263 -0.132200
v -0.694955 -0.975080 -0.360092
v -0.873344 -0.873344 -0.132200
v -0.852425 -0.852979 -0.355433
v -0.673211 -0.900952 -0.545713
v -0.805973 -0.806033 -0.527523
v -0.654819 -0.805973 -0.678737
v -0.760701 -0.760701 -0.633405
v -0.974520 -0.695187 -0.361402
v -1.011263 -0.693623 -0.132200
v -0.900952 -0.673009 -0.545915
v -0.806033 -0.654819 -0.678677
v -1.457576 -0.093521 0.087670
v -1.457576 0.093521 0.087670
v -1.457576 -0.093521 -0.087670
v -1.457576 0.093521 -0.087670
v -1.449510 -0.093521 0.128414
v -1.327307 -0.093521 0.236974
v -1.327307 -0.252787 0.087670
v -1.449455 -0.137278 0.087670
v -1.449455 0.137278 0.087670
v -1.327307 0.252787 0.087670
v -1.327307 0.093521 0.236974
v -1.449510 0.093521 0.128414
v -1.449455 -0.137278 -0.087670
v -1.327307 -0.252787 -0.087670
v -1.327307 -0.093521 -0.236974
v -1.449510 -0.093521 -0.128414
v -1.449510 0.093521 -0.128414
v -1.327307 0.093521 -0.236974
v -1.327307 0.252787 -0.087670
v -1.449455 0.137278 -0.087670
v 1.446651 -0.093521 0.087670
v 1.446651 0.093521 0.087670
v 1.446651 -0.093521 -0.087670
v 1.446651 0.093521 -0.087670
v 1.437702 0.141740 0.087670
v 1.320273 0.252787 0.087670
v 1.320273 0.093521 0.236974
v 1.437755 0.093521 0.132608
v 1.437702 -0.141740 -0.087670
v 1.320273 -0.252787 -0.087670
v 1.320273 -0.093521 -0.236974
v 1.437755 -0.093521 -0.132608
v 1.437755 0.093521 -0.132608
v 1.320273 0.093521 -0.236974
v 1.320273 0.252787 -0.087670
v 1.437702 0.141740 -0.087670
v 1.437755 -0.093521 0.132608
v 1.320273 -0.093521 0.236974
v 1.320273 -0.252787 0.087670
v 1.437702 -0.141740 0.087670
v -0.131887 0.953212 0.620774
v -0.131887 1.063171 0.482855
v -0.131887 1.218102 0.093612
v -0.131887 1.247661 -0.130993
v -0.131887 1.131315 0.303133
v -0.131887 1.247661 -0.394768
v -0.131887 1.218102 -0.619374
v -0.131887 1.131315 -0.828895
v -0.131887 0.993396 -1.008616
v 0.131887 1.247661 -0.130993
v 0.131887 1.218102 0.093612
v 0.131887 1.131315 0.303134
v 0.131887 1.063171 0.482855
v 0.131887 0.953212 0.620774
v 0.131887 1.218102 -0.619374
v 0.131887 1.247661 -0.394768
v 0.131887 1.131315 -0.828895
v 0.131887 0.993396 -1.008616
vn -0.0000 -0.0000 1.0000
vn -1.0000 -0.0000 -0.0000
vn -0.0000 -0.0000 -1.0000
vn -0.1366 -0.9812 0.1366
vn -0.1329 -0.9119 0.3882
vn -0.1247 -0.7849 0.6070
vn -0.3876 -0.9120 0.1345
vn -0.3777 -0.8451 0.3783
vn -0.3584 -0.7339 0.5770
vn -0.4704 0.4686 0.7478
vn -0.6553 0.6544 0.3774
vn -0.6936 0.6940 -0.1931
vn -0.1366 -0.1366 0.9812
vn -0.3882 -0.1329 0.9119
vn -0.6070 -0.1247 0.7849
vn -0.1345 -0.3876 0.9120
vn -0.3783 -0.3777 0.8451
vn -0.5770 -0.3584 0.7339
vn -0.1253 -0.6069 0.7849
vn -0.3588 -0.5775 0.7334
vn 0.6540 -0.6549 0.3786
vn -0.9810 -0.0000 -0.1942
vn -0.9467 -0.3159 0.0626
vn 0.6935 -0.6940 0.1933
vn -0.9496 -0.0575 0.3083
vn -0.8451 -0.3783 0.3777
vn -0.7021 0.7024 -0.1173
vn -0.7849 -0.1253 0.6069
vn -0.7334 -0.3588 0.5775
vn 0.0010 0.0014 -1.0000
vn -0.1366 0.1366 0.9812
vn -0.1329 0.3882 0.9119
vn -0.1247 0.6070 0.7849
vn -0.3876 0.1345 0.9120
vn -0.3777 0.3783 0.8451
vn -0.3584 0.5770 0.7339
vn -0.6069 0.1253 0.7849
vn -0.5775 0.3588 0.7334
vn 0.7071 0.7071 -0.0000
vn -0.1366 0.9812 0.1366
vn -0.3882 0.9119 0.1329
vn 0.6940 0.6936 -0.1931
vn -0.1345 0.9120 0.3876
vn -0.3783 0.8451 0.3777
vn 0.7022 0.7025 0.1156
vn -0.1253 0.7849 0.6069
vn -0.3588 0.7334 0.5775
vn -0.6940 -0.6935 0.1933
vn -0.0000 -1.0000 -0.0000
vn -0.9496 0.0557 0.3086
vn -0.7849 0.1247 0.6070
vn -0.9467 0.3156 0.0644
vn -0.8451 0.3777 0.3783
vn -0.7339 0.3584 0.5770
vn 0.6544 0.6553 0.3774
vn -0.7022 -0.7025 -0.1156
vn -0.6932 -0.6937 -0.1956
vn -0.1366 -0.9812 -0.1366
vn -0.3882 -0.9119 -0.1329
vn -0.7071 0.7071 -0.0000
vn -0.1345 -0.9120 -0.3876
vn -0.3783 -0.8451 -0.3777
vn 0.4679 -0.4698 0.7486
vn -0.1253 -0.7849 -0.6069
vn -0.3588 -0.7334 -0.5775
vn 0.6937 -0.6932 -0.1956
vn -0.9651 -0.1791 -0.1911
vn -0.9496 -0.0557 -0.3086
vn -0.7849 -0.1247 -0.6070
vn -0.9467 -0.3156 -0.0644
vn -0.8451 -0.3777 -0.3783
vn -0.7339 -0.3584 -0.5770
vn -0.7025 0.7022 0.1156
vn 0.6555 -0.6546 -0.3767
vn 0.7025 -0.7022 -0.1156
vn -0.5055 -0.5055 -0.6992
vn 0.1205 0.6646 -0.7374
vn -0.1298 -0.4445 -0.8863
vn 0.6610 0.1221 -0.7404
vn 0.4255 0.4309 -0.7958
vn -0.2398 -0.4804 -0.8436
vn -0.4444 -0.1308 -0.8862
vn -0.4807 -0.2393 -0.8436
vn -0.5379 -0.5378 -0.6492
vn -0.1366 0.9812 -0.1366
vn -0.1329 0.9119 -0.3882
vn -0.1247 0.7849 -0.6070
vn -0.3876 0.9120 -0.1345
vn -0.3777 0.8451 -0.3783
vn -0.3584 0.7339 -0.5770
vn -0.4698 -0.4679 0.7486
vn 0.7024 0.7021 -0.1173
vn -0.7024 -0.7021 0.1174
vn -0.5055 0.5055 -0.6992
vn 0.6646 -0.1205 -0.7374
vn -0.4445 0.1298 -0.8863
vn 0.1221 -0.6610 -0.7404
vn 0.4309 -0.4255 -0.7958
vn -0.4804 0.2398 -0.8436
vn -0.1308 0.4444 -0.8862
vn -0.2393 0.4807 -0.8436
vn -0.5378 0.5379 -0.6492
vn -0.9651 0.1791 0.1911
vn -0.9467 0.3159 -0.0626
vn 0.0014 -0.0010 -1.0000
vn -0.9496 0.0575 -0.3083
vn -0.8451 0.3783 -0.3777
vn -0.6546 -0.6555 -0.3767
vn -0.7849 0.1253 -0.6069
vn -0.7334 0.3588 -0.5775
vn -0.7071 -0.7071 -0.0000
vn 0.1366 -0.9812 0.1366
vn 0.3882 -0.9119 0.1329
vn -0.6932 -0.6937 0.1958
vn 0.1345 -0.9120 0.3876
vn 0.3783 -0.8451 0.3777
vn 0.6932 0.6937 -0.1956
vn 0.1253 -0.7849 0.6069
vn 0.3588 -0.7334 0.5775
vn -0.6544 -0.6553 0.3774
vn 0.9651 -0.1791 -0.1911
vn 0.9496 -0.0557 0.3086
vn 0.7849 -0.1247 0.6070
vn 0.9467 -0.3156 0.0644
vn 0.8451 -0.3777 0.3783
vn 0.7339 -0.3584 0.5770
vn -0.7022 -0.7025 0.1156
vn -0.7024 -0.7021 -0.1173
vn -0.0014 0.0010 -1.0000
vn 0.1366 -0.1366 0.9812
vn 0.1329 -0.3882 0.9119
vn 0.1247 -0.6070 0.7849
vn 0.3876 -0.1345 0.9120
vn 0.3777 -0.3783 0.8451
vn 0.3584 -0.5770 0.7339
vn 0.6069 -0.1253 0.7849
vn 0.5775 -0.3588 0.7334
vn 0.6549 0.6540 0.3786
vn 0.1366 0.9812 0.1366
vn 0.1329 0.9119 0.3882
vn 0.1247 0.7849 0.6070
vn 0.3876 0.9120 0.1345
vn 0.3777 0.8451 0.3783
vn 0.3584 0.7339 0.5770
vn 0.6936 -0.6940 -0.1931
vn 0.6936 -0.6940 -0.1932
vn 0.7021 -0.7024 -0.1173
vn 0.7022 -0.7023 -0.1173
vn -0.6935 0.6940 0.1933
vn -0.6936 0.6940 0.1931
vn -0.6936 0.6940 0.1932
vn 0.1366 0.1366 0.9812
vn 0.3882 0.1329 0.9119
vn 0.6070 0.1247 0.7849
vn 0.1345 0.3876 0.9120
vn 0.3783 0.3777 0.8451
vn 0.5770 0.3584 0.7339
vn 0.1253 0.6069 0.7849
vn 0.3588 0.5775 0.7334
vn -0.4679 0.4698 0.7486
vn -0.4677 0.4699 0.7486
vn -0.4678 0.4698 0.7487
vn 0.9651 -0.1791 0.1911
vn 0.9467 0.3159 0.0626
vn -0.6937 0.6932 -0.1956
vn -0.6937 0.6932 -0.1955
vn 0.9496 0.0575 0.3083
vn 0.8451 0.3783 0.3777
vn 0.7025 -0.7022 0.1156
vn 0.7026 -0.7022 0.1157
vn 0.7849 0.1253 0.6069
vn 0.7334 0.3588 0.5775
vn -0.6555 0.6546 -0.3767
vn -0.6554 0.6546 -0.3768
vn 0.1366 -0.9812 -0.1366
vn 0.1329 -0.9119 -0.3882
vn 0.1247 -0.7849 -0.6070
vn 0.3876 -0.9120 -0.1345
vn 0.3777 -0.8451 -0.3783
vn 0.3584 -0.7339 -0.5770
vn 0.6545 0.6555 -0.3767
vn 0.4698 0.4679 0.7486
vn 0.5055 -0.5055 -0.6992
vn -0.6646 0.1205 -0.7374
vn 0.4445 -0.1298 -0.8863
vn -0.1221 0.6610 -0.7404
vn -0.4309 0.4255 -0.7958
vn 0.4804 -0.2398 -0.8436
vn 0.1308 -0.4444 -0.8862
vn 0.2393 -0.4807 -0.8436
vn 0.5378 -0.5379 -0.6492
vn 0.9810 -0.0000 0.1942
vn 0.9467 -0.3159 -0.0626
vn -0.6551 -0.6542 -0.3780
vn 0.9496 -0.0575 -0.3083
vn 0.8451 -0.3783 -0.3777
vn 0.6940 0.6935 0.1934
vn 0.7849 -0.1253 -0.6069
vn 0.7334 -0.3588 -0.5775
vn -0.4686 -0.4704 0.7478
vn 0.1366 0.9812 -0.1366
vn 0.3882 0.9119 -0.1329
vn -0.7025 0.7022 -0.1156
vn 0.1345 0.9120 -0.3876
vn 0.3783 0.8451 -0.3777
vn 0.6937 -0.6932 0.1958
vn 0.6938 -0.6930 0.1958
vn 0.1253 0.7849 -0.6069
vn 0.3588 0.7334 -0.5775
vn 0.7071 -0.7071 -0.0000
vn 0.7072 -0.7070 -0.0000
vn 0.7072 -0.7071 -0.0000
vn 0.9651 0.1791 0.1911
vn 0.9496 0.0557 -0.3086
vn 0.7849 0.1247 -0.6070
vn 0.9467 0.3156 -0.0644
vn 0.8451 0.3777 -0.3783
vn 0.7339 0.3584 -0.5770
vn -0.7021 0.7024 0.1174
vn -0.7020 0.7024 0.1174
vn 0.6542 -0.6551 -0.3780
vn 0.6542 -0.6550 -0.3780
vn 0.4704 -0.4686 0.7478
vn 0.4704 -0.4686 0.7477
vn 0.5055 0.5055 -0.6992
vn -0.1205 -0.6646 -0.7374
vn 0.1298 0.4445 -0.8863
vn -0.6610 -0.1221 -0.7404
vn -0.4255 -0.4309 -0.7958
vn 0.2398 0.4804 -0.8436
vn 0.4444 0.1308 -0.8862
vn 0.4807 0.2393 -0.8436
vn 0.5379 0.5378 -0.6492
vn -0.1305 -0.9915 -0.0000
vn -0.3827 -0.9239 -0.0000
vn -0.6937 0.6932 0.1958
vn 0.7021 -0.7024 0.1174
vn -0.9637 -0.2670 -0.0000
vn -0.9651 -0.1791 0.1911
vn -0.1305 -0.0000 0.9915
vn -0.3827 -0.0000 0.9239
vn -0.6088 -0.0000 0.7933
vn -0.7933 -0.0000 0.6088
vn -0.9669 -0.0000 0.2550
vn -0.0000 1.0000 -0.0000
vn -0.1305 0.9915 -0.0000
vn -0.3827 0.9239 -0.0000
vn 0.6551 0.6542 -0.3780
vn 0.4686 0.4704 0.7478
vn -0.9637 0.2670 -0.0000
vn -0.9832 -0.1825 -0.0000
vn -0.5859 -0.0000 -0.8104
vn 0.8086 -0.0000 -0.5883
vn -0.4607 -0.0000 -0.8875
vn -0.7933 -0.0000 -0.6088
vn -0.9669 -0.0000 -0.2550
vn -0.9651 0.1791 -0.1911
vn -0.0000 -0.9915 -0.1305
vn -0.0000 -0.9239 -0.3827
vn -0.0000 -0.7933 -0.6088
vn -0.0000 -0.4607 -0.8875
vn -0.0000 0.8086 -0.5883
vn -0.0000 -0.5859 -0.8104
vn 1.0000 -0.0000 -0.0000
vn -0.0000 0.4607 -0.8875
vn -0.0000 -0.8086 -0.5883
vn -0.0000 0.5859 -0.8104
vn -0.0000 0.6839 0.7296
vn 0.9669 -0.0000 -0.2550
vn 0.7933 -0.0000 -0.6088
vn 0.4607 -0.0000 -0.8875
vn -0.8086 -0.0000 -0.5883
vn 0.5859 -0.0000 -0.8104
vn 0.1305 -0.9915 -0.0000
vn 0.3827 -0.9239 -0.0000
vn -0.6940 -0.6936 -0.1931
vn 0.9637 -0.2670 -0.0000
vn 0.9651 0.1791 -0.1911
vn 0.1305 0.9915 -0.0000
vn 0.3827 0.9239 -0.0000
vn 0.6553 -0.6544 0.3774
vn 0.6552 -0.6545 0.3773
vn 0.6552 -0.6544 0.3773
vn -0.7070 0.7072 -0.0000
vn 0.9637 0.2670 -0.0000
vn 0.9810 -0.0000 -0.1942
vn 0.1305 -0.0000 0.9915
vn 0.3827 -0.0000 0.9239
vn 0.6088 -0.0000 0.7933
vn 0.7933 -0.0000 0.6088
vn 0.9669 -0.0000 0.2550
vn -0.0000 -0.6839 -0.7296
vn -0.0000 -0.9915 0.1305
vn -0.0000 -0.9239 0.3827
vn -0.0000 -0.7933 0.6088
vn -0.0000 -0.6088 0.7933
vn -0.0000 -0.3827 0.9239
vn -0.0000 -0.1305 0.9915
vn -0.0000 0.3827 0.9239
vn -0.0000 0.1305 0.9915
vn -0.3836 0.3836 -0.8401
vn 0.2424 -0.2431 -0.9392
vn -0.2424 0.2431 -0.9392
vn -0.2431 -0.2424 -0.9392
vn 0.3836 -0.3836 -0.8401
vn 0.3836 0.3836 -0.8401
vn 0.2431 0.2424 -0.9392
vn -0.3836 -0.3836 -0.8401
vn 0.6070 -0.7849 0.1247
vn 0.7024 0.7021 0.1174
vn 0.6932 0.6937 0.1958
vn -0.0010 -0.0014 -1.0000
vn -0.0011 -0.0016 -1.0000
vn -0.0010 -0.0015 -1.0000
vn 0.5770 -0.7339 0.3584
vn 0.5300 -0.6620 0.5300
vn 0.7849 -0.6069 0.1253
vn 0.7334 -0.5775 0.3588
vn 0.6620 -0.5300 0.5300
vn 0.5300 -0.5300 0.6620
vn 0.6069 -0.7849 -0.1253
vn 0.5775 -0.7334 -0.3588
vn 0.5300 -0.6620 -0.5300
vn 0.7849 -0.6070 -0.1247
vn 0.7339 -0.5770 -0.3584
vn 0.6620 -0.5300 -0.5300
vn 0.6088 -0.7933 -0.0000
vn 0.7933 -0.6088 -0.0000
vn 0.5138 -0.5138 -0.6871
vn 0.7022 0.7025 -0.1156
vn -0.6541 0.6548 0.3786
vn -0.6540 0.6549 0.3787
vn -0.6541 0.6548 0.3787
vn -0.0010 -0.0016 -1.0000
vn 0.6939 -0.6929 0.1958
vn -0.6933 0.6942 0.1935
vn 0.7073 -0.7069 -0.0000
vn -0.6938 0.6932 -0.1954
vn -0.6937 0.6932 -0.1954
vn 0.6935 -0.6941 -0.1932
vn -0.7017 0.7027 0.1175
vn 0.7022 -0.7022 -0.1173
vn -0.7069 0.7074 -0.0000
vn 0.7026 -0.7021 0.1157
vn -0.7026 0.7022 -0.1156
vn -0.6553 0.6546 -0.3769
vn -0.4676 0.4698 0.7488
vn 0.6553 -0.6544 0.3773
vn -0.6540 0.6549 0.3786
vn 0.6069 0.7849 0.1252
vn 0.5775 0.7334 0.3588
vn 0.5300 0.6620 0.5300
vn 0.5300 0.5300 0.6620
vn 0.7849 0.6070 0.1247
vn 0.7339 0.5770 0.3584
vn 0.6620 0.5300 0.5300
vn 0.6070 0.7849 -0.1247
vn 0.5770 0.7339 -0.3584
vn 0.5300 0.6620 -0.5300
vn 0.7849 0.6069 -0.1252
vn 0.7334 0.5775 -0.3588
vn 0.6620 0.5300 -0.5300
vn 0.6088 0.7933 -0.0000
vn 0.7933 0.6088 -0.0000
vn 0.5138 0.5137 -0.6871
vn 0.4705 -0.4686 0.7477
vn -0.5300 0.5300 0.6620
vn -0.6070 0.7849 0.1247
vn -0.5770 0.7339 0.3584
vn -0.5300 0.6620 0.5300
vn -0.7849 0.6069 0.1252
vn -0.7334 0.5775 0.3588
vn -0.6620 0.5300 0.5300
vn -0.6069 0.7849 -0.1252
vn -0.5775 0.7334 -0.3588
vn -0.5300 0.6620 -0.5300
vn -0.7849 0.6070 -0.1247
vn -0.7339 0.5770 -0.3584
vn -0.6620 0.5300 -0.5300
vn -0.6088 0.7933 -0.0000
vn -0.7933 0.6088 -0.0000
vn -0.5137 0.5138 -0.6871
vn -0.6549 -0.6540 0.3786
vn -0.6069 -0.7849 0.1252
vn -0.5775 -0.7334 0.3588
vn -0.5300 -0.6620 0.5300
vn -0.5300 -0.5300 0.6620
vn -0.7849 -0.6070 0.1247
vn -0.7339 -0.5770 0.3584
vn -0.6620 -0.5300 0.5300
vn -0.6070 -0.7849 -0.1247
vn -0.5770 -0.7339 -0.3584
vn -0.5300 -0.6620 -0.5300
vn -0.7849 -0.6069 -0.1252
vn -0.7334 -0.5775 -0.3588
vn -0.6620 -0.5300 -0.5300
vn -0.6088 -0.7933 -0.0000
vn -0.7933 -0.6088 -0.0000
vn -0.5138 -0.5138 -0.6871
vn -0.6542 0.6551 -0.3780
vn 0.9921 -0.0858 0.0915
vn 0.9921 0.0858 -0.0915
vn 0.9921 -0.0858 -0.0915
vn 0.9921 0.0858 0.0915
vn -0.9921 0.0858 0.0915
vn -0.9921 -0.0858 0.0915
vn -0.9921 0.0858 -0.0915
vn -0.9921 -0.0858 -0.0915
vn -0.9810 -0.0000 0.1942
vn -0.9832 0.1825 -0.0000
vn -0.0000 -0.6839 0.7296
vn -0.0000 0.6839 -0.7296
vn -0.6871 -0.7266 -0.0000
vn -0.6641 -0.0000 0.7476
vn -0.6871 0.7266 -0.0000
vn -0.6641 -0.0000 -0.7476
vn -0.5435 0.5737 0.6128
vn -0.5435 -0.5737 0.6128
vn -0.5435 0.5737 -0.6128
vn -0.5435 -0.5737 -0.6128
vn 0.9832 0.1825 -0.0000
vn 0.9832 -0.1825 -0.0000
vn 0.5435 0.5738 0.6127
vn 0.5435 -0.5738 -0.6127
vn 0.5435 0.5738 -0.6127
vn 0.5435 -0.5738 0.6127
vn 0.6641 -0.0000 -0.7476
vn 0.6871 -0.7266 -0.0000
vn 0.6871 0.7266 -0.0000
vn 0.6641 -0.0000 0.7476
vn -0.0000 0.9915 -0.1305
vn -0.0000 0.9239 -0.3827
vn -0.0000 0.7933 -0.6088
vn -0.0000 0.9915 0.1305
vn -0.0000 0.9239 0.3827
vn -0.0000 0.9350 0.3545
vn -0.0000 0.7819 0.6234
vn -0.0000 -0.7279 -0.6857
vn -0.0000 0.5617 0.8273
vt 0.795232 0.823693
vt 0.823693 0.795232
vt 0.852154 0.823693
vt 0.823693 0.852154
vt 0.730026 0.269974
vt 0.776852 0.316800
vt 0.363642 0.392102
vt 0.392102 0.363642
vt 0.420563 0.392102
vt 0.392102 0.420563
vt 0.392102 0.852154
vt 0.416337 0.876388
vt 0.392308 0.902354
vt 0.367868 0.876388
vt 0.438944 0.898995
vt 0.414498 0.923728
vt 0.485770 0.945821
vt 0.461683 0.969907
vt 0.369823 0.923894
vt 0.345261 0.898995
vt 0.392124 0.941410
vt 0.443115 0.988476
vt 0.823715 0.941410
vt 0.874706 0.988476
vt 0.011524 0.125294
vt 0.058590 0.176329
vt 0.154027 0.276508
vt 0.176329 0.294024
vt 0.847927 0.876388
vt 0.823899 0.902354
vt 0.799459 0.876388
vt 0.870534 0.898995
vt 0.846089 0.923728
vt 0.917360 0.945821
vt 0.893274 0.969907
vt 0.801413 0.923894
vt 0.776852 0.898995
vt 0.754112 0.969907
vt 0.730026 0.945821
vt 0.772680 0.988476
vt 0.211381 0.182920
vt 0.182920 0.211381
vt 0.176307 0.204768
vt 0.204768 0.176307
vt 0.123612 0.200541
vt 0.101005 0.223148
vt 0.076272 0.198703
vt 0.097646 0.176513
vt 0.123612 0.152073
vt 0.076106 0.154027
vt 0.101005 0.129466
vt 0.129466 0.251609
vt 0.030093 0.106726
vt 0.054179 0.082640
vt 0.227320 0.341089
vt 0.227320 0.443115
vt 0.876388 0.799459
vt 0.902354 0.823487
vt 0.876388 0.847927
vt 0.898995 0.776852
vt 0.923728 0.801297
vt 0.945821 0.730026
vt 0.969907 0.754112
vt 0.923894 0.845973
vt 0.898995 0.870534
vt 0.941410 0.823671
vt 0.988476 0.772680
vt 0.969907 0.893274
vt 0.945821 0.917360
vt 0.988476 0.874706
vt 0.898995 0.345261
vt 0.870534 0.316800
vt 0.852154 0.392102
vt 0.876388 0.367868
vt 0.902354 0.391896
vt 0.876388 0.416337
vt 0.923728 0.369706
vt 0.845973 0.291901
vt 0.823671 0.274386
vt 0.923894 0.414382
vt 0.898995 0.438944
vt 0.941410 0.392081
vt 0.969907 0.461683
vt 0.945821 0.485770
vt 0.988476 0.443115
vt 0.198587 0.076106
vt 0.176285 0.058590
vt 0.152072 0.229002
vt 0.152072 0.123612
vt 0.129466 0.101005
vt 0.153911 0.076272
vt 0.176101 0.097646
vt 0.082640 0.054179
vt 0.106726 0.030093
vt 0.200541 0.123612
vt 0.223148 0.101005
vt 0.125294 0.011525
vt 0.276342 0.153911
vt 0.251609 0.129466
vt 0.294024 0.176285
vt 0.363642 0.823693
vt 0.339407 0.847927
vt 0.313441 0.823899
vt 0.339407 0.799459
vt 0.316800 0.870534
vt 0.292068 0.846089
vt 0.291901 0.801413
vt 0.316800 0.776852
vt 0.274386 0.823715
vt 0.245888 0.754112
vt 0.269974 0.730026
vt 0.227320 0.772680
vt 0.169649 0.211426
vt 0.200541 0.229002
vt 0.223148 0.251609
vt 0.198703 0.276342
vt 0.176513 0.254968
vt 0.269974 0.298435
vt 0.245888 0.322521
vt 0.339407 0.416337
vt 0.339407 0.367868
vt 0.316800 0.438944
vt 0.292068 0.414498
vt 0.313441 0.392308
vt 0.269974 0.485770
vt 0.245888 0.461683
vt 0.291901 0.369823
vt 0.316800 0.345261
vt 0.274386 0.392124
vt 0.823693 0.363642
vt 0.799459 0.339407
vt 0.823487 0.313441
vt 0.847928 0.339407
vt 0.801297 0.292068
vt 0.754112 0.245888
vt 0.772680 0.227320
vt 0.367868 0.339407
vt 0.416337 0.339407
vt 0.345261 0.316800
vt 0.369706 0.292068
vt 0.391896 0.313441
vt 0.298435 0.269974
vt 0.322521 0.245888
vt 0.414382 0.291901
vt 0.438944 0.316800
vt 0.341089 0.227320
vt 0.392080 0.274386
vt 0.461683 0.245888
vt 0.485770 0.269974
vt 0.443115 0.227320
vt 0.176307 0.147846
vt 0.169693 0.141233
vt 0.182965 0.141188
vt 0.229002 0.152073
vt 0.254968 0.176101
vt 0.229002 0.200541
vt 0.276508 0.198587
vt 0.251609 0.223148
vt 0.420563 0.823693
vt 0.444797 0.799459
vt 0.470763 0.823487
vt 0.444797 0.847928
vt 0.467404 0.776852
vt 0.492137 0.801297
vt 0.509819 0.823671
vt 0.492303 0.845973
vt 0.467404 0.870534
vt 0.490181 0.607919
vt 0.507863 0.630294
vt 0.538317 0.893274
vt 0.514230 0.917360
vt 0.556885 0.874706
vt 0.579437 0.607898
vt 0.572100 0.615235
vt 0.572143 0.600604
vt 0.632132 0.660593
vt 0.654739 0.683200
vt 0.630294 0.707932
vt 0.608104 0.686559
vt 0.701565 0.730026
vt 0.677479 0.754112
vt 0.583663 0.660593
vt 0.585618 0.708099
vt 0.561056 0.683200
vt 0.607920 0.725614
vt 0.658911 0.772680
vt 0.438944 0.748391
vt 0.414382 0.723492
vt 0.341089 0.556885
vt 0.443115 0.556885
vt 0.770998 0.847928
vt 0.745032 0.823899
vt 0.770998 0.799459
vt 0.748391 0.870534
vt 0.723658 0.846089
vt 0.701565 0.917360
vt 0.677479 0.893274
vt 0.723492 0.801413
vt 0.748391 0.776852
vt 0.705976 0.823715
vt 0.658911 0.874706
vt 0.823693 0.420563
vt 0.847927 0.444798
vt 0.823899 0.470763
vt 0.799459 0.444797
vt 0.870534 0.467404
vt 0.846089 0.492137
vt 0.917360 0.514230
vt 0.893274 0.538317
vt 0.801413 0.492303
vt 0.776852 0.467404
vt 0.823715 0.509819
vt 0.874706 0.556885
vt 0.630177 0.507697
vt 0.607876 0.490181
vt 0.654739 0.532596
vt 0.799459 0.770998
vt 0.823487 0.745032
vt 0.847927 0.770998
vt 0.776852 0.748391
vt 0.801297 0.723658
vt 0.730026 0.701565
vt 0.754112 0.677479
vt 0.845973 0.723492
vt 0.870534 0.748391
vt 0.823671 0.705976
vt 0.772680 0.658911
vt 0.893274 0.677479
vt 0.917360 0.701565
vt 0.874706 0.658911
vt 0.607898 0.636358
vt 0.615192 0.643652
vt 0.600561 0.643696
vt 0.660593 0.583663
vt 0.683200 0.561056
vt 0.707932 0.585502
vt 0.686559 0.607692
vt 0.705976 0.392124
vt 0.723658 0.414498
vt 0.660593 0.632132
vt 0.708099 0.630177
vt 0.683200 0.654739
vt 0.725614 0.607876
vt 0.658911 0.341089
vt 0.392102 0.795232
vt 0.367868 0.770998
vt 0.391896 0.745032
vt 0.416337 0.770998
vt 0.345261 0.748391
vt 0.369706 0.723658
vt 0.298435 0.701565
vt 0.322521 0.677479
vt 0.392081 0.705976
vt 0.341089 0.658911
vt 0.532596 0.654739
vt 0.416337 0.444797
vt 0.367868 0.444797
vt 0.438944 0.467404
vt 0.414498 0.492137
vt 0.392308 0.470763
vt 0.485770 0.514230
vt 0.461683 0.538317
vt 0.369823 0.492303
vt 0.345261 0.467404
vt 0.392124 0.509819
vt 0.322521 0.538317
vt 0.298435 0.514230
vt 0.643652 0.615192
vt 0.636358 0.607898
vt 0.555202 0.632132
vt 0.529237 0.608104
vt 0.555202 0.583663
vt 0.507697 0.585618
vt 0.532596 0.561056
vt 0.795232 0.392102
vt 0.770998 0.416337
vt 0.745032 0.392308
vt 0.770998 0.367868
vt 0.748391 0.438944
vt 0.723492 0.369823
vt 0.748391 0.345261
vt 0.677479 0.322521
vt 0.701565 0.298435
vt 0.643696 0.600560
vt 0.583663 0.555203
vt 0.561056 0.532596
vt 0.585502 0.507863
vt 0.607692 0.529237
vt 0.514230 0.485770
vt 0.538317 0.461683
vt 0.632132 0.555203
vt 0.556885 0.443115
vt 0.444797 0.367868
vt 0.444797 0.416337
vt 0.467404 0.345261
vt 0.492137 0.369706
vt 0.470763 0.391896
vt 0.514230 0.298435
vt 0.538317 0.322521
vt 0.492303 0.414382
vt 0.467404 0.438944
vt 0.556885 0.341089
vt 0.509819 0.392081
vt 0.147846 0.176307
vt 0.141188 0.182965
vt 0.141233 0.169694
vt 0.211426 0.169649
vt 0.607898 0.579437
vt 0.600604 0.572143
vt 0.615235 0.572100
vt 0.555203 0.583663
vt 0.514230 0.730026
vt 0.538317 0.754112
vt 0.556885 0.772680
vt 0.621094 0.810497
vt 0.461683 0.677479
vt 0.485770 0.701565
vt 0.443115 0.658911
vt 0.405298 0.621094
vt 0.754112 0.538317
vt 0.730026 0.514230
vt 0.772680 0.556885
vt 0.810497 0.594702
vt 0.701565 0.485770
vt 0.677479 0.461683
vt 0.658911 0.443115
vt 0.594702 0.405298
vt 0.999900 0.784105
vt 0.945821 0.298435
vt 0.969907 0.322521
vt 0.988476 0.341089
vt 0.999900 0.352514
vt 0.245888 0.030093
vt 0.269974 0.054179
vt 0.227320 0.011524
vt 0.136718 0.000100
vt 0.893274 0.245888
vt 0.917360 0.269974
vt 0.874706 0.227320
vt 0.784105 0.215895
vt 0.298435 0.082640
vt 0.322521 0.106726
vt 0.341089 0.125294
vt 0.352514 0.136718
vt 0.352514 0.215895
vt 0.322521 0.969907
vt 0.298435 0.945821
vt 0.341089 0.988476
vt 0.431691 0.999900
vt 0.863281 0.999900
vt 0.054179 0.269974
vt 0.030093 0.245888
vt 0.011524 0.227320
vt 0.000100 0.215895
vt 0.269974 0.917360
vt 0.245888 0.893274
vt 0.227320 0.874706
vt 0.215895 0.863282
vt 0.106726 0.322521
vt 0.082640 0.298435
vt 0.125294 0.341089
vt 0.215895 0.352514
vt 0.215895 0.431691
s 1
usemtl マテリアル
f 138/1/1 170/2/1 33/3/1 2/4/1
f 105/5/2 104/6/2 421/6/2 422/5/2
f 70/7/3 102/8/3 238/9/3 206/10/3
f 1/11/4 3/12/4 7/13/4 6/14/4
f 3/12/5 4/15/5 8/16/5 7/13/5
f 4/15/6 5/17/6 9/18/6 8/16/6
f 6/14/7 7/13/7 11/19/7 10/20/7
f 7/13/8 8/16/8 12/21/8 11/19/8
f 8/16/9 9/18/9 13/22/9 12/21/9
f 23/23/10 24/24/10 357/24/10 358/23/10
f 24/25/11 32/26/11 361/26/11 357/25/11
f 87/27/12 88/28/12 372/28/12 370/27/12
f 2/4/13 14/29/13 18/30/13 17/31/13
f 14/29/14 15/32/14 19/33/14 18/30/14
f 15/32/15 16/34/15 20/35/15 19/33/15
f 17/31/16 18/30/16 22/36/16 21/37/16
f 18/30/17 19/33/17 23/23/17 22/36/17
f 19/33/18 20/35/18 24/24/18 23/23/18
f 21/37/19 22/36/19 9/38/19 5/39/19
f 22/36/20 23/23/20 13/40/20 9/38/20
f 12/21/21 13/22/21 114/22/21 128/21/21
f 390/41/22 389/42/22 376/43/22 377/44/22
f 25/45/23 26/46/23 29/47/23 28/48/23
f 11/19/24 12/21/24 128/21/24 136/19/24
f 27/49/25 28/48/25 31/50/25 30/51/25
f 28/48/26 29/47/26 32/26/26 31/50/26
f 86/52/27 87/27/27 370/27/27 371/52/27
f 30/51/28 31/50/28 20/53/28 16/54/28
f 31/50/29 32/26/29 24/25/29 20/53/29
f 89/55/30 100/56/30 368/56/30 373/55/30
f 33/3/31 35/57/31 39/58/31 38/59/31
f 35/57/32 36/60/32 40/61/32 39/58/32
f 36/60/33 37/62/33 41/63/33 40/61/33
f 38/59/34 39/58/34 43/64/34 42/65/34
f 39/58/35 40/61/35 44/66/35 43/64/35
f 40/61/36 41/63/36 45/67/36 44/66/36
f 42/65/37 43/64/37 64/68/37 60/69/37
f 43/64/38 44/66/38 68/70/38 64/68/38
f 48/71/39 110/72/39 346/72/39 336/71/39
f 34/73/40 47/74/40 51/75/40 50/76/40
f 47/74/41 48/71/41 52/77/41 51/75/41
f 111/78/42 112/79/42 347/79/42 345/78/42
f 50/76/43 51/75/43 55/80/43 54/81/43
f 51/75/44 52/77/44 56/82/44 55/80/44
f 52/77/45 48/71/45 336/71/45 337/77/45
f 54/81/46 55/80/46 41/83/46 37/84/46
f 55/80/47 56/82/47 45/85/47 41/83/47
f 66/86/48 67/87/48 344/87/48 342/86/48
f 82/88/49 25/45/49 380/45/49 387/88/49
f 58/89/50 59/90/50 63/91/50 62/92/50
f 59/90/51 60/93/51 64/94/51 63/91/51
f 61/95/52 62/92/52 66/86/52 65/96/52
f 62/92/53 63/91/53 67/87/53 66/86/53
f 63/91/54 64/94/54 68/97/54 67/87/54
f 45/85/55 56/82/55 340/82/55 332/85/55
f 131/98/56 127/99/56 354/99/56 355/98/56
f 135/100/57 131/98/57 355/98/57 356/100/57
f 69/101/58 71/102/58 74/103/58 73/104/58
f 71/102/59 72/105/59 75/106/59 74/103/59
f 26/46/60 86/52/60 371/52/60 359/46/60
f 73/104/61 74/103/61 77/107/61 76/108/61
f 74/103/62 75/106/62 78/109/62 77/107/62
f 13/40/63 23/23/63 358/23/63 114/40/63
f 76/108/64 77/107/64 96/110/64 92/111/64
f 77/107/65 78/109/65 100/112/65 96/110/65
f 78/109/66 75/106/66 363/106/66 366/109/66
f 376/43/67 389/42/67 386/113/67
f 79/114/68 80/115/68 84/116/68 83/117/68
f 80/115/69 81/118/69 85/119/69 84/116/69
f 82/88/70 83/117/70 87/27/70 86/52/70
f 83/117/71 84/116/71 88/28/71 87/27/71
f 84/116/72 85/119/72 89/55/72 88/28/72
f 29/47/73 26/46/73 359/46/73 360/47/73
f 100/112/74 78/109/74 366/109/74 368/112/74
f 75/106/75 72/105/75 362/105/75 363/106/75
f 70/7/76 90/120/76 93/121/76
f 90/120/77 91/122/77 95/123/77 94/124/77
f 91/122/78 92/125/78 96/126/78 95/123/78
f 93/121/79 94/124/79 98/127/79 97/128/79
f 94/124/80 95/123/80 98/127/80
f 95/123/81 96/126/81 100/56/81 99/129/81
f 97/128/82 98/127/82 85/119/82 81/118/82
f 98/127/83 99/129/83 89/55/83 85/119/83
f 99/129/84 100/56/84 89/55/84
f 101/130/85 103/131/85 107/132/85 106/133/85
f 103/131/86 104/6/86 108/134/86 107/132/86
f 104/6/87 105/5/87 109/135/87 108/134/87
f 106/133/88 107/132/88 111/78/88 110/72/88
f 107/132/89 108/134/89 112/79/89 111/78/89
f 108/134/90 109/135/90 113/136/90 112/79/90
f 68/70/91 44/66/91 333/66/91 334/70/91
f 110/72/92 111/78/92 345/78/92 346/72/92
f 65/96/93 66/86/93 342/86/93 343/96/93
f 102/8/94 115/137/94 118/138/94
f 115/137/95 116/139/95 120/140/95 119/141/95
f 116/139/96 117/142/96 121/143/96 120/140/96
f 118/138/97 119/141/97 123/144/97 122/145/97
f 119/141/98 120/140/98 123/144/98
f 120/140/99 121/143/99 125/146/99 124/147/99
f 122/145/100 123/144/100 109/148/100 105/149/100
f 123/144/101 124/147/101 113/150/101 109/148/101
f 124/147/102 125/146/102 113/150/102
f 375/151/103 385/152/103 382/153/103
f 126/154/104 127/99/104 131/98/104 130/155/104
f 113/150/105 125/146/105 353/146/105 348/150/105
f 129/156/106 130/155/106 134/157/106 133/158/106
f 130/155/107 131/98/107 135/100/107 134/157/107
f 125/146/108 135/100/108 356/100/108 353/146/108
f 133/158/109 134/157/109 121/143/109 117/142/109
f 134/157/110 135/100/110 125/146/110 121/143/110
f 127/99/111 65/96/111 343/96/111 354/99/111
f 137/159/112 139/160/112 142/161/112 141/162/112
f 139/160/113 140/163/113 143/164/113 142/161/113
f 146/165/114 143/164/114 274/164/114 277/165/114
f 141/162/115 142/161/115 145/166/115 144/167/115
f 142/161/116 143/164/116 146/165/116 145/166/116
f 236/168/117 233/169/117 296/169/117 297/168/117
f 144/167/118 145/166/118 164/170/118 160/171/118
f 145/166/119 146/165/119 168/172/119 164/170/119
f 168/172/120 146/165/120 277/165/120 279/172/120
f 396/173/121 402/174/121 405/175/121
f 147/176/122 148/177/122 152/178/122 151/179/122
f 148/177/123 149/180/123 153/181/123 152/178/123
f 150/182/124 151/179/124 155/183/124 154/184/124
f 151/179/125 152/178/125 156/185/125 155/183/125
f 152/178/126 153/181/126 157/186/126 156/185/126
f 143/164/127 140/163/127 273/163/127 274/164/127
f 214/187/128 215/188/128 286/188/128 287/187/128
f 217/189/129 228/190/129 294/190/129 289/189/129
f 138/1/130 158/191/130 162/192/130 161/193/130
f 158/191/131 159/194/131 163/195/131 162/192/131
f 159/194/132 160/196/132 164/197/132 163/195/132
f 161/193/133 162/192/133 166/198/133 165/199/133
f 162/192/134 163/195/134 167/200/134 166/198/134
f 163/195/135 164/197/135 168/201/135 167/200/135
f 165/199/136 166/198/136 153/181/136 149/180/136
f 166/198/137 167/200/137 157/186/137 153/181/137
f 156/185/138 157/186/138 284/186/138 283/185/138
f 169/202/139 171/203/139 175/204/139 174/205/139
f 171/203/140 172/206/140 176/207/140 175/204/140
f 172/206/141 173/208/141 177/209/141 176/207/141
f 174/205/142 175/204/142 179/210/142 178/211/142
f 175/204/143 176/207/143 180/212/143 179/210/143
f 176/207/144 177/209/144 181/213/144 180/212/144
f 259/214/145 260/215/145 313/215/146 311/214/146
f 258/216/147 259/214/147 311/214/147 312/216/148
f 179/210/149 180/212/149 300/212/150 298/210/151
f 170/2/152 183/217/152 187/218/152 186/219/152
f 183/217/153 184/220/153 188/221/153 187/218/153
f 184/220/154 185/222/154 189/223/154 188/221/154
f 186/219/155 187/218/155 191/224/155 190/225/155
f 187/218/156 188/221/156 192/226/156 191/224/156
f 188/221/157 189/223/157 193/227/157 192/226/157
f 190/225/158 191/224/158 177/228/158 173/229/158
f 191/224/159 192/226/159 181/230/159 177/228/159
f 181/230/160 192/226/160 303/226/161 301/230/162
f 394/231/163 410/232/163 413/233/163
f 194/234/164 195/235/164 199/236/164 198/237/164
f 248/238/165 244/239/165 308/239/166 309/238/166
f 197/240/167 198/237/167 202/241/167 201/242/167
f 198/237/168 199/236/168 203/243/168 202/241/168
f 199/236/169 195/235/169 304/235/170 305/236/170
f 201/242/171 202/241/171 189/223/171 185/222/171
f 202/241/172 203/243/172 193/227/172 189/223/172
f 272/244/173 248/238/173 309/238/174 310/244/174
f 205/245/175 207/246/175 211/247/175 210/248/175
f 207/246/176 208/249/176 212/250/176 211/247/176
f 208/249/177 209/251/177 213/252/177 212/250/177
f 210/248/178 211/247/178 215/188/178 214/187/178
f 211/247/179 212/250/179 216/253/179 215/188/179
f 212/250/180 213/252/180 217/254/180 216/253/180
f 228/190/181 236/168/181 297/168/181 294/190/181
f 157/186/182 167/200/182 285/200/182 284/186/182
f 230/255/39 154/184/39 282/184/39 295/255/39
f 206/10/183 218/256/183 221/257/183
f 218/256/184 219/258/184 223/259/184 222/260/184
f 219/258/185 220/261/185 224/262/185 223/259/185
f 221/257/186 222/260/186 226/263/186 225/264/186
f 222/260/187 223/259/187 226/263/187
f 223/259/188 224/262/188 228/190/188 227/265/188
f 225/264/189 226/263/189 213/266/189 209/267/189
f 226/263/190 227/265/190 217/189/190 213/266/190
f 227/265/191 228/190/191 217/189/191
f 401/268/192 410/232/192 394/231/192 395/269/192
f 229/270/193 230/255/193 233/169/193 232/271/193
f 216/253/194 217/254/194 289/254/194 288/253/194
f 231/272/195 232/271/195 235/273/195 234/274/195
f 232/271/196 233/169/196 236/168/196 235/273/196
f 155/183/197 156/185/197 283/185/197 281/183/197
f 234/274/198 235/273/198 224/262/198 220/261/198
f 235/273/199 236/168/199 228/190/199 224/262/199
f 167/200/200 168/201/200 279/201/200 285/200/200
f 237/275/201 239/276/201 243/277/201 242/278/201
f 239/276/202 240/279/202 244/239/202 243/277/202
f 244/239/203 240/279/203 307/279/203 308/239/203
f 242/278/204 243/277/204 247/280/204 246/281/204
f 243/277/205 244/239/205 248/238/205 247/280/205
f 203/243/206 199/236/206 305/236/207 306/243/207
f 246/281/208 247/280/208 268/282/208 264/283/208
f 247/280/209 248/238/209 272/244/209 268/282/209
f 195/235/210 258/216/210 312/216/211 304/235/212
f 395/269/213 398/284/213 401/268/213
f 251/285/214 252/286/214 256/287/214 255/288/214
f 252/286/215 253/289/215 257/290/215 256/287/215
f 254/291/216 255/288/216 259/214/216 258/216/216
f 255/288/217 256/287/217 260/215/217 259/214/217
f 256/287/218 257/290/218 261/292/218 260/215/218
f 178/211/219 179/210/219 298/210/220 299/211/220
f 260/215/221 261/292/221 314/292/222 313/215/221
f 192/226/223 193/227/223 302/227/224 303/226/224
f 238/9/225 262/293/225 265/294/225
f 262/293/226 263/295/226 267/296/226 266/297/226
f 263/295/227 264/298/227 268/299/227 267/296/227
f 265/294/228 266/297/228 270/300/228 269/301/228
f 266/297/229 267/296/229 270/300/229
f 267/296/230 268/299/230 272/302/230 271/303/230
f 269/301/231 270/300/231 257/290/231 253/289/231
f 270/300/232 271/303/232 261/292/232 257/290/232
f 271/303/233 272/302/233 261/292/233
f 69/101/234 1/11/234 6/14/234 71/102/234
f 71/102/235 6/14/235 10/20/235 72/105/235
f 32/26/236 29/47/236 360/47/236 361/26/236
f 10/20/237 11/19/237 136/19/237 132/20/237
f 86/52/238 26/46/238 25/45/238 82/88/238
f 374/304/239 381/305/239 378/306/239
f 2/4/240 33/3/240 38/59/240 14/29/240
f 14/29/241 38/59/241 42/65/241 15/32/241
f 15/32/242 42/65/242 60/69/242 16/34/242
f 16/54/243 60/93/243 59/90/243 30/51/243
f 30/51/244 59/90/244 58/89/244 27/49/244
f 61/95/245 126/154/245 392/154/245 383/95/245
f 34/73/246 101/130/246 106/133/246 47/74/246
f 47/74/247 106/133/247 110/72/247 48/71/247
f 112/79/248 113/136/248 348/136/248 347/79/248
f 44/66/249 45/67/249 332/67/249 333/66/249
f 65/96/250 127/99/250 126/154/250 61/95/250
f 386/113/251 381/305/251 374/304/251 376/43/251
f 102/8/252 70/7/252 93/121/252 115/137/252
f 115/137/253 93/121/253 97/128/253 116/139/253
f 116/139/254 97/128/254 81/118/254 117/142/254
f 117/142/255 81/118/255 80/115/255 133/158/255
f 133/158/256 80/115/256 79/114/256 129/156/256
f 377/44/257 393/307/257 390/41/257
f 205/245/258 69/101/258 73/104/258 207/246/258
f 207/246/259 73/104/259 76/108/259 208/249/259
f 208/249/260 76/108/260 92/111/260 209/251/260
f 209/267/261 92/125/261 91/122/261 225/264/261
f 225/264/262 91/122/262 90/120/262 221/257/262
f 221/257/263 90/120/263 70/7/263 206/10/263
f 171/203/264 169/202/264 423/202/264 424/203/264
f 34/73/2 50/76/2 416/76/2 417/73/2
f 173/208/264 172/206/264 425/206/264 426/208/264
f 105/149/265 264/298/265 263/295/265 122/145/265
f 122/145/266 263/295/266 262/293/266 118/138/266
f 118/138/267 262/293/267 238/9/267 102/8/267
f 194/234/268 197/240/268 400/240/268 399/234/268
f 251/285/269 231/272/269 234/274/269 252/286/269
f 252/286/270 234/274/270 220/261/270 253/289/270
f 253/289/271 220/261/271 219/258/271 269/301/271
f 269/301/272 219/258/272 218/256/272 265/294/272
f 265/294/273 218/256/273 206/10/273 238/9/273
f 137/159/274 205/245/274 210/248/274 139/160/274
f 139/160/275 210/248/275 214/187/275 140/163/275
f 140/163/111 214/187/111 287/187/111 273/163/111
f 215/188/276 216/253/276 288/253/276 286/188/276
f 154/184/277 230/255/277 229/270/277 150/182/277
f 397/308/278 406/309/278 409/310/278
f 237/275/279 169/202/279 174/205/279 239/276/279
f 239/276/280 174/205/280 178/211/280 240/279/280
f 193/227/281 203/243/281 306/243/282 302/227/283
f 240/279/60 178/211/60 299/211/284 307/279/284
f 258/216/285 195/235/285 194/234/285 254/291/285
f 397/308/286 396/173/286 405/175/286 406/309/286
f 170/2/287 138/1/287 161/193/287 183/217/287
f 183/217/288 161/193/288 165/199/288 184/220/288
f 184/220/289 165/199/289 149/180/289 185/222/289
f 185/222/290 149/180/290 148/177/290 201/242/290
f 201/242/291 148/177/291 147/176/291 197/240/291
f 229/270/292 231/272/292 404/311/292 403/270/292
f 1/11/293 137/159/293 141/162/293 3/12/293
f 3/12/294 141/162/294 144/167/294 4/15/294
f 4/15/295 144/167/295 160/171/295 5/17/295
f 5/39/296 160/196/296 159/194/296 21/37/296
f 21/37/297 159/194/297 158/191/297 17/31/297
f 17/31/298 158/191/298 138/1/298 2/4/298
f 104/6/2 103/131/2 420/131/2 421/6/2
f 242/278/264 246/281/264 430/281/264 428/278/264
f 37/62/2 36/60/2 414/60/2 415/62/2
f 246/281/264 264/283/264 431/283/264 430/281/264
f 190/225/299 36/60/299 35/57/299 186/219/299
f 186/219/300 35/57/300 33/3/300 170/2/300
f 69/101/49 205/245/49 137/159/49 1/11/49
f 221/257/301 218/256/301 222/260/301
f 226/263/302 223/259/302 227/265/302
f 123/144/303 120/140/303 124/147/303
f 98/127/304 95/123/304 99/129/304
f 118/138/305 115/137/305 119/141/305
f 93/121/306 90/120/306 94/124/306
f 270/300/307 267/296/307 271/303/307
f 265/294/308 262/293/308 266/297/308
f 273/163/309 275/312/309 276/313/309 274/164/309
f 154/184/310 155/183/310 281/183/310 282/184/310
f 72/105/210 10/20/210 132/20/210 362/105/210
f 56/82/311 52/77/311 337/77/311 340/82/311
f 261/292/312 272/302/312 310/302/313 314/292/314
f 274/164/315 276/313/315 278/314/315 277/165/315
f 277/165/316 278/314/316 280/315/316 279/172/316
f 282/184/317 281/183/317 276/313/317 275/312/317
f 281/183/318 283/185/318 278/314/318 276/313/318
f 283/185/319 284/186/319 280/315/319 278/314/319
f 285/200/320 279/201/320 280/315/320 284/186/320
f 287/187/321 286/188/321 291/316/321 290/317/321
f 286/188/322 288/253/322 292/318/322 291/316/322
f 288/253/323 289/254/323 293/319/323 292/318/323
f 295/255/324 290/317/324 291/316/324 296/169/324
f 296/169/325 291/316/325 292/318/325 297/168/325
f 297/168/326 292/318/326 293/319/326 294/190/326
f 273/163/327 287/187/327 290/317/327 275/312/327
f 275/312/328 290/317/328 295/255/328 282/184/328
f 289/189/329 294/190/329 293/319/329
f 233/169/330 230/255/330 295/255/330 296/169/330
f 300/212/331 301/213/332 241/213/333 245/212/333
f 314/292/314 310/302/313 326/302/334 331/292/334
f 313/215/221 314/292/222 331/292/221 330/215/221
f 306/243/207 305/236/207 318/236/335 319/243/335
f 298/210/151 300/212/150 245/212/336 250/210/336
f 304/235/212 312/216/211 329/216/337 317/235/337
f 309/238/166 308/239/166 321/239/338 324/238/339
f 311/214/146 313/215/146 330/215/340 328/214/340
f 299/211/220 298/210/220 250/210/341 249/211/341
f 312/216/148 311/214/147 328/214/342 329/216/342
f 307/279/284 299/211/284 249/211/343 320/279/343
f 305/236/170 304/235/170 317/235/344 318/236/344
f 308/239/203 307/279/203 320/279/345 321/239/345
f 310/244/174 309/238/174 324/238/346 326/244/346
f 301/230/162 303/226/161 316/226/347 241/230/347
f 302/227/283 306/243/282 319/243/348 315/227/348
f 180/212/349 181/213/349 301/213/332 300/212/331
f 249/211/350 250/210/350 200/320/350 204/321/350
f 250/210/351 245/212/351 196/322/351 200/320/351
f 245/212/352 241/213/352 182/323/352 196/322/352
f 316/226/353 315/227/353 182/323/353 241/230/353
f 317/235/354 204/321/354 200/320/354 318/236/354
f 318/236/355 200/320/355 196/322/355 319/243/355
f 319/243/356 196/322/356 182/323/356 315/227/356
f 320/279/357 322/324/357 323/325/357 321/239/357
f 321/239/358 323/325/358 325/326/358 324/238/358
f 324/238/359 325/326/359 327/327/359 326/244/359
f 329/216/360 328/214/360 323/325/360 322/324/360
f 328/214/361 330/215/361 325/326/361 323/325/361
f 330/215/362 331/292/362 327/327/362 325/326/362
f 320/279/363 249/211/363 204/321/363 322/324/363
f 322/324/364 204/321/364 317/235/364 329/216/364
f 331/292/365 326/302/365 327/327/365
f 303/226/224 302/227/224 315/227/366 316/226/366
f 333/66/367 332/67/367 335/328/367 334/70/367
f 336/71/368 338/329/368 339/330/368 337/77/368
f 337/77/369 339/330/369 341/331/369 340/82/369
f 340/82/370 341/331/370 335/332/370 332/85/370
f 343/96/371 342/86/371 339/333/371 338/334/371
f 342/86/372 344/87/372 341/335/372 339/333/372
f 344/87/373 334/97/373 335/336/373 341/335/373
f 346/72/374 345/78/374 350/337/374 349/338/374
f 345/78/375 347/79/375 351/339/375 350/337/375
f 347/79/376 348/136/376 352/340/376 351/339/376
f 354/99/377 349/341/377 350/342/377 355/98/377
f 355/98/378 350/342/378 351/343/378 356/100/378
f 356/100/379 351/343/379 352/344/379 353/146/379
f 336/71/380 346/72/380 349/338/380 338/329/380
f 338/334/381 349/341/381 354/99/381 343/96/381
f 348/150/382 353/146/382 352/345/382
f 67/87/383 68/97/383 334/97/383 344/87/383
f 132/20/384 136/19/384 53/346/384 57/347/384
f 136/19/385 128/21/385 49/348/385 53/346/385
f 128/21/386 114/22/386 46/349/386 49/348/386
f 358/23/387 357/24/387 46/350/387 114/40/387
f 359/46/388 57/351/388 53/352/388 360/47/388
f 360/47/389 53/352/389 49/353/389 361/26/389
f 361/26/390 49/353/390 46/354/390 357/25/390
f 362/105/391 364/355/391 365/356/391 363/106/391
f 363/106/392 365/356/392 367/357/392 366/109/392
f 366/109/393 367/357/393 369/358/393 368/112/393
f 371/52/394 370/27/394 365/359/394 364/360/394
f 370/27/395 372/28/395 367/361/395 365/359/395
f 372/28/396 373/55/396 369/362/396 367/361/396
f 362/105/397 132/20/397 57/347/397 364/355/397
f 364/360/398 57/351/398 359/46/398 371/52/398
f 373/55/399 368/56/399 369/363/399
f 88/28/400 89/55/400 373/55/400 372/28/400
f 150/182/401 147/176/401 151/179/401
f 254/291/402 251/285/402 255/288/402
f 231/272/403 229/270/403 232/271/403
f 197/240/404 194/234/404 198/237/404
f 61/95/405 58/89/405 62/92/405
f 27/49/406 25/45/406 28/48/406
f 129/156/407 126/154/407 130/155/407
f 82/88/408 79/114/408 83/117/408
f 374/304/2 375/151/2 377/44/2 376/43/2
f 378/306/409 385/152/409 375/151/409 374/304/409
f 382/153/410 393/307/410 377/44/410 375/151/410
f 129/156/3 79/114/3 388/114/3 391/156/3
f 58/89/268 61/95/268 383/95/268 384/89/268
f 25/45/411 27/49/411 379/49/411 380/45/411
f 79/114/292 82/88/292 387/88/292 388/114/292
f 126/154/412 129/156/412 391/156/412 392/154/412
f 381/305/413 386/113/413 387/88/413 380/45/413
f 385/152/414 378/306/414 379/49/414 384/89/414
f 393/307/415 382/153/415 383/95/415 392/154/415
f 389/42/416 390/41/416 391/156/416 388/114/416
f 384/89/417 383/95/417 382/153/417 385/152/417
f 380/45/418 379/49/418 378/306/418 381/305/418
f 392/154/419 391/156/419 390/41/419 393/307/419
f 388/114/420 387/88/420 386/113/420 389/42/420
f 27/49/1 58/89/1 384/89/1 379/49/1
f 396/173/264 397/308/264 395/269/264 394/231/264
f 409/310/421 398/284/421 395/269/421 397/308/421
f 413/233/422 402/174/422 396/173/422 394/231/422
f 147/176/411 150/182/411 412/182/411 411/176/411
f 251/285/412 254/291/412 408/291/412 407/285/412
f 231/272/3 251/285/3 407/285/3 404/311/3
f 197/240/1 147/176/1 411/176/1 400/240/1
f 150/182/49 229/270/49 403/270/49 412/182/49
f 399/234/423 400/240/423 401/268/423 398/284/423
f 403/270/424 404/311/424 405/175/424 402/174/424
f 407/285/425 408/291/425 409/310/425 406/309/425
f 411/176/426 412/182/426 413/233/426 410/232/426
f 404/311/427 407/285/427 406/309/427 405/175/427
f 402/174/428 413/233/428 412/182/428 403/270/428
f 398/284/429 409/310/429 408/291/429 399/234/429
f 410/232/430 401/268/430 400/240/430 411/176/430
f 254/291/245 194/234/245 399/234/245 408/291/245
f 429/275/245 419/130/245 417/73/245 423/202/245
f 419/130/431 429/275/431 428/278/431 420/131/431
f 420/131/432 428/278/432 430/281/432 421/6/432
f 421/6/433 430/281/433 431/283/433 422/5/433
f 423/202/434 417/73/434 416/76/434 424/203/434
f 424/203/435 416/76/435 418/81/435 425/206/435
f 425/206/436 418/81/436 415/84/436 426/208/436
f 426/229/437 415/62/437 414/60/437 427/225/437
f 264/298/438 105/149/438 422/149/438 431/298/438
f 101/130/2 34/73/2 417/73/2 419/130/2
f 54/81/2 37/84/2 415/84/2 418/81/2
f 50/76/2 54/81/2 418/81/2 416/76/2
f 103/131/2 101/130/2 419/130/2 420/131/2
f 169/202/264 237/275/264 429/275/264 423/202/264
f 237/275/264 242/278/264 428/278/264 429/275/264
f 172/206/264 171/203/264 424/203/264 425/206/264
f 190/225/264 173/229/264 426/229/264 427/225/264
f 36/60/439 190/225/439 427/225/439 414/60/439
